<svg width="123" height="64" viewBox="0 0 123 64" fill="none" xmlns="http://www.w3.org/2000/svg">
<path fill-rule="evenodd" clip-rule="evenodd" d="M71.949 35.2286C71.949 36.2562 71.7471 37.1633 71.3478 37.9499C70.9441 38.7387 70.405 39.3873 69.724 39.8956C68.9188 40.5091 68.0536 40.9408 67.1374 41.1993C66.2191 41.4535 65.03 41.5806 63.5748 41.5806H57.4434V20.8965H63.1134C64.6374 20.8965 65.7776 20.9447 66.5385 21.0411C67.2994 21.1375 68.0314 21.3654 68.7302 21.7291C69.4955 22.1257 70.0568 22.6472 70.4073 23.2892C70.7622 23.9312 70.9397 24.6893 70.9397 25.5548C70.9397 26.5298 70.6735 27.3997 70.1411 28.1644C69.6109 28.9335 68.8744 29.536 67.936 29.9677V30.0794C69.2094 30.4147 70.1965 31.0238 70.8953 31.909C71.6007 32.7964 71.949 33.8985 71.949 35.2286ZM67.9804 25.9492C67.9804 25.4452 67.8939 25.0158 67.7186 24.6455C67.5501 24.2839 67.2705 23.9925 66.889 23.78C66.4276 23.5302 65.9151 23.3768 65.3495 23.3199C64.786 23.2673 64.0052 23.2388 63.0091 23.2388H60.2784V29.295H63.5127C64.4022 29.295 65.0611 29.2512 65.4804 29.1614C65.9018 29.0715 66.3366 28.8919 66.787 28.6136C67.2195 28.3485 67.5257 27.9935 67.7076 27.5597C67.8917 27.1214 67.9804 26.5824 67.9804 25.9492ZM68.992 35.3403C68.992 34.5603 68.8744 33.9183 68.6437 33.4099C68.413 32.906 67.9494 32.4765 67.2528 32.1259C66.8003 31.8915 66.31 31.7447 65.7798 31.6789C65.2474 31.6154 64.4932 31.5825 63.5149 31.5825H60.2784V39.2405H62.5965C63.841 39.2405 64.8237 39.1835 65.5425 39.0718C66.2612 38.96 66.8956 38.7256 67.4391 38.3618C67.976 38.0003 68.3664 37.5884 68.6171 37.1304C68.8677 36.6703 68.992 36.0721 68.992 35.3403Z" fill="white"/>
<path fill-rule="evenodd" clip-rule="evenodd" d="M74.7852 41.5806V20.8965H88.1794V23.3418H77.6224V29.0102H87.4607V31.4598H77.6224V39.1331H88.1794V41.5806H74.7852Z" fill="white"/>
<path fill-rule="evenodd" clip-rule="evenodd" d="M97.2466 41.9492C95.6937 41.9492 94.3783 41.7915 93.2913 41.4869C92.2043 41.1758 91.1839 40.7923 90.2278 40.341V36.8987H90.4297C91.3658 37.7489 92.4261 38.4062 93.6152 38.8729C94.7998 39.3396 95.9466 39.5719 97.0469 39.5719C98.6131 39.5719 99.7999 39.2585 100.605 38.6231C101.408 37.9877 101.81 37.1507 101.81 36.1165C101.81 35.2904 101.597 34.6222 101.177 34.1029C100.758 33.5836 100.088 33.2001 99.1676 32.9481C98.5088 32.7641 97.9054 32.6129 97.3597 32.4924C96.814 32.3719 96.1285 32.2097 95.3055 32.0082C94.5691 31.8219 93.9058 31.5853 93.3224 31.2982C92.7411 31.0112 92.2243 30.6365 91.7717 30.1742C91.3303 29.7184 90.9887 29.1882 90.7447 28.5681C90.4984 27.9568 90.3786 27.2469 90.3786 26.4405C90.3786 24.7643 91.053 23.3598 92.4062 22.2248C93.7527 21.0942 95.4763 20.5267 97.5704 20.5267C98.7683 20.5267 99.8975 20.6429 100.967 20.8729C102.031 21.1052 103.021 21.4339 103.928 21.8589V25.1566H103.713C103.036 24.5518 102.165 24.0281 101.102 23.5768C100.039 23.1276 98.9236 22.9041 97.759 22.9041C96.4391 22.9041 95.3743 23.2021 94.558 23.7959C93.7438 24.394 93.3401 25.1785 93.3401 26.1491C93.3401 27.0256 93.5797 27.7245 94.0566 28.2438C94.5358 28.7631 95.2301 29.1444 96.1374 29.3832C96.743 29.5388 97.4773 29.7184 98.3491 29.9178C99.2209 30.115 99.9418 30.3013 100.519 30.4678C101.992 30.9038 103.07 31.5612 103.746 32.4398C104.427 33.3206 104.767 34.403 104.767 35.6892C104.767 36.4912 104.596 37.2909 104.259 38.0753C103.917 38.8641 103.44 39.5324 102.828 40.078C102.14 40.6784 101.362 41.1429 100.496 41.4672C99.6291 41.7893 98.5443 41.9492 97.2466 41.9492Z" fill="white"/>
<path fill-rule="evenodd" clip-rule="evenodd" d="M112.673 41.5806V23.3418H105.488V20.8965H122.698V23.3418H115.513V41.5806H112.673Z" fill="white"/>
<path d="M111.251 49.9158H108.119V44.3547H108.838V49.2584H111.251V49.9158ZM115.735 44.3547L113.876 49.9158H113.102L111.243 44.3547H112.012L113.507 48.9626L115 44.3547H115.735ZM118.137 49.9158H116.039V49.3483H116.728V44.9222H116.039V44.3547H118.137V44.9222H117.447V49.3483H118.137V49.9158ZM122.94 44.3547L121.081 49.9158H120.304L118.448 44.3547H119.217L120.713 48.9626L122.206 44.3547H122.94Z" fill="white"/>
<path fill-rule="evenodd" clip-rule="evenodd" d="M46.771 41.6068L42.0615 38.8131H29.7608L25.0469 41.6068C29.5545 49.6657 43.0331 62.8584 57.6319 63.9999C52.543 61.0682 44.4462 50.5312 46.771 41.6068Z" fill="white"/>
<path fill-rule="evenodd" clip-rule="evenodd" d="M36.6847 26.4708L36.5938 26.3021L36.6847 26.4708ZM50.0967 0C50.1744 6.00146 45.3561 18.4798 36.6825 20.8747L36.6847 26.473L42.8361 37.433L47.5434 40.2332C52.071 32.1852 56.4367 13.5805 50.0967 0Z" fill="white"/>
<path fill-rule="evenodd" clip-rule="evenodd" d="M28.9847 37.4303L28.8937 37.5947L28.9847 37.4303ZM35.1383 20.8743C26.1053 20.8633 8.25884 26.2732 0 38.7121C5.01342 35.6468 17.9263 33.6967 24.2774 40.2328L28.9847 37.4325L35.1361 26.4726L35.1383 20.8743Z" fill="white"/>
<path fill-rule="evenodd" clip-rule="evenodd" d="M33.0234 34.234C33.0234 32.5994 34.3145 31.2738 35.9073 31.2738C37.5 31.2738 38.7911 32.5994 38.7911 34.234C38.7911 35.8773 37.5 37.2029 35.9073 37.2029C34.3145 37.2029 33.0234 35.8773 33.0234 34.234Z" fill="white"/>
</svg>
