<svg width="292" height="102" viewBox="0 0 292 102" fill="none" xmlns="http://www.w3.org/2000/svg">
<path d="M280.569 56.2726C273.606 54.2042 265.757 54.1708 258.51 53.6785C251.408 53.1987 244.296 52.7443 237.19 52.2906C222.991 51.3795 208.785 50.4304 194.582 49.857C165.976 48.701 137.348 49.4019 109.443 53.8323C93.6538 56.3375 78.4862 60.1718 63.4081 64.5613C60.1268 65.5172 58.7517 69.0394 60.1606 71.6813C61.712 74.605 65.4788 75.6112 68.8086 74.7248C81.5819 71.3383 94.9945 69.3889 108.336 67.811C121.742 66.22 135.345 65.2399 148.928 64.7222C176.331 63.6791 203.543 63.8116 231.018 65.6143C238.87 66.129 246.711 66.7373 254.551 67.4036C258.277 67.7179 261.996 68.0843 265.724 68.3354C270.117 68.6323 274.705 69.2543 279.028 68.6918C286.076 67.7701 288.264 58.564 280.569 56.2726Z" fill="#D7D7D7"/>
<path d="M221.844 45.5105C232.041 46.1787 242.236 47.021 252.41 48.0349C257.3 48.5201 262.18 49.1889 267.055 49.8466C272.783 50.6208 280.219 52.7108 285.449 50.2005C291.777 47.1608 292.569 41.3422 287.106 36.8448C282.93 33.4106 276.254 33.5279 270.914 33.0978C266.201 32.7191 261.484 32.4244 256.767 32.0769C247.736 31.4055 238.708 30.708 229.666 30.2254C210.79 29.2147 191.897 28.7937 173.04 28.9054C154.868 29.0122 136.614 29.7798 118.612 31.3184C100.541 32.8589 82.4326 34.2416 64.622 37.003C44.2717 40.1573 24.1018 43.7989 4.1157 48.1553C1.8223 48.6579 0.0902946 50.1019 0.49246 52.2755C0.841448 54.1625 3.26581 55.8739 5.57493 55.5C41.0273 49.7554 77.2841 46.3135 113.526 44.4758C149.448 42.6565 185.756 43.141 221.837 45.5097L221.844 45.5105Z" fill="#D7D7D7"/>
</svg>
