<svg width="1920" height="966" viewBox="0 0 1920 966" fill="none" xmlns="http://www.w3.org/2000/svg">
<path d="M2007.22 579.234C2009.5 465.455 2010.45 345.83 1956.4 245.645C1902.38 145.482 1773.24 76.1159 1671.66 127.482C1596.29 165.607 1561.15 254.944 1552.34 338.945C1543.53 422.945 1554.4 508.518 1540.43 591.788C1532.41 639.611 1515.12 687.723 1480.54 721.73C1445.96 755.738 1391.29 772.232 1347.14 752.173C1287.59 725.118 1270.8 648.423 1272.22 583.021C1274.63 472.385 1306.94 363.742 1306.21 253.062C1305.48 142.382 1259.98 19.9235 1157.84 -22.741C1044.82 -69.9665 909.162 6.35144 854.188 115.836C799.235 225.298 807.051 355.506 830.232 475.794C853.413 596.083 890.764 715 890.786 837.502C890.808 921.924 861.339 1020.16 781.589 1047.79C715.19 1070.8 640.024 1031.85 599.064 974.729C558.104 917.606 543.491 846.314 529.875 777.347C508.244 667.818 486.613 558.29 465.026 448.761C451.764 381.609 438.081 313.24 405.358 253.106C372.612 192.995 317.217 141.275 249.622 130.316C134.027 111.607 29.369 221.401 10.3283 336.93C-8.71248 452.459 33.9299 568.386 77.8343 676.94C121.739 785.495 168.544 898.676 158.115 1015.29C150.477 1101.04 100.373 1191.84 16.3061 1210.46C-63.1558 1228.06 -140.005 1177.16 -205.541 1128.89C-344.87 1026.27 -484.2 923.651 -623.552 821.052" stroke="#1B17E1" stroke-width="200" stroke-miterlimit="10"/>
</svg>
