<svg width="1920" height="934" viewBox="0 0 1920 934" fill="none" xmlns="http://www.w3.org/2000/svg">
<path d="M412.706 347.581C412.844 347.478 412.964 347.375 413.067 347.221C413.616 346.465 413.444 345.401 412.689 344.852C400.484 336.011 396.398 334.071 393.669 335.788C390.768 337.625 391.609 342.603 393.6 353.486L393.892 355.031C394.046 355.958 394.922 356.559 395.849 356.405C396.759 356.233 397.377 355.358 397.205 354.448L396.93 352.903C395.797 346.654 394.51 339.565 395.488 338.655C397.205 337.848 407.367 345.195 410.698 347.616C411.316 348.045 412.14 348.028 412.706 347.581Z" fill="#FFF16C"/>
<path d="M424.568 358.053C424.74 357.932 424.894 357.761 424.997 357.572C434.13 342.551 432.791 339.753 432.344 338.826C431.806 337.682 426.399 339.015 416.122 342.826C413.787 343.667 411.762 344.422 411.178 344.611C410.268 344.886 409.805 345.847 410.097 346.74C410.371 347.633 411.333 348.113 412.225 347.839C412.878 347.633 414.732 346.929 417.289 345.985C420.637 344.749 426.199 342.689 429.117 341.727C428.448 344.216 426.113 349.229 422.096 355.804C421.615 356.593 421.873 357.641 422.662 358.138C423.28 358.516 424.036 358.447 424.568 358.053Z" fill="#FFF16C"/>
<path d="M439.589 373.691C440.018 373.365 440.31 372.902 440.361 372.369C440.533 371.03 439.417 370.241 438.233 369.417C437.907 369.177 437.392 368.816 437.254 368.662C434.302 365.417 431.074 362.43 427.95 359.529C426.697 358.362 425.444 357.194 424.191 356.01C423.521 355.375 422.44 355.392 421.804 356.079C421.169 356.748 421.187 357.83 421.873 358.465C423.126 359.666 424.379 360.834 425.65 362.001C428.723 364.851 431.898 367.803 434.731 370.91C434.868 371.048 434.988 371.202 435.16 371.34C430.147 371.717 421.341 370.464 415.831 369.262C414.921 369.056 414.028 369.64 413.822 370.55C413.616 371.46 414.2 372.352 415.11 372.558C415.281 372.593 432.825 376.386 439.04 373.983C439.246 373.897 439.434 373.794 439.589 373.674V373.691Z" fill="#FFF16C"/>
<path d="M405.273 391.716C406.973 390.428 408.346 387.235 410.166 382.961C410.784 381.536 411.401 380.06 412.037 378.721C412.414 377.914 413.53 376.455 414.526 375.15C415.504 373.88 416.431 372.661 416.946 371.717C417.393 370.91 417.101 369.88 416.294 369.417C415.487 368.97 414.457 369.262 413.994 370.069C413.582 370.807 412.689 371.974 411.813 373.107C410.612 374.669 409.513 376.129 408.981 377.279C408.312 378.652 407.676 380.163 407.041 381.639C406.028 384.008 404.569 387.407 403.625 388.626C403.196 387.785 402.458 385.536 401.72 379.596C401.685 379.304 401.651 378.755 401.617 378.103C401.342 373.193 401.067 371.425 399.917 370.635C398.716 369.794 396.364 369.726 390.888 369.777C388.519 369.777 384.948 369.811 382.854 369.554C385.257 367.151 389.892 362.636 392.707 359.906C394.784 357.881 396.415 356.319 396.776 355.941C397.445 355.271 397.411 354.207 396.741 353.555C396.072 352.902 395.008 352.92 394.355 353.589C394.012 353.95 392.398 355.495 390.355 357.486C382.07 365.531 378.087 369.96 378.408 370.773C379.421 373.142 383.386 373.227 390.888 373.176C393.308 373.142 396.518 373.142 397.703 373.382C397.977 374.463 398.132 377.21 398.201 378.326C398.235 379.098 398.286 379.716 398.321 380.043C399.419 388.78 400.69 391.99 403.127 392.351C403.9 392.454 404.604 392.248 405.256 391.767L405.273 391.716Z" fill="#FFF16C"/>
<path d="M41.3801 821.665C41.5346 821.665 41.7064 821.631 41.878 821.579C42.7535 821.305 43.2512 820.361 42.9937 819.451C38.5304 805.065 36.4362 801.066 33.2261 800.791C29.81 800.499 27.4926 805.014 22.5486 814.902L21.8448 816.309C21.4328 817.151 21.7588 818.146 22.6 818.575C23.4411 818.987 24.4541 818.661 24.8661 817.82L25.5699 816.412C28.4024 810.73 31.6296 804.293 32.9686 804.156C34.8397 804.55 38.5476 816.515 39.7664 820.447C39.9895 821.167 40.6591 821.648 41.3801 821.648V821.665Z" fill="#FFF16C"/>
<path d="M44.5732 837.132C44.7792 837.132 45.0023 837.098 45.2083 837.012C61.5336 830.472 62.1344 827.433 62.3232 826.437C62.575 825.19 57.4537 823.004 46.9593 819.88C44.5732 819.176 42.5132 818.558 41.9295 818.352C41.054 818.043 40.0927 818.524 39.7837 819.399C39.4747 820.292 39.9555 821.236 40.831 821.545C41.4834 821.768 43.3715 822.335 46.0151 823.107C49.4312 824.137 55.1133 825.819 58.0144 826.798C56.0059 828.377 51.1136 830.987 43.9552 833.853C43.0969 834.197 42.6677 835.175 43.011 836.051C43.2685 836.72 43.9209 837.115 44.5732 837.115V837.132Z" fill="#FFF16C"/>
<path d="M47.2008 858.659C47.7502 858.659 48.2307 858.453 48.6084 858.075C49.5525 857.097 49.1406 855.809 48.6943 854.419C48.557 854.041 48.368 853.44 48.368 853.217C47.9732 848.857 47.1666 844.531 46.4112 840.325C46.1022 838.626 45.7932 836.961 45.5014 835.261C45.3469 834.334 44.4714 833.716 43.5616 833.871C42.6346 834.025 42.0165 834.901 42.171 835.828C42.4456 837.527 42.7719 839.226 43.0809 840.926C43.8362 845.046 44.6086 849.32 44.9863 853.526C44.9863 853.715 45.0207 853.904 45.0722 854.11C40.8321 851.397 34.5148 845.115 30.8756 840.84C30.2576 840.136 29.2104 840.05 28.4894 840.651C27.7684 841.269 27.6998 842.334 28.3006 843.037C28.4208 843.175 40.1626 856.719 46.5657 858.556C46.7717 858.625 46.9776 858.642 47.1836 858.642L47.2008 858.659Z" fill="#FFF16C"/>
<path d="M8.93434 852.462C11.063 852.462 14.1014 850.711 18.1011 848.393C19.4573 847.621 20.8308 846.831 22.1526 846.145C22.9422 845.715 24.7102 845.218 26.2724 844.771C27.8345 844.342 29.2938 843.93 30.2723 843.484C31.1306 843.106 31.5254 842.11 31.1306 841.252C30.7529 840.394 29.7572 839.999 28.8989 840.394C28.1264 840.72 26.7017 841.132 25.3627 841.527C23.4572 842.059 21.6719 842.557 20.5732 843.14C19.2171 843.861 17.7922 844.668 16.4189 845.475C14.1872 846.745 10.9773 848.599 9.48378 848.994C9.63828 848.067 10.3936 845.818 13.3634 840.617C13.5179 840.359 13.8097 839.913 14.1874 839.364C16.9168 835.261 17.7407 833.682 17.3116 832.377C16.8481 830.987 14.994 829.527 10.6166 826.266C8.71114 824.841 5.86167 822.73 4.33386 821.27C7.68131 820.79 14.1015 819.966 17.9982 819.485C20.8822 819.107 23.1139 818.816 23.6289 818.747C24.5559 818.61 25.1738 817.734 25.0364 816.824C24.8991 815.915 24.0408 815.279 23.1138 815.417C22.616 815.485 20.4016 815.777 17.5863 816.138C6.13056 817.603 0.293863 818.753 0.0764217 819.588C-0.541567 822.094 2.56571 824.532 8.60828 828.995C10.5652 830.437 13.1402 832.36 13.947 833.287C13.5178 834.317 11.99 836.583 11.372 837.527C10.9429 838.162 10.5823 838.694 10.4278 838.986C6.06754 846.608 5.14067 849.955 6.89164 851.689C7.44097 852.239 8.12752 852.496 8.93434 852.496V852.462Z" fill="#FFF16C"/>
<path d="M641.741 908.974C641.844 908.974 641.964 908.939 642.067 908.888C642.668 908.665 642.96 907.995 642.737 907.412C639.132 897.867 637.553 895.241 635.372 895.189C633.055 895.155 631.664 898.296 628.729 905.18L628.334 906.141C628.077 906.725 628.334 907.394 628.935 907.652C629.519 907.892 630.188 907.618 630.428 907.034L630.858 906.055C632.523 902.107 634.445 897.627 635.338 897.472C636.608 897.678 639.612 905.609 640.591 908.201C640.78 908.682 641.243 908.974 641.724 908.939L641.741 908.974Z" fill="#FFF16C"/>
<path d="M644.522 919.291C644.677 919.291 644.814 919.239 644.951 919.188C655.715 914.089 655.989 912.029 656.092 911.326C656.218 910.479 652.665 909.214 645.432 907.532C643.801 907.154 642.377 906.811 641.982 906.708C641.364 906.553 640.729 906.897 640.574 907.498C640.402 908.116 640.763 908.751 641.364 908.905C641.81 909.043 643.115 909.352 644.917 909.746C647.269 910.296 651.183 911.206 653.174 911.755C651.887 912.888 648.694 914.879 643.973 917.111C643.407 917.368 643.166 918.055 643.424 918.621C643.63 919.051 644.076 919.308 644.522 919.291Z" fill="#FFF16C"/>
<path d="M647.182 933.727C647.543 933.693 647.869 933.539 648.092 933.281C648.71 932.577 648.35 931.719 648.006 930.809C647.92 930.552 647.749 930.14 647.732 930.019C647.285 927.084 646.581 924.183 645.895 921.385C645.62 920.252 645.345 919.136 645.088 918.02C644.951 917.402 644.333 917.024 643.715 917.162C643.097 917.299 642.719 917.917 642.874 918.535C643.131 919.668 643.423 920.801 643.697 921.934C644.367 924.698 645.071 927.53 645.5 930.363C645.5 930.5 645.534 930.62 645.586 930.758C642.616 929.092 638.084 925.11 635.44 922.38C634.994 921.917 634.273 921.9 633.827 922.346C633.38 922.775 633.363 923.496 633.792 923.96C633.878 924.045 642.376 932.715 646.77 933.693C646.925 933.727 647.062 933.727 647.217 933.727H647.182Z" fill="#FFF16C"/>
<path d="M621.056 931.118C622.515 931.033 624.472 929.728 627.099 927.994C627.992 927.411 628.884 926.827 629.742 926.295C630.257 925.969 631.442 925.574 632.472 925.213C633.502 924.853 634.48 924.527 635.133 924.183C635.682 923.891 635.905 923.205 635.63 922.638C635.339 922.072 634.652 921.849 634.086 922.14C633.588 922.398 632.661 922.724 631.734 923.05C630.481 923.497 629.296 923.909 628.558 924.338C627.682 924.887 626.755 925.488 625.846 926.089C624.404 927.05 622.309 928.423 621.314 928.75C621.4 928.132 621.812 926.569 623.597 922.93C623.683 922.758 623.854 922.432 624.095 922.055C625.76 919.171 626.275 918.072 625.932 917.196C625.554 916.287 624.266 915.36 621.159 913.351C619.803 912.476 617.795 911.154 616.696 910.227C618.945 909.781 623.254 908.957 625.863 908.459C627.785 908.098 629.296 907.807 629.639 907.721C630.257 907.583 630.669 906.982 630.515 906.364C630.378 905.746 629.777 905.352 629.142 905.489C628.815 905.558 627.339 905.832 625.434 906.21C617.755 907.663 613.858 908.676 613.743 909.249C613.417 910.965 615.632 912.493 619.906 915.257C621.279 916.167 623.099 917.334 623.683 917.935C623.442 918.639 622.498 920.252 622.138 920.887C621.88 921.334 621.64 921.711 621.571 921.917C618.91 927.256 618.447 929.539 619.683 930.655C620.078 931.015 620.558 931.153 621.091 931.118H621.056Z" fill="#FFF16C"/>
<path d="M1726.78 0.150321C1727.41 -0.399004 1731.45 1.20891 1738.91 4.97408C1740.06 5.55774 1741.04 6.05556 1741.69 6.38172L1741.88 6.27872C1748.9 2.33045 1752.08 0.493649 1754.31 2.27895C1756.39 3.94409 1755.8 7.58337 1753.06 16.7674C1753.5 17.3167 1754.12 18.072 1754.86 18.9647C1759.98 25.2018 1762.1 28.7381 1761.25 29.5735C1760.63 30.1743 1759.03 31.7193 1747.38 29.2817C1747.08 29.9512 1746.78 30.6035 1746.48 31.273C1745.28 34.0368 1744.01 36.9036 1742.52 39.6159C1742.43 39.8047 1742.36 40.0794 1742.28 40.354C1741.97 41.384 1741.64 42.5513 1740.41 42.826C1739.91 42.929 1739.39 42.826 1738.98 42.5342C1738.83 42.4312 1738.67 42.2938 1738.54 42.1393C1735.93 39.0322 1734.47 29.9512 1734 26.7067C1733.47 26.5522 1732.9 26.3806 1732.3 26.1574C1731.29 25.8313 1730.04 25.4193 1729.47 25.3506C1728.44 25.2304 1727.31 25.1446 1726.21 25.0931C1722.88 24.8356 1720.34 24.6639 1718.97 23.737C1718.42 23.3593 1718.04 22.8443 1717.9 22.1405C1717.51 20.1148 1719.38 18.4669 1725.28 15.5486C1725.49 15.4456 1725.92 15.2739 1726.45 15.0508C1727.07 14.7933 1728.51 14.2096 1729.27 13.7976C1729.06 12.8363 1728.39 10.9308 1727.91 9.60901C1726.07 4.37326 1725.2 1.5923 1726.79 0.167487L1726.78 0.150321ZM1732.6 15.0164C1732.27 16.1666 1731.15 16.7846 1727.72 18.1922C1727.29 18.3639 1726.95 18.5184 1726.76 18.6042C1724.2 19.8573 1722.79 20.7328 1722.02 21.265C1723.24 21.471 1725.08 21.6083 1726.43 21.7113C1727.57 21.7971 1728.73 21.8658 1729.81 21.986C1730.74 22.089 1732.01 22.501 1733.35 22.9473C1734.3 23.2735 1735.26 23.5825 1735.82 23.6855C1735.86 23.6855 1735.87 23.7198 1735.91 23.7198C1736.03 23.7541 1736.13 23.8056 1736.24 23.8399C1736.32 23.8743 1736.44 23.9258 1736.51 23.9773C1736.6 24.0288 1736.66 24.1146 1736.73 24.1833C1736.8 24.2691 1736.89 24.3378 1736.94 24.4408C1736.99 24.5266 1737.02 24.6124 1737.06 24.6983C1737.11 24.8013 1737.15 24.9043 1737.16 25.0416C1737.16 25.0759 1737.2 25.0931 1737.2 25.1274C1737.61 28.6809 1738.62 34.0368 1739.82 37.3842C1741.13 34.9638 1742.26 32.3888 1743.36 29.8825C1743.86 28.7495 1744.35 27.6337 1744.85 26.5179C1745.25 25.6596 1746.24 25.2991 1747.1 25.6768C1747.17 25.7111 1747.19 25.7626 1747.26 25.7798C1751.74 26.7582 1755.24 27.1874 1757.2 27.2561C1755.79 25.4708 1753.59 22.7928 1752.2 21.0933C1751.03 19.6685 1750.11 18.5527 1749.8 18.1407V18.1064C1749.76 18.072 1749.76 18.072 1749.76 18.072C1749.66 17.9175 1749.57 17.7459 1749.52 17.5742C1749.52 17.4884 1749.49 17.4369 1749.49 17.3682C1749.45 17.2309 1749.45 17.1107 1749.45 16.9734C1749.45 16.9047 1749.45 16.8361 1749.49 16.7674C1749.49 16.7159 1749.49 16.6644 1749.52 16.6129C1750.26 14.1238 1752.49 6.77655 1752.11 4.99124C1750.84 5.09424 1747.12 7.18854 1743.53 9.21418L1742.57 9.7635C1742.57 9.7635 1742.48 9.79784 1742.43 9.815C1742.33 9.84934 1742.21 9.88367 1742.11 9.918C1742 9.918 1741.9 9.95233 1741.8 9.95233C1741.69 9.95233 1741.59 9.95233 1741.47 9.918C1741.35 9.918 1741.25 9.88367 1741.14 9.83217C1741.09 9.83217 1741.06 9.83217 1741.01 9.79784C1740.68 9.64334 1739.22 8.88802 1737.35 7.96103C1735.22 6.87955 1731.87 5.19724 1729.64 4.08143C1730.02 5.45474 1730.62 7.18854 1731.07 8.42452C1732.42 12.2526 1732.9 13.8319 1732.58 14.9649L1732.6 15.0164Z" fill="#FFF16C"/>
<path d="M1416.34 324.338C1416.34 323.502 1420.21 321.505 1427.94 318.347C1429.13 317.849 1430.14 317.437 1430.85 317.145L1430.88 316.939C1432.49 309.042 1433.2 305.437 1436 304.922C1438.61 304.442 1440.99 307.257 1446.12 315.36C1446.83 315.394 1447.81 315.411 1448.97 315.445C1457.03 315.663 1461.09 316.372 1461.16 317.574C1461.21 318.415 1461.35 320.647 1451.87 327.874C1452.2 328.543 1452.49 329.196 1452.8 329.831C1454.09 332.56 1455.43 335.393 1456.51 338.294C1456.6 338.5 1456.77 338.723 1456.9 338.963C1457.49 339.873 1458.16 340.886 1457.54 341.985C1457.28 342.431 1456.87 342.757 1456.39 342.895C1456.2 342.929 1456.01 342.963 1455.81 342.963C1451.75 342.895 1443.91 338.054 1441.18 336.268C1440.7 336.577 1440.2 336.886 1439.65 337.195C1438.74 337.745 1437.59 338.431 1437.16 338.826C1436.39 339.53 1435.6 340.32 1434.83 341.092C1432.46 343.461 1430.66 345.264 1429.06 345.693C1428.39 345.864 1427.76 345.796 1427.16 345.452C1425.37 344.422 1425.34 341.933 1427 335.564C1427.07 335.324 1427.21 334.895 1427.38 334.346C1427.58 333.728 1428.1 332.234 1428.29 331.393C1427.41 330.93 1425.54 330.191 1424.22 329.676C1419.07 327.651 1416.37 326.483 1416.34 324.321V324.338ZM1431.4 329.676C1432.06 330.655 1431.79 331.925 1430.61 335.427C1430.45 335.874 1430.35 336.217 1430.28 336.423C1429.56 339.204 1429.28 340.817 1429.2 341.744C1430.14 340.972 1431.45 339.667 1432.43 338.706C1433.21 337.899 1434.04 337.075 1434.85 336.337C1435.53 335.702 1436.68 335.015 1437.9 334.294C1438.74 333.796 1439.62 333.264 1440.06 332.921C1440.1 332.887 1440.13 332.887 1440.15 332.869C1440.24 332.801 1440.34 332.766 1440.46 332.715C1440.55 332.681 1440.65 332.629 1440.73 332.612C1440.84 332.578 1440.94 332.578 1441.06 332.578C1441.16 332.578 1441.27 332.543 1441.39 332.578C1441.47 332.578 1441.57 332.629 1441.66 332.663C1441.78 332.698 1441.88 332.749 1442 332.801C1442.04 332.801 1442.06 332.801 1442.09 332.835C1445.04 334.844 1449.76 337.59 1453.08 338.878C1452.1 336.32 1450.88 333.762 1449.71 331.307C1449.18 330.191 1448.66 329.076 1448.15 327.96C1447.77 327.119 1448.15 326.106 1448.99 325.711C1449.04 325.677 1449.11 325.711 1449.18 325.677C1452.84 322.93 1455.46 320.561 1456.8 319.136C1454.52 319.016 1451.05 318.93 1448.87 318.879C1447.03 318.827 1445.57 318.793 1445.08 318.741H1445.04C1445.04 318.741 1444.99 318.741 1444.97 318.741C1444.8 318.741 1444.63 318.673 1444.46 318.587C1444.41 318.553 1444.36 318.535 1444.29 318.484C1444.17 318.432 1444.08 318.347 1443.98 318.244C1443.93 318.192 1443.88 318.141 1443.82 318.089C1443.79 318.038 1443.76 318.003 1443.72 317.969C1442.35 315.772 1438.26 309.283 1436.63 308.407C1435.88 309.437 1435.02 313.609 1434.21 317.677L1433.99 318.759C1433.99 318.759 1433.95 318.844 1433.94 318.879C1433.9 318.999 1433.85 319.085 1433.8 319.205C1433.75 319.291 1433.7 319.394 1433.64 319.462C1433.56 319.548 1433.49 319.6 1433.4 319.686C1433.32 319.754 1433.23 319.823 1433.15 319.874C1433.09 319.909 1433.06 319.943 1433.03 319.96C1432.7 320.115 1431.19 320.733 1429.25 321.522C1427.05 322.432 1423.58 323.857 1421.28 324.818C1422.55 325.419 1424.29 326.089 1425.49 326.569C1429.27 328.063 1430.78 328.715 1431.43 329.711L1431.4 329.676Z" fill="#FFF16C"/>
<path d="M1848.73 676.867C1837.71 673.863 1832.85 672.18 1832.44 668.884C1832.31 667.786 1839.57 663.271 1854.22 655.34C1856.93 653.864 1859.2 652.645 1860.45 651.958L1860.55 650.808C1862 635.41 1862.73 627.634 1867.39 626.277C1871.63 625.024 1876.42 629.213 1889.39 645.538C1890.82 645.452 1893.27 645.246 1895.99 645.04C1911.69 643.781 1919.68 643.947 1919.95 645.538C1920.6 649.315 1914.82 656.92 1902.78 668.198C1903.75 669.794 1904.69 671.391 1905.67 672.97C1908.91 678.257 1912.26 683.733 1915.09 689.433C1915.23 689.759 1915.81 690.445 1916.23 690.943C1917.55 692.557 1918.66 693.947 1917.99 695.578C1917.84 695.904 1917.46 696.574 1916.6 696.917C1916.36 697.003 1916.09 697.055 1915.78 697.089C1907.54 697.844 1889.31 688.9 1884.3 686.343C1883.28 687.201 1882.05 688.128 1880.73 689.124C1878.82 690.548 1876.66 692.179 1875.78 693.192C1874.36 694.823 1872.9 696.643 1871.47 698.411C1867.39 703.475 1864.14 707.509 1861.28 708.625C1860.26 709.002 1859.3 709.037 1858.37 708.625C1855.77 707.475 1854.6 703.955 1856.71 689.879C1856.78 689.415 1856.97 688.506 1857.21 687.424C1857.58 685.759 1858.51 681.553 1858.48 680.025C1857.05 679.184 1852.26 677.88 1848.71 676.901L1848.73 676.867ZM1861.33 688.3C1861.12 689.261 1860.93 690.051 1860.88 690.48C1859.39 700.333 1859.8 703.543 1860.13 704.539C1861.88 703.595 1865.65 698.909 1868.21 695.75C1869.67 693.947 1871.16 692.093 1872.62 690.411C1873.81 689.055 1875.94 687.459 1878.2 685.742C1879.87 684.489 1881.6 683.201 1882.48 682.309C1882.51 682.274 1882.56 682.274 1882.58 682.24C1882.68 682.154 1882.8 682.085 1882.92 682.017C1883.04 681.931 1883.15 681.879 1883.27 681.828C1883.4 681.776 1883.52 681.776 1883.64 681.742C1883.78 681.708 1883.92 681.691 1884.06 681.708C1884.18 681.708 1884.3 681.742 1884.43 681.776C1884.57 681.811 1884.71 681.845 1884.86 681.914C1884.9 681.948 1884.93 681.914 1884.97 681.948C1891.13 685.261 1904.55 691.493 1912.24 692.729C1911.87 692.231 1911.52 691.767 1911.3 691.304C1908.57 685.776 1905.26 680.403 1902.08 675.167C1900.76 673.022 1899.45 670.876 1898.17 668.713C1897.57 667.7 1897.91 666.413 1898.89 665.829C1899.04 665.743 1899.21 665.709 1899.39 665.657C1899.42 665.623 1899.42 665.571 1899.47 665.554C1908.21 657.4 1913.58 651.031 1915.25 647.907C1911.01 648.062 1901.77 648.817 1896.31 649.246C1892.54 649.538 1889.57 649.778 1888.54 649.83H1888.5C1888.5 649.83 1888.43 649.83 1888.42 649.83C1888.19 649.83 1887.97 649.795 1887.76 649.727C1887.68 649.692 1887.61 649.658 1887.52 649.624C1887.39 649.555 1887.25 649.469 1887.11 649.366C1887.03 649.298 1886.97 649.229 1886.91 649.16C1886.87 649.126 1886.82 649.092 1886.77 649.04C1882.96 644.216 1871.34 629.522 1868.57 630.346C1866.6 630.912 1865.67 641.247 1864.74 651.22L1864.54 653.486C1864.54 653.486 1864.49 653.589 1864.49 653.658C1864.45 653.795 1864.4 653.915 1864.35 654.07C1864.3 654.19 1864.25 654.293 1864.19 654.396C1864.11 654.533 1864.04 654.602 1863.94 654.722C1863.85 654.825 1863.75 654.911 1863.63 654.997C1863.58 655.031 1863.54 655.083 1863.49 655.117C1862.85 655.477 1859.95 657.057 1856.21 659.065C1850.92 661.932 1842.05 666.739 1837.95 669.039C1840.64 670.326 1846.19 671.854 1849.83 672.833C1856.86 674.773 1860.61 675.854 1861.96 677.502C1863.15 678.927 1862.82 681.467 1861.31 688.334L1861.33 688.3Z" fill="#FFF16C"/>
</svg>
