<svg width="303" height="54" viewBox="0 0 303 54" fill="none" xmlns="http://www.w3.org/2000/svg">
<path d="M18.9664 25.0487H32.2001C30.4871 31.0949 24.8997 35.5403 18.2728 35.5403C10.3043 35.5403 3.80551 29.0867 3.80551 21.1597C3.80551 13.2327 10.3043 6.77548 18.2728 6.77548C24.3067 6.77548 29.4842 10.4643 31.6566 15.6847H35.5841C33.2451 8.40162 26.373 3.11572 18.2728 3.11572C8.2674 3.11572 0.112305 11.2082 0.112305 21.1597C0.112305 31.1112 8.2674 39.2055 18.2728 39.2055C23.9956 39.2055 29.3195 36.3552 32.4307 32.228V38.427H35.7945V21.4435H18.9682V25.0505L18.9664 25.0487Z" fill="#191919"/>
<path d="M45.5547 4.23584H41.9329V38.425H45.5547V4.23584Z" fill="#191919"/>
<path d="M152.594 4.23584H148.97V38.3849H152.594V4.23584Z" fill="#191919"/>
<path d="M64.438 35.9514C58.8688 35.9514 54.3484 31.1984 54.3484 25.6797C54.3484 20.161 58.8688 15.4335 64.438 15.4335C70.0071 15.4335 74.5275 20.1483 74.5275 25.6779C74.5275 31.2075 69.9961 35.9514 64.438 35.9514ZM64.438 12.0176C56.8502 12.0176 50.6826 18.142 50.6826 25.6797C50.6826 33.2174 56.8502 39.3364 64.438 39.3364C72.0257 39.3364 78.1951 33.2048 78.1951 25.6779C78.1951 18.1511 72.0184 12.0176 64.438 12.0176Z" fill="#191919"/>
<path d="M96.1526 35.9515C90.578 35.9515 86.0575 31.1986 86.0575 25.678C86.0575 20.1575 90.578 15.4336 96.1526 15.4336C101.727 15.4336 106.235 20.1466 106.235 25.6762C106.235 31.2058 101.713 35.9515 96.1526 35.9515ZM96.3063 11.7667C92.2342 11.7667 88.5886 13.5438 86.0539 16.3595V4.23438H82.4338V38.4234H86.0539V34.991C88.5886 37.8013 92.2342 39.5785 96.3063 39.5785C103.947 39.5785 110.149 33.3576 110.149 25.6762C110.149 17.9947 103.947 11.7667 96.3063 11.7667Z" fill="#191919"/>
<path d="M128.861 35.9388C123.301 35.9388 118.773 31.1877 118.773 25.6599C118.773 20.1321 123.301 15.4174 128.861 15.4174C134.421 15.4174 138.947 20.1285 138.947 25.6599C138.947 31.1914 134.428 35.9388 128.861 35.9388ZM138.976 16.4124C136.412 13.5657 132.7 11.7686 128.551 11.7686C120.817 11.7686 114.549 17.9985 114.549 25.6799C114.549 33.3613 120.817 39.5822 128.551 39.5858C132.7 39.5858 136.41 37.7814 138.976 34.9439V38.4289H142.636V13.3929H138.976V16.4142V16.4124Z" fill="#191919"/>
<path d="M254.372 0.756348H247.944V6.80072H254.372V0.756348Z" fill="#191919"/>
<path d="M165.515 4.23584H159.633V32.9026V38.3958H178.915V32.9026H165.515V4.23584Z" fill="#191919"/>
<path d="M254.372 11.5151H247.944V38.3466H254.372V11.5151Z" fill="#191919"/>
<path d="M195.225 33.7357C190.928 33.7357 187.436 30.0196 187.436 25.4413C187.436 20.863 190.928 17.1523 195.225 17.1523C199.523 17.1523 203.014 20.863 203.014 25.4413C203.014 30.0196 199.523 33.7357 195.225 33.7357ZM195.225 11.4263C187.436 11.4263 181.111 17.7035 181.111 25.4468C181.111 33.1901 187.436 39.4564 195.225 39.4564C203.014 39.4564 209.327 33.1864 209.327 25.4468C209.327 17.7071 203.013 11.4263 195.225 11.4263Z" fill="#191919"/>
<path d="M281.158 29.2178C279.871 31.939 277.238 33.8051 274.19 33.8051C269.891 33.8051 266.398 30.08 266.398 25.4999C266.398 20.5014 269.891 17.2036 274.19 17.2036C277.089 17.2036 279.622 18.8934 280.964 21.389H287.693C285.931 15.6502 280.55 11.4702 274.19 11.4702C266.398 11.4702 260.063 17.753 260.063 25.5108C260.063 33.2686 266.398 39.5294 274.19 39.5294C280.695 39.5294 286.156 35.1585 287.799 29.2178H281.158Z" fill="#191919"/>
<path d="M226.594 47.6689C223.717 47.6689 220.966 46.1719 219.299 43.92L213.593 46.6794C216.286 50.8757 220.785 53.6659 226.594 53.6623C234.118 53.6623 240.276 47.7525 240.884 40.5913H234.434C233.878 44.5912 230.582 47.6689 226.594 47.6689Z" fill="#191919"/>
<path d="M226.894 33.8669C222.615 33.8669 219.136 30.1562 219.136 25.5997C219.136 21.0432 222.615 17.3435 226.894 17.3435C231.173 17.3435 234.665 21.0378 234.665 25.5997C234.665 30.1616 231.187 33.8669 226.894 33.8669ZM235.142 14.3113C232.82 12.6415 229.98 11.6429 226.894 11.6429C219.136 11.6429 212.84 17.8891 212.84 25.6051C212.84 33.3211 219.136 39.5602 226.894 39.5602C234.652 39.5602 240.915 33.343 240.948 25.6634V11.541H235.142V14.3113Z" fill="#191919"/>
<path d="M298.742 4.0415C298.927 4.0415 299.093 4.07065 299.241 4.13068C299.388 4.1907 299.516 4.27071 299.622 4.37439C299.726 4.47807 299.809 4.59625 299.864 4.73267C299.918 4.86727 299.946 5.01464 299.946 5.17107C299.946 5.41117 299.895 5.62038 299.794 5.795C299.692 5.97144 299.525 6.10417 299.294 6.19512V6.20604C299.406 6.23696 299.498 6.28426 299.571 6.3461C299.644 6.40977 299.704 6.48252 299.75 6.56983C299.798 6.65532 299.831 6.74992 299.851 6.8536C299.871 6.95728 299.886 7.06099 299.895 7.16286C299.898 7.22834 299.902 7.30469 299.906 7.392C299.909 7.47931 299.917 7.57026 299.926 7.6612C299.935 7.75215 299.951 7.83949 299.972 7.92135C299.994 8.0032 300.025 8.0723 300.067 8.13051H299.163C299.113 8.00136 299.082 7.84679 299.071 7.66671C299.06 7.48663 299.042 7.31564 299.018 7.15193C298.987 6.9373 298.923 6.78085 298.822 6.68263C298.723 6.58259 298.559 6.53351 298.334 6.53351H297.43V8.13237H296.525V4.04337H298.744L298.742 4.0415ZM298.418 5.89137C298.625 5.89137 298.78 5.84589 298.884 5.75494C298.987 5.664 299.04 5.51485 299.04 5.30749C299.04 5.10013 298.987 4.96555 298.884 4.8746C298.78 4.78547 298.625 4.73995 298.418 4.73995H297.428V5.89137H298.418Z" fill="#191919"/>
<path d="M298.206 10.384C295.821 10.384 293.881 8.45595 293.881 6.08585C293.881 3.71576 295.821 1.7876 298.206 1.7876C300.59 1.7876 302.532 3.71576 302.532 6.08585C302.532 8.45595 300.592 10.384 298.206 10.384ZM298.206 2.49884C296.216 2.49884 294.596 4.10865 294.596 6.08585C294.596 8.06305 296.216 9.67278 298.206 9.67278C300.195 9.67278 301.815 8.06305 301.815 6.08585C301.815 4.10865 300.195 2.49884 298.206 2.49884Z" fill="#191919"/>
</svg>
