<svg width="50" height="22" viewBox="0 0 50 22" fill="none" xmlns="http://www.w3.org/2000/svg">
<path d="M24.941 14.5402C24.8351 14.6661 24.7392 14.7697 24.6582 14.8812C23.889 15.9442 23.0703 16.9705 22.1589 17.9251C20.8258 19.3195 19.2793 20.4366 17.4284 21.1139C15.5048 21.8183 13.5034 22.086 11.4442 21.976C9.57346 21.8756 7.81689 21.3896 6.19098 20.5099C4.22104 19.4454 2.61002 17.9968 1.46212 16.1163C0.653307 14.7936 0.175294 13.3577 0.0495876 11.8167C-0.0777723 10.2486 0.0198152 8.69796 0.555719 7.20633C1.20741 5.39756 2.31891 3.88362 3.86046 2.65652C5.51945 1.337 7.40338 0.519473 9.52384 0.178438C11.6724 -0.167379 13.783 -0.00801665 15.8521 0.618278C17.4235 1.09477 18.8459 1.85812 20.1774 2.7872C21.4907 3.70513 22.7064 4.73461 23.9056 5.78481C24.1537 6.00314 24.4084 6.21509 24.6747 6.44139C24.8715 6.22943 25.0667 6.01907 25.2635 5.81031C26.5189 4.47804 27.8901 3.27007 29.4747 2.31071C30.9898 1.39437 32.6504 0.822262 34.4285 0.578438C36.0544 0.35533 37.6853 0.304334 39.3211 0.460509C42.3248 0.747362 44.9332 1.83262 46.9693 4.02704C48.1023 5.24776 48.8069 6.68043 49.1675 8.28202C49.7315 10.7904 49.5893 13.2621 48.6961 15.6669C47.9882 17.5745 46.6914 19.0645 44.9067 20.1689C43.5504 21.0071 42.0602 21.4709 40.4921 21.7163C38.3138 22.0557 36.1603 21.9394 34.0348 21.3179C32.6025 20.8988 31.2991 20.2517 30.1247 19.3768C29.6004 18.988 29.1571 18.4972 28.6824 18.0494C27.4998 16.9354 26.3205 15.8183 25.1395 14.7043C25.0866 14.6533 25.027 14.6087 24.9443 14.5386L24.941 14.5402ZM37.4669 5.25573C37.0005 5.27804 36.5341 5.29398 36.0676 5.32266C34.1357 5.44696 32.4453 6.1386 31.0675 7.43581C30.1313 8.31708 29.2845 9.28282 28.3996 10.2135C28.1134 10.5147 28.1184 10.5147 28.3681 10.8509C29.4284 12.2725 30.6193 13.5792 32.0252 14.6996C33.1433 15.5904 34.3838 16.2709 35.7683 16.6852C37.3594 17.1601 38.9721 17.1474 40.5567 16.6693C41.9824 16.239 43.0063 15.3545 43.4694 13.9569C43.9722 12.4398 44.0797 10.8796 43.9309 9.30194C43.8631 8.58162 43.6282 7.90433 43.1651 7.32585C42.4356 6.41589 41.4515 5.88362 40.3036 5.6127C39.3724 5.39278 38.4246 5.29398 37.4669 5.25732V5.25573ZM5.2118 11.1872C5.24157 11.5282 5.25315 11.8725 5.30939 12.2103C5.3557 12.4812 5.43509 12.7521 5.5393 13.0087C6.03054 14.2135 6.9386 15.0645 8.10138 15.6653C9.14672 16.2055 10.2715 16.4892 11.4591 16.5976C13.4786 16.7824 15.2765 16.2454 16.9157 15.1521C18.7417 13.933 20.151 12.3282 21.4163 10.596C21.4857 10.5019 21.4808 10.4414 21.3931 10.3601C20.5827 9.60951 19.7771 8.85095 18.965 8.10194C17.8601 7.08362 16.6345 6.23581 15.2054 5.68441C13.4918 5.02147 11.7353 4.82067 9.92081 5.25254C8.59097 5.56967 7.48112 6.22465 6.6111 7.24139C5.63192 8.3872 5.20188 9.7131 5.21014 11.1872H5.2118Z" fill="#1B17E1"/>
</svg>
