<svg width="32" height="33" viewBox="0 0 32 33" fill="none" xmlns="http://www.w3.org/2000/svg">
<path d="M16 19.0095C14.5 19.0095 13.2 17.8095 13.2 16.2095C13.2 14.7095 14.4 13.4095 16 13.4095C17.5 13.4095 18.8 14.6095 18.8 16.2095C18.8 17.7095 17.5 19.0095 16 19.0095Z" fill="white"/>
<path fill-rule="evenodd" clip-rule="evenodd" d="M19.4 9.40947H12.6C11.8 9.50947 11.4 9.60947 11.1 9.70947C10.7 9.80947 10.4 10.0095 10.1 10.3095C9.86261 10.5469 9.75045 10.7842 9.61489 11.0712C9.57916 11.1468 9.5417 11.2261 9.5 11.3095C9.48453 11.3559 9.46667 11.4047 9.44752 11.457C9.34291 11.7428 9.2 12.1332 9.2 12.8095V19.6095C9.3 20.4095 9.4 20.8095 9.5 21.1095C9.6 21.5095 9.8 21.8095 10.1 22.1095C10.3374 22.3469 10.5748 22.459 10.8617 22.5946C10.9374 22.6303 11.0165 22.6677 11.1 22.7095C11.1464 22.7249 11.1952 22.7428 11.2475 22.7619C11.5333 22.8666 11.9238 23.0095 12.6 23.0095H19.4C20.2 22.9095 20.6 22.8095 20.9 22.7095C21.3 22.6095 21.6 22.4095 21.9 22.1095C22.1374 21.8721 22.2495 21.6347 22.3851 21.3478C22.4209 21.2721 22.4583 21.1929 22.5 21.1095C22.5155 21.0631 22.5333 21.0143 22.5525 20.962C22.6571 20.6761 22.8 20.2857 22.8 19.6095V12.8095C22.7 12.0095 22.6 11.6095 22.5 11.3095C22.4 10.9095 22.2 10.6095 21.9 10.3095C21.6626 10.0721 21.4252 9.95992 21.1383 9.82436C21.0627 9.78865 20.9833 9.75114 20.9 9.70947C20.8536 9.694 20.8048 9.67614 20.7525 9.65699C20.4667 9.55238 20.0762 9.40947 19.4 9.40947ZM16 11.9095C13.6 11.9095 11.7 13.8095 11.7 16.2095C11.7 18.6095 13.6 20.5095 16 20.5095C18.4 20.5095 20.3 18.6095 20.3 16.2095C20.3 13.8095 18.4 11.9095 16 11.9095ZM21.4 11.8095C21.4 12.3618 20.9523 12.8095 20.4 12.8095C19.8477 12.8095 19.4 12.3618 19.4 11.8095C19.4 11.2572 19.8477 10.8095 20.4 10.8095C20.9523 10.8095 21.4 11.2572 21.4 11.8095Z" fill="white"/>
<path fill-rule="evenodd" clip-rule="evenodd" d="M0 16.2095C0 7.37292 7.16344 0.209473 16 0.209473C24.8366 0.209473 32 7.37292 32 16.2095C32 25.046 24.8366 32.2095 16 32.2095C7.16344 32.2095 0 25.046 0 16.2095ZM12.6 7.90947H19.4C20.3 8.00947 20.9 8.10947 21.4 8.30947C22 8.60947 22.4 8.80947 22.9 9.30947C23.4 9.80947 23.7 10.3095 23.9 10.8095C24.1 11.3095 24.3 11.9095 24.3 12.8095V19.6095C24.2 20.5095 24.1 21.1095 23.9 21.6095C23.6 22.2095 23.4 22.6095 22.9 23.1095C22.4 23.6095 21.9 23.9095 21.4 24.1095C20.9 24.3095 20.3 24.5095 19.4 24.5095H12.6C11.7 24.4095 11.1 24.3095 10.6 24.1095C10 23.8095 9.6 23.6095 9.1 23.1095C8.6 22.6095 8.3 22.1095 8.1 21.6095C7.9 21.1095 7.7 20.5095 7.7 19.6095V12.8095C7.8 11.9095 7.9 11.3095 8.1 10.8095C8.4 10.2095 8.6 9.80947 9.1 9.30947C9.6 8.80947 10.1 8.50947 10.6 8.30947C11.1 8.10947 11.7 7.90947 12.6 7.90947Z" fill="white"/>
</svg>
