<svg width="314" height="76" viewBox="0 0 314 76" fill="none" xmlns="http://www.w3.org/2000/svg">
<g clip-path="url(#clip0_204_952)">
<path d="M18.8778 69.0002C17.9898 69.0002 17.2335 68.8306 16.6075 68.4898C15.9814 68.1391 15.4492 67.66 15.011 67.0541L15.9814 66.2242C16.3669 66.7462 16.7953 67.1446 17.2648 67.4212C17.7344 67.688 18.288 67.8197 18.9239 67.8197C19.7065 67.8197 20.3013 67.6287 20.7082 67.2451C21.1251 66.8614 21.3343 66.351 21.3343 65.7138C21.3343 65.182 21.1778 64.772 20.8647 64.4855C20.5517 64.199 20.0344 63.9702 19.3144 63.7989L18.4214 63.5915C17.4197 63.3577 16.6519 63.007 16.1198 62.5377C15.5975 62.0586 15.3372 61.3885 15.3372 60.5273C15.3372 60.0383 15.4262 59.602 15.6041 59.2184C15.782 58.8347 16.0275 58.517 16.3406 58.2601C16.6635 58.0049 17.0457 57.8139 17.484 57.6855C17.9321 57.5472 18.4231 57.478 18.9552 57.478C19.779 57.478 20.4842 57.6328 21.069 57.9407C21.6638 58.2486 22.1647 58.7014 22.5716 59.2974L21.5847 60.0317C21.2816 59.607 20.9158 59.2711 20.4891 59.0257C20.0624 58.7804 19.5286 58.6586 18.8926 58.6586C18.1941 58.6586 17.6405 58.8133 17.2335 59.1212C16.8365 59.4192 16.6388 59.872 16.6388 60.4779C16.6388 61.0098 16.8052 61.4148 17.1396 61.6914C17.484 61.9565 18.0013 62.1705 18.69 62.3303L19.5829 62.5377C20.6588 62.783 21.4348 63.1552 21.9159 63.654C22.3953 64.1546 22.6359 64.8198 22.6359 65.6496C22.6359 66.16 22.5469 66.6227 22.369 67.0376C22.2026 67.4525 21.9571 67.8032 21.6325 68.0914C21.3096 68.3778 20.9125 68.6018 20.443 68.7615C19.9833 68.9212 19.461 69.0002 18.8778 69.0002Z" fill="#EDAF4F"/>
<path d="M27.8337 68.9999C27.2916 68.9999 26.7957 68.8995 26.3459 68.697C25.8978 68.4944 25.5106 68.2079 25.1877 67.8358C24.8747 67.4522 24.6292 67.0011 24.4512 66.4791C24.2733 65.9473 24.1843 65.3513 24.1843 64.6927C24.1843 64.0341 24.2733 63.4529 24.4512 62.921C24.6292 62.3892 24.8747 61.9364 25.1877 61.5643C25.5106 61.1807 25.8978 60.8893 26.3459 60.6867C26.7941 60.4842 27.29 60.3838 27.8337 60.3838C28.3774 60.3838 28.8667 60.4842 29.3049 60.6867C29.7531 60.8893 30.1402 61.1807 30.4632 61.5643C30.7861 61.9364 31.0365 62.3892 31.2144 62.921C31.3924 63.4529 31.4813 64.044 31.4813 64.6927C31.4813 65.3414 31.3924 65.9473 31.2144 66.4791C31.0365 67.0011 30.7861 67.4522 30.4632 67.8358C30.1402 68.2079 29.7531 68.4961 29.3049 68.697C28.8667 68.8995 28.3757 68.9999 27.8337 68.9999ZM27.8337 67.8671C28.5125 67.8671 29.0644 67.6547 29.4927 67.2283C29.9211 66.8035 30.1353 66.1548 30.1353 65.2821V64.1016C30.1353 63.2289 29.9211 62.5802 29.4927 62.1554C29.0644 61.7306 28.5125 61.5166 27.8337 61.5166C27.1549 61.5166 26.6013 61.729 26.1746 62.1554C25.7462 62.5802 25.532 63.2306 25.532 64.1016V65.2821C25.532 66.1548 25.7462 66.8035 26.1746 67.2283C26.6029 67.6531 27.1549 67.8671 27.8337 67.8671Z" fill="#EDAF4F"/>
<path d="M33.887 61.6914H32.5723V60.575H33.887V58.9154C33.887 58.3407 34.0336 57.8781 34.3253 57.5274C34.6169 57.1767 35.0617 57.0005 35.6565 57.0005H36.8773V58.1168H35.1392V60.575H36.8773V61.6914H35.1392V68.8092H33.887V61.6914Z" fill="#EDAF4F"/>
<path d="M40.309 68.8091C39.8707 68.8091 39.5363 68.6873 39.3073 68.442C39.0882 68.1868 38.9794 67.8575 38.9794 67.4524V61.6913H37.6482V60.575H38.3995C38.6713 60.575 38.8542 60.5223 38.9481 60.4153C39.0519 60.2984 39.1046 60.1008 39.1046 59.8242V58.293H40.2316V60.575H42.001V61.6913H40.2316V67.6912H41.8758V68.8075H40.3106L40.309 68.8091Z" fill="#EDAF4F"/>
<path d="M43.1675 60.5747H44.3883L45.25 64.1328L46.1117 67.7386H46.143L47.1298 64.1328L48.148 60.5747H49.2601L50.3096 64.1328L51.3113 67.7386H51.3426L52.173 64.1328L53.0495 60.5747H54.2242L52.0791 68.8088H50.5287L49.4018 64.8507L48.6967 62.3447H48.6654L47.9767 64.8507L46.8498 68.8088H45.3307L43.1708 60.5747H43.1675Z" fill="#EDAF4F"/>
<path d="M61.7635 68.8089C61.2939 68.8089 60.9545 68.6821 60.7453 68.4253C60.5476 68.1701 60.4223 67.8507 60.3696 67.467H60.2905C60.1126 67.9774 59.821 68.3611 59.414 68.6163C59.0071 68.8715 58.5211 68.9999 57.9576 68.9999C57.1009 68.9999 56.4336 68.776 55.9542 68.3298C55.4846 67.8836 55.249 67.276 55.249 66.5104C55.249 65.7448 55.5258 65.1372 56.0794 64.7223C56.6429 64.3074 57.5144 64.0999 58.6941 64.0999H60.2905V63.2866C60.2905 62.7021 60.134 62.2542 59.821 61.9463C59.508 61.6384 59.0269 61.4837 58.381 61.4837C57.8901 61.4837 57.4782 61.5956 57.1437 61.8195C56.8208 62.0435 56.5489 62.3415 56.3298 62.7136L55.5785 61.9957C55.7977 61.5495 56.1469 61.1708 56.628 60.8629C57.1075 60.5435 57.7138 60.3838 58.4436 60.3838C59.4239 60.3838 60.1867 60.6291 60.7288 61.1181C61.2725 61.6071 61.5427 62.2888 61.5427 63.1614V67.6926H62.467V68.8089H61.7618H61.7635ZM58.1619 67.9149C58.4749 67.9149 58.7616 67.877 59.0236 67.8029C59.2839 67.7288 59.5096 67.6218 59.6974 67.4835C59.8852 67.3452 60.0319 67.1855 60.1357 67.0044C60.2395 66.8232 60.2922 66.6273 60.2922 66.4133V65.0565H58.6331C57.9131 65.0565 57.3859 65.1636 57.0514 65.376C56.7285 65.5884 56.5654 65.8979 56.5654 66.3013V66.6372C56.5654 67.0422 56.7071 67.3551 56.9888 67.579C57.2805 67.8029 57.6726 67.9149 58.1635 67.9149H58.1619Z" fill="#EDAF4F"/>
<path d="M64.2563 68.8088V60.5747H65.5085V62.0911H65.5876C65.7342 61.6976 65.9945 61.3469 66.3702 61.0374C66.7458 60.7295 67.2631 60.5747 67.9205 60.5747H68.4065V61.8507H67.6701C66.9913 61.8507 66.4591 61.9841 66.0736 62.2492C65.698 62.5044 65.5101 62.8288 65.5101 63.2223V68.8072H64.258L64.2563 68.8088Z" fill="#EDAF4F"/>
<path d="M72.9651 68.9999C72.4116 68.9999 71.9107 68.8995 71.4626 68.697C71.0243 68.4944 70.6437 68.2079 70.3192 67.8358C70.0061 67.4522 69.7606 67.0011 69.5827 66.4791C69.4163 65.9473 69.3323 65.3513 69.3323 64.6927C69.3323 64.0341 69.4163 63.4529 69.5827 62.921C69.7606 62.3892 70.0061 61.9364 70.3192 61.5643C70.6421 61.1807 71.0243 60.8893 71.4626 60.6867C71.9107 60.4842 72.4132 60.3838 72.9651 60.3838C73.5171 60.3838 73.9932 60.4842 74.4216 60.6867C74.8499 60.8893 75.214 61.1708 75.5172 61.533C75.8203 61.8837 76.0494 62.3036 76.2059 62.7943C76.3723 63.2833 76.4563 63.82 76.4563 64.4062V65.0121H70.6487V65.3957C70.6487 65.7464 70.7014 66.0774 70.8052 66.3853C70.9205 66.6833 71.077 66.9434 71.2747 67.1674C71.484 67.3913 71.7344 67.5658 72.026 67.6942C72.3292 67.821 72.6686 67.8852 73.0442 67.8852C73.555 67.8852 73.9998 67.7634 74.3754 67.5181C74.761 67.2727 75.0592 66.922 75.2684 66.4643L76.1614 67.118C75.9011 67.6811 75.4941 68.1388 74.9405 68.4895C74.387 68.8303 73.7296 68.9999 72.9684 68.9999H72.9651ZM72.9651 61.4524C72.6208 61.4524 72.3078 61.5166 72.026 61.6434C71.7443 61.7603 71.4988 61.9315 71.2896 62.1538C71.0919 62.3777 70.9353 62.6428 70.82 62.9523C70.7047 63.2503 70.6487 63.5796 70.6487 63.9419V64.0538H75.1102V63.8777C75.1102 63.1433 74.9125 62.5588 74.5155 62.1225C74.13 61.6763 73.6126 61.4524 72.9651 61.4524Z" fill="#EDAF4F"/>
<path d="M82.3464 57.6706H86.0106C86.6894 57.6706 87.3039 57.7875 87.8575 58.0213C88.4111 58.2551 88.8806 58.6058 89.2662 59.0751C89.6632 59.5328 89.9647 60.1123 90.174 60.8138C90.3832 61.5053 90.487 62.3137 90.487 63.239C90.487 64.1644 90.3832 64.9777 90.174 65.6808C89.9647 66.3723 89.6632 66.9519 89.2662 67.4195C88.8806 67.8772 88.4094 68.223 87.8575 68.4568C87.3039 68.6906 86.6877 68.8075 86.0106 68.8075H82.3464V57.6689V57.6706ZM86.0106 67.6286C86.4587 67.6286 86.8723 67.5545 87.2479 67.4047C87.6236 67.245 87.9465 67.0161 88.2183 66.7181C88.4902 66.4201 88.6978 66.0578 88.8444 65.633C89.0009 65.1967 89.08 64.7028 89.08 64.1496V62.3302C89.08 61.777 89.0026 61.2879 88.8444 60.8615C88.6978 60.4252 88.4902 60.058 88.2183 59.76C87.9465 59.462 87.6236 59.2381 87.2479 59.0899C86.8723 58.9302 86.4604 58.8511 86.0106 58.8511H83.6628V67.627H86.0106V67.6286Z" fill="#EDAF4F"/>
<path d="M95.7608 68.9999C95.2072 68.9999 94.7064 68.8995 94.2582 68.697C93.82 68.4944 93.4394 68.2079 93.1148 67.8358C92.8018 67.4522 92.5563 67.0011 92.3784 66.4791C92.212 65.9473 92.1279 65.3513 92.1279 64.6927C92.1279 64.0341 92.212 63.4529 92.3784 62.921C92.5563 62.3892 92.8018 61.9364 93.1148 61.5643C93.4377 61.1807 93.82 60.8893 94.2582 60.6867C94.7064 60.4842 95.2089 60.3838 95.7608 60.3838C96.3127 60.3838 96.7889 60.4842 97.2172 60.6867C97.6456 60.8893 98.0097 61.1708 98.3128 61.533C98.616 61.8837 98.845 62.3036 99.0015 62.7943C99.1679 63.2833 99.252 63.82 99.252 64.4062V65.0121H93.4443V65.3957C93.4443 65.7464 93.497 66.0774 93.6008 66.3853C93.7162 66.6833 93.8727 66.9434 94.0704 67.1674C94.2796 67.3913 94.5301 67.5658 94.8217 67.6942C95.1248 67.821 95.4642 67.8852 95.8399 67.8852C96.3506 67.8852 96.7954 67.7634 97.1711 67.5181C97.5566 67.2727 97.8548 66.922 98.0641 66.4643L98.957 67.118C98.6967 67.6811 98.2898 68.1388 97.7362 68.4895C97.1826 68.8303 96.5253 68.9999 95.7641 68.9999H95.7608ZM95.7608 61.4524C95.4164 61.4524 95.1034 61.5166 94.8217 61.6434C94.54 61.7603 94.2945 61.9315 94.0852 62.1538C93.8875 62.3777 93.731 62.6428 93.6157 62.9523C93.5003 63.2503 93.4443 63.5796 93.4443 63.9419V64.0538H97.9059V63.8777C97.9059 63.1433 97.7082 62.5588 97.3111 62.1225C96.9256 61.6763 96.4083 61.4524 95.7608 61.4524Z" fill="#EDAF4F"/>
<path d="M102.979 68.8088L100.145 60.5747H101.397L102.806 64.6597L103.682 67.4686H103.76L104.636 64.6597L106.076 60.5747H107.282L104.434 68.8088H102.977H102.979Z" fill="#EDAF4F"/>
<path d="M111.814 68.9999C111.261 68.9999 110.76 68.8995 110.312 68.697C109.874 68.4944 109.493 68.2079 109.169 67.8358C108.855 67.4522 108.61 67.0011 108.432 66.4791C108.266 65.9473 108.182 65.3513 108.182 64.6927C108.182 64.0341 108.266 63.4529 108.432 62.921C108.61 62.3892 108.855 61.9364 109.169 61.5643C109.491 61.1807 109.874 60.8893 110.312 60.6867C110.76 60.4842 111.261 60.3838 111.814 60.3838C112.368 60.3838 112.843 60.4842 113.271 60.6867C113.699 60.8893 114.065 61.1708 114.367 61.533C114.67 61.8837 114.899 62.3036 115.055 62.7943C115.222 63.2833 115.306 63.82 115.306 64.4062V65.0121H109.498V65.3957C109.498 65.7464 109.551 66.0774 109.655 66.3853C109.77 66.6833 109.926 66.9434 110.124 67.1674C110.333 67.3913 110.584 67.5658 110.875 67.6942C111.179 67.821 111.518 67.8852 111.894 67.8852C112.404 67.8852 112.849 67.7634 113.225 67.5181C113.61 67.2727 113.909 66.922 114.118 66.4643L115.011 67.118C114.75 67.6811 114.343 68.1388 113.79 68.4895C113.236 68.8303 112.579 68.9999 111.818 68.9999H111.814ZM111.814 61.4524C111.47 61.4524 111.157 61.5166 110.875 61.6434C110.594 61.7603 110.348 61.9315 110.139 62.1538C109.941 62.3777 109.785 62.6428 109.669 62.9523C109.554 63.2503 109.496 63.5796 109.496 63.9419V64.0538H113.958V63.8777C113.958 63.1433 113.76 62.5588 113.363 62.1225C112.978 61.6763 112.46 61.4524 111.813 61.4524H111.814Z" fill="#EDAF4F"/>
<path d="M118.7 68.8092C118.261 68.8092 117.927 68.6873 117.698 68.442C117.479 68.1868 117.368 67.8674 117.368 67.4837V57.0005H118.621V67.6912H119.81V68.8075H118.698L118.7 68.8092Z" fill="#EDAF4F"/>
<path d="M124.688 68.9999C124.146 68.9999 123.651 68.8995 123.201 68.697C122.753 68.4944 122.365 68.2079 122.042 67.8358C121.729 67.4522 121.484 67.0011 121.306 66.4791C121.128 65.9473 121.041 65.3513 121.041 64.6927C121.041 64.0341 121.13 63.4529 121.306 62.921C121.484 62.3892 121.729 61.9364 122.042 61.5643C122.365 61.1807 122.753 60.8893 123.201 60.6867C123.649 60.4842 124.145 60.3838 124.688 60.3838C125.232 60.3838 125.721 60.4842 126.16 60.6867C126.608 60.8893 126.995 61.1807 127.318 61.5643C127.641 61.9364 127.891 62.3892 128.069 62.921C128.247 63.4529 128.334 64.044 128.334 64.6927C128.334 65.3414 128.246 65.9473 128.069 66.4791C127.891 67.0011 127.641 67.4522 127.318 67.8358C126.995 68.2079 126.608 68.4961 126.16 68.697C125.721 68.8995 125.231 68.9999 124.688 68.9999ZM124.688 67.8671C125.367 67.8671 125.921 67.6547 126.348 67.2283C126.776 66.8035 126.99 66.1548 126.99 65.2821V64.1016C126.99 63.2289 126.776 62.5802 126.348 62.1554C125.919 61.7306 125.366 61.5166 124.688 61.5166C124.011 61.5166 123.456 61.729 123.029 62.1554C122.601 62.5802 122.387 63.2306 122.387 64.1016V65.2821C122.387 66.1548 122.601 66.8035 123.029 67.2283C123.458 67.6531 124.011 67.8671 124.688 67.8671Z" fill="#EDAF4F"/>
<path d="M130.396 60.575H131.648V61.9152H131.71C131.92 61.3933 132.221 61.0113 132.618 60.766C133.025 60.5107 133.511 60.3823 134.075 60.3823C134.576 60.3823 135.03 60.4828 135.437 60.6853C135.844 60.8878 136.189 61.1743 136.47 61.5464C136.762 61.9185 136.981 62.3713 137.128 62.9031C137.284 63.4349 137.363 64.031 137.363 64.6912C137.363 65.3515 137.286 65.9458 137.128 66.4777C136.981 67.0095 136.762 67.4623 136.47 67.8344C136.189 68.2065 135.844 68.4946 135.437 68.6955C135.03 68.898 134.576 68.9984 134.075 68.9984C132.979 68.9984 132.192 68.488 131.71 67.4672H131.648V72H130.396V60.575ZM133.73 67.8508C134.44 67.8508 134.999 67.6269 135.406 67.1807C135.813 66.723 136.017 66.127 136.017 65.3926V63.9882C136.017 63.2538 135.813 62.6644 135.406 62.2165C134.999 61.7588 134.44 61.5299 133.73 61.5299C133.449 61.5299 133.177 61.5727 132.917 61.6567C132.666 61.7308 132.447 61.8378 132.259 61.9761C132.071 62.1144 131.92 62.284 131.804 62.4865C131.701 62.6775 131.648 62.885 131.648 63.1089V66.1731C131.648 66.4381 131.701 66.6785 131.804 66.8909C131.92 67.0934 132.07 67.268 132.259 67.4178C132.447 67.5561 132.666 67.6631 132.917 67.7372C133.177 67.8113 133.449 67.8492 133.73 67.8492V67.8508Z" fill="#EDAF4F"/>
<path d="M139.477 68.8091V60.575H140.729V61.9152H140.792C140.886 61.7028 140.99 61.5052 141.105 61.3241C141.23 61.1331 141.377 60.9685 141.543 60.8302C141.721 60.6919 141.924 60.5848 142.154 60.5108C142.383 60.4251 142.655 60.384 142.968 60.384C143.5 60.384 143.991 60.5173 144.439 60.7824C144.888 61.0376 145.222 61.4624 145.441 62.0585H145.473C145.619 61.6123 145.889 61.2237 146.286 60.8927C146.693 60.5519 147.242 60.3823 147.931 60.3823C148.754 60.3823 149.397 60.6589 149.857 61.2122C150.326 61.7555 150.562 62.5261 150.562 63.5255V68.8074H149.31V63.7494C149.31 63.0151 149.17 62.4618 148.886 62.0897C148.604 61.7176 148.156 61.5316 147.54 61.5316C147.29 61.5316 147.049 61.5629 146.82 61.6271C146.601 61.6913 146.403 61.7868 146.225 61.9136C146.048 62.0403 145.907 62.2066 145.802 62.4075C145.698 62.5985 145.645 62.8274 145.645 63.0941V68.8074H144.393V63.7494C144.393 63.0151 144.253 62.4618 143.97 62.0897C143.688 61.7176 143.25 61.5316 142.655 61.5316C142.405 61.5316 142.164 61.5629 141.935 61.6271C141.706 61.6913 141.502 61.7868 141.324 61.9136C141.146 62.0403 141.001 62.2066 140.886 62.4075C140.782 62.5985 140.729 62.8274 140.729 63.0941V68.8074H139.477V68.8091Z" fill="#EDAF4F"/>
<path d="M156.183 68.9999C155.63 68.9999 155.129 68.8995 154.681 68.697C154.242 68.4944 153.862 68.2079 153.537 67.8358C153.224 67.4522 152.979 67.0011 152.801 66.4791C152.634 65.9473 152.55 65.3513 152.55 64.6927C152.55 64.0341 152.634 63.4529 152.801 62.921C152.979 62.3892 153.224 61.9364 153.537 61.5643C153.86 61.1807 154.242 60.8893 154.681 60.6867C155.129 60.4842 155.631 60.3838 156.183 60.3838C156.735 60.3838 157.211 60.4842 157.64 60.6867C158.068 60.8893 158.434 61.1708 158.735 61.533C159.038 61.8837 159.267 62.3036 159.424 62.7943C159.59 63.2833 159.674 63.82 159.674 64.4062V65.0121H153.865V65.3957C153.865 65.7464 153.918 66.0774 154.022 66.3853C154.137 66.6833 154.293 66.9434 154.491 67.1674C154.7 67.3913 154.951 67.5658 155.242 67.6942C155.546 67.821 155.885 67.8852 156.261 67.8852C156.771 67.8852 157.216 67.7634 157.592 67.5181C157.977 67.2727 158.276 66.922 158.485 66.4643L159.378 67.118C159.117 67.6811 158.711 68.1388 158.157 68.4895C157.603 68.8303 156.946 68.9999 156.185 68.9999H156.183ZM156.183 61.4524C155.839 61.4524 155.526 61.5166 155.244 61.6434C154.962 61.7603 154.717 61.9315 154.508 62.1538C154.31 62.3777 154.153 62.6428 154.038 62.9523C153.923 63.2503 153.865 63.5796 153.865 63.9419V64.0538H158.327V63.8777C158.327 63.1433 158.129 62.5588 157.732 62.1225C157.346 61.6763 156.829 61.4524 156.182 61.4524H156.183Z" fill="#EDAF4F"/>
<path d="M161.739 68.8089V60.5748H162.991V61.915H163.054C163.251 61.4474 163.528 61.0753 163.884 60.7987C164.25 60.5221 164.734 60.3838 165.34 60.3838C166.176 60.3838 166.833 60.6604 167.312 61.2136C167.803 61.757 168.049 62.5275 168.049 63.527V68.8089H166.797V63.7509C166.797 62.2723 166.186 61.533 164.965 61.533C164.714 61.533 164.469 61.5643 164.228 61.6285C163.999 61.6928 163.79 61.7883 163.602 61.915C163.414 62.0418 163.263 62.2081 163.147 62.409C163.044 62.6 162.991 62.8288 162.991 63.0956V68.8089H161.739Z" fill="#EDAF4F"/>
<path d="M172.421 68.8091C171.983 68.8091 171.649 68.6873 171.418 68.442C171.199 68.1868 171.09 67.8575 171.09 67.4524V61.6913H169.759V60.575H170.51C170.782 60.575 170.965 60.5223 171.059 60.4153C171.163 60.2984 171.215 60.1008 171.215 59.8242V58.293H172.342V60.575H174.112V61.6913H172.342V67.6912H173.987V68.8075H172.421V68.8091Z" fill="#EDAF4F"/>
<path d="M19.3438 31.1389H20.5927C21.0952 31.1389 21.512 31.0714 21.8415 30.9364C22.1727 30.7882 22.456 30.5577 22.6949 30.2465L30.6081 19.9905C30.9393 19.5575 31.282 19.2595 31.6395 19.0964C32.0102 18.9203 32.4732 18.833 33.0284 18.833L36.536 19.0964L27.9704 31.0368C27.402 31.7811 26.8138 32.3096 26.2059 32.6208C26.6425 32.7838 27.0329 33.0126 27.3756 33.3107C27.7332 33.5955 28.0693 33.9742 28.3872 34.4484L38.3434 48.1966H33.6429C33.0086 48.1966 32.5325 48.1077 32.2145 47.9332C31.9097 47.7438 31.6527 47.4738 31.4418 47.1215L23.3309 36.2776C23.0805 35.9121 22.7888 35.6553 22.4577 35.5054C22.1265 35.3572 21.6504 35.2815 21.0293 35.2815H19.3438V48.1966H14.009V18.833H19.3438V31.1389Z" fill="black"/>
<path d="M52.066 35.3833C52.066 34.733 51.9737 34.1238 51.7875 33.5557C51.6162 32.9745 51.351 32.4657 50.9934 32.0327C50.6359 31.5997 50.1812 31.2605 49.6243 31.0168C49.0823 30.76 48.448 30.6315 47.7197 30.6315C46.3045 30.6315 45.1874 31.0448 44.3686 31.8697C43.563 32.6962 43.0473 33.8669 42.8216 35.3833H52.0643H52.066ZM42.7244 38.4096C42.8034 39.4782 42.9896 40.4068 43.2796 41.1922C43.5712 41.9644 43.9534 42.6065 44.4296 43.1219C44.9057 43.6224 45.4675 44.0011 46.115 44.2596C46.7757 44.5033 47.5039 44.6251 48.2964 44.6251C49.0889 44.6251 49.7709 44.5296 50.3394 44.3403C50.9209 44.1509 51.4234 43.9402 51.8469 43.7113C52.2835 43.4808 52.6608 43.2717 52.9771 43.0823C53.3082 42.893 53.6246 42.7975 53.9294 42.7975C54.3396 42.7975 54.6428 42.9539 54.8421 43.2651L56.2508 45.0927C55.7087 45.7431 55.1008 46.2914 54.4269 46.7376C53.7531 47.1706 53.0446 47.5229 52.3049 47.793C51.5783 48.0498 50.8303 48.2326 50.0642 48.3413C49.3096 48.4499 48.5765 48.5043 47.8631 48.5043C46.4478 48.5043 45.1331 48.2672 43.9155 47.793C42.6996 47.3056 41.6419 46.5943 40.7423 45.6608C39.8428 44.7124 39.136 43.5483 38.6203 42.1685C38.1046 40.774 37.8459 39.1637 37.8459 37.3361C37.8459 35.9151 38.07 34.5815 38.5198 33.3351C38.9696 32.0755 39.6105 30.9855 40.4441 30.0651C41.291 29.1316 42.3158 28.3939 43.5185 27.8523C44.7344 27.3106 46.1035 27.0405 47.6242 27.0405C48.9076 27.0405 50.0906 27.2496 51.1747 27.6695C52.2587 28.0893 53.1913 28.7051 53.9706 29.5169C54.7515 30.3154 55.3595 31.3033 55.7961 32.4822C56.2458 33.6463 56.4699 34.9799 56.4699 36.4832C56.4699 37.2406 56.3908 37.7559 56.2327 38.026C56.0745 38.2828 55.7697 38.4112 55.3199 38.4112H42.726L42.7244 38.4096Z" fill="black"/>
<path d="M77.9869 27.3618L69.9155 48.1966H65.4737L57.4023 27.3618H61.4487C61.8194 27.3618 62.1226 27.4491 62.3615 27.6253C62.6119 27.8014 62.7783 28.0254 62.8574 28.2954L66.7852 39.4241C66.9961 40.0744 67.1822 40.71 67.3404 41.3323C67.4986 41.9547 67.637 42.5787 67.7572 43.2011C67.889 42.5787 68.0357 41.9547 68.1938 41.3323C68.352 40.71 68.5448 40.0728 68.7688 39.4241L72.7757 28.2954C72.8679 28.0254 73.0343 27.8014 73.2716 27.6253C73.5088 27.4491 73.7939 27.3618 74.125 27.3618H77.9918H77.9869Z" fill="black"/>
<path d="M99.0822 27.362L87.9958 53.9233C87.8508 54.2756 87.658 54.5391 87.4208 54.7153C87.1951 54.9046 86.8458 55.0001 86.3696 55.0001H82.7203L86.5278 46.6326L78.2966 27.3604H82.6C82.9839 27.3604 83.2805 27.4558 83.493 27.6452C83.7171 27.8345 83.8835 28.0519 83.9889 28.2956L88.3121 39.0982C88.4571 39.4638 88.5757 39.8293 88.6696 40.1948C88.7751 40.5603 88.8739 40.9324 88.9678 41.3111C89.0865 40.9324 89.2067 40.5603 89.3254 40.1948C89.444 39.8161 89.5774 39.444 89.7224 39.0785L93.8084 28.2956C93.9138 28.0255 94.0851 27.8016 94.324 27.6254C94.5745 27.4493 94.8529 27.362 95.1577 27.362H99.0855H99.0822Z" fill="black"/>
<path d="M115.472 31.768C115.327 31.9574 115.18 32.1072 115.035 32.2142C114.904 32.3229 114.704 32.3772 114.441 32.3772C114.177 32.3772 113.945 32.3031 113.708 32.1533C113.47 31.9903 113.185 31.8141 112.854 31.6248C112.523 31.4223 112.128 31.2461 111.665 31.0963C111.215 30.9333 110.653 30.8526 109.979 30.8526C109.119 30.8526 108.366 31.0156 107.719 31.3399C107.071 31.6511 106.529 32.1039 106.093 32.7C105.669 33.296 105.353 34.0204 105.14 34.8733C104.929 35.713 104.822 36.6664 104.822 37.7366C104.822 38.8068 104.934 39.8342 105.16 40.7019C105.397 41.568 105.735 42.299 106.172 42.8951C106.608 43.4779 107.137 43.9241 107.758 44.2353C108.379 44.5333 109.081 44.6815 109.861 44.6815C110.64 44.6815 111.269 44.586 111.745 44.3967C112.235 44.1941 112.645 43.9768 112.974 43.7463C113.306 43.5026 113.589 43.2869 113.828 43.0959C114.078 42.8934 114.357 42.7913 114.661 42.7913C115.059 42.7913 115.355 42.9478 115.554 43.2589L116.963 45.0865C116.421 45.7369 115.833 46.2852 115.199 46.7314C114.564 47.1644 113.902 47.5168 113.215 47.7868C112.541 48.0437 111.839 48.2264 111.113 48.3351C110.399 48.4438 109.684 48.4981 108.971 48.4981C107.715 48.4981 106.531 48.261 105.42 47.7868C104.31 47.2994 103.338 46.5947 102.504 45.6743C101.671 44.754 101.01 43.6294 100.521 42.304C100.044 40.9637 99.8071 39.4407 99.8071 37.7349C99.8071 36.2053 100.018 34.791 100.441 33.4903C100.878 32.178 101.512 31.0469 102.346 30.0985C103.18 29.1369 104.211 28.3861 105.44 27.8444C106.669 27.3027 108.084 27.0327 109.684 27.0327C111.284 27.0327 112.533 27.283 113.671 27.7835C114.821 28.2841 115.853 29.0019 116.765 29.9355L115.477 31.7631L115.472 31.768Z" fill="black"/>
<path d="M124.929 29.5944C125.723 28.837 126.595 28.2196 127.547 27.747C128.499 27.2728 129.616 27.0357 130.898 27.0357C132.009 27.0357 132.994 27.2317 133.854 27.6252C134.714 28.0039 135.427 28.5456 135.996 29.2503C136.577 29.9402 137.014 30.7733 137.306 31.748C137.61 32.7096 137.762 33.7716 137.762 34.9356V48.1965H132.864V34.9356C132.864 33.6629 132.579 32.6816 132.01 31.9917C131.442 31.287 130.575 30.9363 129.412 30.9363C128.565 30.9363 127.773 31.1322 127.031 31.5257C126.292 31.9176 125.59 32.4527 124.929 33.1294V48.1982H120.031V18.0195H124.929V29.5944Z" fill="black"/>
<path d="M168.11 24.1726C167.952 24.4575 167.779 24.6666 167.594 24.8016C167.423 24.9234 167.204 24.9843 166.94 24.9843C166.662 24.9843 166.358 24.8823 166.027 24.6797C165.709 24.4624 165.327 24.2269 164.877 23.9684C164.427 23.7099 163.899 23.4811 163.291 23.2786C162.696 23.0612 161.987 22.9542 161.169 22.9542C160.429 22.9542 159.78 23.0497 159.224 23.2391C158.669 23.4152 158.2 23.6655 157.816 23.9899C157.445 24.3142 157.168 24.7077 156.982 25.1671C156.798 25.6133 156.705 26.1072 156.705 26.6489C156.705 27.3388 156.89 27.9151 157.261 28.3745C157.644 28.8355 158.147 29.2274 158.768 29.5517C159.389 29.8761 160.098 30.1675 160.89 30.4244C161.683 30.6812 162.497 30.9595 163.33 31.2575C164.164 31.5423 164.976 31.8799 165.77 32.2734C166.563 32.6521 167.269 33.1394 167.892 33.7355C168.513 34.3183 169.009 35.0346 169.378 35.8874C169.762 36.7403 169.955 37.776 169.955 38.9944C169.955 40.3215 169.729 41.5662 169.28 42.7303C168.843 43.8812 168.195 44.8905 167.337 45.7565C166.49 46.6094 165.452 47.2861 164.223 47.7867C162.994 48.274 161.585 48.5177 159.999 48.5177C159.086 48.5177 158.188 48.4239 157.302 48.2329C156.415 48.0567 155.564 47.7998 154.743 47.4607C153.936 47.1215 153.176 46.7165 152.463 46.2423C151.75 45.7681 151.115 45.2395 150.558 44.6583L152.125 42.0388C152.257 41.8494 152.43 41.693 152.641 41.5712C152.852 41.4361 153.077 41.3686 153.315 41.3686C153.646 41.3686 154.002 41.5102 154.386 41.7951C154.769 42.0651 155.226 42.3697 155.755 42.7089C156.284 43.0481 156.898 43.3592 157.6 43.6424C158.313 43.9125 159.167 44.0491 160.159 44.0491C161.679 44.0491 162.856 43.6836 163.689 42.9526C164.523 42.2083 164.938 41.1447 164.938 39.7649C164.938 38.9927 164.747 38.3638 164.363 37.8764C163.993 37.389 163.497 36.9824 162.875 36.658C162.254 36.3188 161.546 36.0356 160.753 35.8051C159.959 35.5746 159.154 35.3243 158.333 35.0543C157.514 34.7843 156.707 34.4583 155.913 34.0796C155.119 33.7009 154.412 33.2069 153.791 32.5977C153.17 31.9885 152.667 31.2295 152.283 30.3239C151.913 29.4035 151.728 28.2724 151.728 26.9321C151.728 25.8619 151.932 24.8197 152.343 23.8054C152.766 22.7896 153.374 21.8906 154.168 21.1052C154.962 20.3198 155.939 19.6908 157.104 19.2167C158.267 18.7425 159.603 18.5054 161.111 18.5054C162.803 18.5054 164.363 18.7754 165.792 19.3171C167.218 19.8588 168.436 20.6162 169.441 21.5909L168.111 24.1693L168.11 24.1726Z" fill="black"/>
<path d="M182.762 27.0356C184.269 27.0356 185.637 27.2859 186.867 27.7864C188.11 28.287 189.167 28.9983 190.04 29.9187C190.925 30.8391 191.607 31.9636 192.083 33.289C192.56 34.6145 192.797 36.098 192.797 37.7362C192.797 39.3745 192.56 40.8777 192.083 42.2032C191.607 43.5286 190.925 44.6598 190.04 45.595C189.167 46.5285 188.11 47.2464 186.867 47.7469C185.637 48.2475 184.269 48.4977 182.762 48.4977C181.254 48.4977 179.859 48.2475 178.616 47.7469C177.374 47.2464 176.31 46.5285 175.423 45.595C174.55 44.6614 173.87 43.5303 173.38 42.2032C172.904 40.8761 172.667 39.3877 172.667 37.7362C172.667 36.0848 172.904 34.6161 173.38 33.289C173.87 31.962 174.55 30.8391 175.423 29.9187C176.31 28.9983 177.374 28.287 178.616 27.7864C179.859 27.2859 181.241 27.0356 182.762 27.0356ZM182.762 44.6416C184.454 44.6416 185.704 44.0588 186.51 42.8947C187.33 41.7306 187.739 40.0249 187.739 37.7774C187.739 35.5299 187.33 33.8176 186.51 32.6403C185.704 31.4631 184.454 30.8736 182.762 30.8736C181.07 30.8736 179.766 31.4697 178.934 32.6601C178.114 33.8373 177.704 35.5431 177.704 37.7774C177.704 40.0117 178.114 41.7175 178.934 42.8947C179.766 44.0588 181.043 44.6416 182.762 44.6416Z" fill="black"/>
<path d="M201.493 18.0195V48.1965H196.593V18.0195H201.493Z" fill="black"/>
<path d="M223.906 27.3618V48.1966H220.911C220.263 48.1966 219.853 47.892 219.681 47.2828L219.344 45.6182C218.51 46.4842 217.592 47.1889 216.587 47.7306C215.582 48.2592 214.398 48.5226 213.037 48.5226C211.926 48.5226 210.941 48.3333 210.081 47.9546C209.236 47.5627 208.521 47.0144 207.939 46.3097C207.358 45.605 206.915 44.7735 206.611 43.812C206.32 42.8372 206.175 41.767 206.175 40.6029V27.3618H211.073V40.6029C211.073 41.8757 211.358 42.8636 211.926 43.5683C212.508 44.2582 213.375 44.6039 214.525 44.6039C215.37 44.6039 216.164 44.4146 216.904 44.0359C217.645 43.6424 218.345 43.1089 219.006 42.4322V27.3635H223.906V27.3618Z" fill="black"/>
<path d="M249.29 48.1966H244.39V31.1175H234.95V42.4091C234.95 43.0595 235.103 43.5666 235.406 43.9321C235.724 44.2977 236.154 44.4804 236.696 44.4804C236.999 44.4804 237.251 44.4459 237.449 44.3783C237.661 44.2977 237.839 44.2153 237.984 44.1347C238.144 44.054 238.283 43.9782 238.401 43.9107C238.52 43.8301 238.64 43.7889 238.759 43.7889C238.904 43.7889 239.022 43.8301 239.115 43.9107C239.208 43.9782 239.307 44.0869 239.413 44.2351L240.881 46.6719C240.166 47.2811 239.347 47.7405 238.421 48.0533C237.495 48.3645 236.536 48.5209 235.546 48.5209C233.773 48.5209 232.412 48.0138 231.46 46.9979C230.521 45.9689 230.051 44.5545 230.051 42.7533V31.1175H227.969C227.705 31.1175 227.48 31.0302 227.295 30.854C227.111 30.6778 227.017 30.4144 227.017 30.0621V28.0714L230.29 27.5034L231.322 21.8378C231.388 21.5678 231.513 21.357 231.697 21.2088C231.883 21.0607 232.121 20.9849 232.412 20.9849H234.95V27.5446H249.29V48.1966ZM250.142 21.2088C250.142 21.6419 250.056 22.0551 249.885 22.447C249.713 22.8257 249.481 23.1583 249.191 23.4415C248.913 23.7263 248.575 23.9552 248.179 24.1314C247.796 24.2944 247.385 24.3751 246.949 24.3751C246.512 24.3751 246.13 24.2944 245.759 24.1314C245.388 23.9552 245.066 23.7247 244.787 23.4415C244.51 23.1566 244.285 22.8257 244.113 22.447C243.955 22.0551 243.874 21.6419 243.874 21.2088C243.874 20.7758 243.955 20.3494 244.113 19.9707C244.285 19.5788 244.51 19.2396 244.787 18.9548C245.066 18.6568 245.388 18.4263 245.759 18.2649C246.13 18.0887 246.527 18.0015 246.949 18.0015C247.37 18.0015 247.796 18.0887 248.179 18.2649C248.575 18.4279 248.913 18.6568 249.191 18.9548C249.481 19.2396 249.713 19.5772 249.885 19.9707C250.056 20.3494 250.142 20.7626 250.142 21.2088Z" fill="black"/>
<path d="M263.294 27.0356C264.801 27.0356 266.169 27.2859 267.399 27.7864C268.642 28.287 269.699 28.9983 270.573 29.9187C271.457 30.8391 272.14 31.9636 272.614 33.289C273.09 34.6161 273.329 36.098 273.329 37.7362C273.329 39.3745 273.09 40.8777 272.614 42.2032C272.14 43.5303 271.457 44.6598 270.573 45.595C269.699 46.5285 268.642 47.2464 267.399 47.7469C266.169 48.2475 264.801 48.4977 263.294 48.4977C261.786 48.4977 260.391 48.2475 259.149 47.7469C257.905 47.2464 256.84 46.5285 255.956 45.595C255.082 44.6614 254.402 43.5303 253.913 42.2032C253.436 40.8761 253.199 39.3877 253.199 37.7362C253.199 36.0848 253.436 34.6161 253.913 33.289C254.402 31.962 255.082 30.8391 255.956 29.9187C256.84 28.9983 257.905 28.287 259.149 27.7864C260.391 27.2859 261.773 27.0356 263.294 27.0356ZM263.294 44.6416C264.986 44.6416 266.235 44.0588 267.042 42.8947C267.861 41.7306 268.271 40.0249 268.271 37.7774C268.271 35.5299 267.861 33.8176 267.042 32.6403C266.235 31.4631 264.986 30.8736 263.294 30.8736C261.602 30.8736 260.299 31.4697 259.465 32.6601C258.646 33.8373 258.236 35.5431 258.236 37.7774C258.236 40.0117 258.646 41.7175 259.465 42.8947C260.299 44.0588 261.574 44.6416 263.294 44.6416Z" fill="black"/>
<path d="M281.648 29.9203C282.058 29.5004 282.488 29.1152 282.936 28.7628C283.399 28.3973 283.882 28.0927 284.384 27.849C284.9 27.5922 285.449 27.3962 286.03 27.2596C286.612 27.1114 287.248 27.0356 287.935 27.0356C289.045 27.0356 290.031 27.2316 290.891 27.6251C291.749 28.0038 292.462 28.5455 293.032 29.2502C293.614 29.9401 294.051 30.7732 294.341 31.7479C294.645 32.7095 294.797 33.7715 294.797 34.9355V48.1964H289.899V34.9355C289.899 33.6628 289.614 32.6815 289.045 31.9916C288.477 31.2869 287.61 30.9362 286.447 30.9362C285.6 30.9362 284.808 31.1321 284.068 31.5256C283.327 31.9175 282.626 32.4526 281.966 33.1293V48.1981H277.066V27.3633H280.061C280.695 27.3633 281.112 27.6679 281.31 28.2771L281.648 29.922V29.9203Z" fill="black"/>
<path d="M311.87 31.4221C311.739 31.6394 311.6 31.7942 311.455 31.8897C311.309 31.9704 311.124 32.0115 310.898 32.0115C310.661 32.0115 310.404 31.944 310.126 31.809C309.86 31.674 309.551 31.5242 309.193 31.3628C308.837 31.1866 308.427 31.0319 307.964 30.8952C307.514 30.7602 306.979 30.6927 306.358 30.6927C305.392 30.6927 304.633 30.9018 304.076 31.3217C303.534 31.7415 303.263 32.2898 303.263 32.9665C303.263 33.4127 303.402 33.793 303.68 34.1042C303.97 34.4023 304.348 34.6657 304.811 34.8962C305.287 35.1267 305.822 35.3358 306.417 35.5252C307.012 35.7013 307.613 35.8973 308.221 36.1146C308.844 36.3319 309.452 36.5822 310.046 36.8654C310.641 37.1371 311.17 37.4878 311.633 37.9208C312.109 38.3407 312.485 38.8478 312.763 39.4438C313.055 40.0399 313.2 40.7577 313.2 41.5958C313.2 42.5969 313.022 43.5255 312.664 44.3784C312.32 45.2181 311.804 45.9491 311.117 46.5715C310.43 47.1807 309.577 47.6615 308.559 48.0138C307.554 48.3514 306.391 48.521 305.068 48.521C304.367 48.521 303.68 48.4535 303.005 48.3184C302.344 48.1966 301.703 48.0204 301.082 47.7899C300.474 47.5594 299.906 47.2894 299.377 46.9782C298.861 46.667 298.405 46.3278 298.008 45.9623L299.138 44.054C299.283 43.8235 299.456 43.6473 299.654 43.5255C299.851 43.4036 300.103 43.3427 300.407 43.3427C300.71 43.3427 300.996 43.43 301.26 43.6062C301.539 43.7823 301.855 43.9717 302.212 44.1742C302.57 44.3767 302.985 44.5661 303.461 44.7422C303.951 44.9184 304.565 45.0057 305.306 45.0057C305.888 45.0057 306.384 44.9382 306.794 44.8032C307.216 44.655 307.56 44.464 307.826 44.2351C308.102 44.0046 308.302 43.7412 308.42 43.4432C308.552 43.132 308.618 42.8142 308.618 42.4882C308.618 42.0008 308.473 41.6024 308.181 41.2895C307.905 40.9784 307.527 40.7067 307.051 40.4778C306.588 40.2473 306.053 40.0448 305.445 39.8686C304.85 39.6793 304.236 39.4768 303.601 39.2594C302.978 39.0421 302.364 38.7918 301.756 38.5086C301.161 38.2106 300.626 37.8385 300.15 37.3923C299.687 36.9461 299.309 36.3978 299.019 35.7474C298.741 35.0971 298.603 34.3117 298.603 33.3913C298.603 32.5384 298.767 31.7267 299.098 30.9545C299.43 30.1823 299.912 29.5122 300.547 28.9441C301.194 28.3613 301.995 27.9019 302.946 27.5627C303.911 27.2104 305.021 27.0342 306.279 27.0342C307.679 27.0342 308.956 27.2713 310.106 27.7455C311.256 28.2197 312.215 28.842 312.981 29.6142L311.87 31.4221Z" fill="black"/>
<path fill-rule="evenodd" clip-rule="evenodd" d="M35.7157 12.3114C35.1506 11.8323 34.3169 11.9162 33.8523 12.4991L7.60017 45.4669V13.976C7.60017 13.2235 7.00705 12.6127 6.27388 12.6127H1.32628C0.593119 12.6127 0 13.2235 0 13.976V67.637C0 68.3894 0.593119 69.0003 1.32628 69.0003H6.27388C7.00705 69.0003 7.60017 68.3894 7.60017 67.637V57.8189L39.7242 17.4764C40.1888 16.8936 40.1064 16.0325 39.5413 15.5533L35.7157 12.3114Z" fill="#EDAF4F"/>
</g>
<defs>
<clipPath id="clip0_204_952">
<rect width="313.2" height="60" fill="white" transform="translate(0 12)"/>
</clipPath>
</defs>
</svg>
