<svg width="94" height="126" viewBox="0 0 94 126" fill="none" xmlns="http://www.w3.org/2000/svg">
<path d="M93.1079 63.5712L87.1206 47.8224L91.5465 37.7163L91.8722 37.4686L87.0826 36.5185L90.2728 32.7196L81.3918 20.8364L82.9825 15.327L83.0979 14.9288L69.9255 10.4927L63.9484 0.851403V0.709473H63.8914L63.7293 0.832521L53.4885 5.231L46.6203 0.76739L39.5989 5.231L29.8181 0.946942L29.5976 0.851403H29.377C29.3332 0.867334 29.2938 0.893406 29.2616 0.926717L29.1944 0.993332L28.9067 1.45823C28.9067 1.45823 28.8497 1.54368 28.8205 1.60016L28.7241 1.7609L28.5999 1.95063L28.169 2.63426C28.1208 2.71971 28.0726 2.80516 28.0157 2.89061L27.7761 3.28019L27.6709 3.46123L27.5176 3.68859L27.278 4.07817C27.24 4.14624 27.1991 4.21284 27.1539 4.27802L26.6748 5.04707C26.6105 5.16148 26.5404 5.27304 26.4644 5.38022L26.0423 6.07396L25.8407 6.38674L25.3528 7.1746C25.3149 7.24267 25.274 7.30935 25.2287 7.37452L25.0373 7.6873C24.9804 7.79158 24.9132 7.88718 24.846 7.99146L24.6634 8.2855L24.491 8.57078L24.3187 8.83724L24.1653 9.09359L24.0222 9.33113L23.879 9.54986L23.7549 9.74971L23.6585 9.91045L23.6292 9.97706V10.1103L23.5431 10.2522V10.3188L10.4861 14.5928L10.3239 14.6681L10.2187 14.7246L12.0008 20.7842L3.0249 32.7718L6.253 36.5706L2.77512 37.2644L2.06669 37.3875L2.20108 37.6351L6.03244 47.7515L0.112305 63.5089V63.6609L8.17818 76.0945V76.1698L8.4075 76.3697L8.48346 76.4928L19.5101 86.5324L19.6927 86.6657L19.8943 86.8264L27.0122 92.7818L28.5357 79.6269H35.5192L41.3531 86.6555V86.7598H52.13V86.7033L58.0312 79.5979H64.7372L66.2606 92.7528L73.2734 86.8829L73.6093 86.6077L84.9895 76.2162L85.1136 76.0829L93.1123 63.5639L93.1079 63.5712ZM69.0535 10.6737L58.3715 24.5035L63.8607 2.32431L69.0535 10.6737ZM83.2703 74.6839L84.0649 76.0047L73.6707 85.5026L70.4616 53.2086L83.2703 74.6853V74.6839ZM57.9129 78.8159L54.8951 72.9749H60.1346L63.3816 67.7321L64.6656 78.7985L57.9114 78.8174L57.9129 78.8159ZM46.2829 69.4889V72.1204H41.0332L46.2829 69.4889ZM28.6277 78.8159L29.9014 67.7495L33.1587 72.9923H38.4376L35.3717 78.8145H28.6277V78.8159ZM46.6861 19.9254L40.1335 5.92474L46.6189 1.77391L52.9889 5.92474L46.6861 19.9254ZM46.2844 40.452V54.3006H43.5164L46.2844 40.452ZM24.1843 50.8247L36.3795 41.3268L29.5684 65.1483L24.1843 50.8247ZM22.8332 53.1608L19.7964 83.8313L19.6241 85.4939L9.25908 76.0047L22.8332 53.1608ZM11.3376 15.8035L34.3287 26.3747L14.6139 27.3248L12.9181 21.2926L11.3376 15.8021V15.8035ZM28.8585 35.9493L23.6278 49.3808L17.6025 34.3359H17.4871L15.0054 28.2661L28.857 35.9508L28.8585 35.9493ZM29.989 35.6263L16.3375 28.0271L35.4973 27.1538L36.2641 35.5973L29.989 35.6263ZM36.695 39.4252L31.4161 36.5749H36.4365L36.695 39.4252ZM37.4619 39.4252L37.2603 36.4519L36.4263 27.3335L45.9192 35.5206L37.4604 39.4238L37.4619 39.4252ZM29.5874 36.5749H29.6546L36.4277 40.2797L24.4531 49.5401L29.5874 36.5749ZM4.1058 32.7761L12.2301 21.8531L13.9347 27.8751L16.6165 34.5242L7.13233 36.3577L4.1058 32.7761ZM23.7826 52.2006L29.1565 66.4489L20.7546 82.9768L23.7812 52.2021L23.7826 52.2006ZM30.3352 65.6118L37.5013 40.5259V40.3738L46.1237 36.4128L42.4925 54.6207L30.3352 65.6103V65.6118ZM42.789 55.5723L46.2756 62.734V68.4331L38.832 72.1653H33.6305L30.3352 66.8646L42.789 55.5708V55.5723ZM46.0171 20.4758L36.4379 25.8417L39.7712 7.12977L46.0171 20.4758ZM46.2756 21.2737V34.572L36.9448 26.5369L41.6292 23.9242C44.5126 22.3281 45.7585 21.6069 46.2844 21.2839L46.2742 21.2737H46.2756ZM4.03861 37.8669L17.0766 35.2933L22.9296 49.9688L4.03861 37.8683V37.8669ZM9.25908 74.2552L8.6456 75.2719L0.981409 63.4466L22.9004 51.336L9.25908 74.2552ZM46.2552 55.2579V60.5674L43.7457 55.2478L46.2552 55.2579ZM52.2527 72.1276H47.2134V69.6004L52.2527 72.1276ZM47.2134 60.5486V55.2478H49.7623L47.2134 60.5486ZM47.2134 68.5374V62.7427L50.6328 55.6374L62.9814 66.7603L59.6292 72.1653H54.4554L47.2134 68.5374ZM50.0296 54.289H47.2134V40.3738L50.0296 54.289ZM75.4921 35.0933L69.7064 49.417L64.4669 36.0246L78.2236 28.4254L75.5024 35.0745L75.4921 35.0933ZM61.9458 36.5185L56.6669 39.3687L56.9254 36.5185H61.9458ZM63.6986 36.5185H63.7658L68.8621 49.5416L56.9357 40.2233L63.6986 36.5185ZM77.1106 28.0358L63.3349 35.6814H56.9649L57.7405 27.1321L77.1106 28.0344V28.0358ZM55.9395 39.4817L47.5771 35.4728L56.8597 27.3798L56.0841 35.8335L55.9409 39.4802L55.9395 39.4817ZM51.1499 54.7641L47.4515 36.4316L55.8533 40.4781L62.8076 65.2685L51.1484 54.7626L51.1499 54.7641ZM70.4236 50.0151L76.4007 35.2933L89.7265 37.8393L70.4236 50.0166V50.0151ZM86.1624 36.2897L76.6782 34.4561L79.303 28.0257L81.1041 21.8227L89.1889 32.7747L86.1624 36.2897ZM78.6516 27.2567L62.9785 26.5731L59.1471 26.3834L81.8695 16.1149L78.6501 27.2567H78.6516ZM57.3651 24.6729L54.0026 5.95084L62.9887 1.98974L57.3651 24.6714V24.6729ZM47.3346 20.512L53.3219 7.12828L56.6654 25.7446L47.3346 20.5105V20.512ZM47.2382 34.5415V21.4244L56.3967 26.5441L47.2382 34.5415ZM69.1469 50.9449L63.6957 65.4308L56.9897 41.3428L69.1469 50.9464V50.9449ZM69.5296 52.7119L72.5284 82.9363L64.261 66.7226L69.5296 52.7119ZM72.0011 49.9673L90.2596 38.5692L86.3698 47.4603L71.9996 49.9673H72.0011ZM71.1291 50.9652L86.38 48.2584L91.6399 62.2213L71.1305 50.9652H71.1291ZM70.5536 51.6112L92.1658 63.4741L84.617 75.2908L70.5536 51.6112ZM58.2912 25.8229L69.6041 11.2805L81.5788 15.3082L58.2912 25.8229ZM39.1314 5.96095L35.769 24.6063L30.1643 2.01874L39.1314 5.96095ZM11.7627 15.0606L23.6219 11.1763L34.802 25.6418L11.7627 15.0606ZM21.8501 50.9652L1.52186 62.2213L6.75255 48.2685L21.8501 50.9667V50.9652ZM21.5054 50.0151L6.83873 47.4227L3.41928 38.4751L21.5054 50.0151ZM20.3938 86.1573L20.48 85.255L28.9286 68.7372L26.3417 91.1163L20.3924 86.1588L20.3938 86.1573ZM39.3038 73.0299H46.2785V85.872H41.7665L36.1721 79.1287L39.3053 73.0314L39.3038 73.0299ZM47.2353 85.8343V73.069H53.9413L57.1986 79.3576L51.7765 85.8734L47.2353 85.8358V85.8343ZM24.2442 10.568L29.3697 2.38081L34.7918 24.2268L24.2442 10.568ZM66.9603 91.1148L64.3647 68.869L72.8045 85.3868L72.8907 86.2037L66.9603 91.1148ZM14.6066 107.262V121.319H20.2784V125.289H9.86526V107.242L14.6066 107.26V107.262ZM35.2227 120.047H26.1226C26.1226 120.787 26.3899 121.503 26.8793 122.06C27.3774 122.485 28.0244 122.696 28.6803 122.65C29.1711 122.643 29.6546 122.533 30.0986 122.327C30.4273 122.136 30.6931 121.856 30.8655 121.52H35.0415C34.7845 122.466 34.2747 123.326 33.5662 124.008C32.2137 125.218 30.4199 125.822 28.6043 125.68C26.742 125.765 24.9219 125.105 23.5562 123.846C22.3599 122.622 21.7114 120.971 21.7552 119.268C21.7201 117.53 22.3935 115.853 23.6234 114.613C24.9804 113.385 26.7799 112.752 28.6145 112.857C30.3338 112.787 32.015 113.375 33.3092 114.5C34.634 115.859 35.3293 117.704 35.2256 119.591V120.047H35.2227ZM31.2087 117.559C31.0904 117.074 30.8465 116.629 30.5003 116.267C30.0095 115.824 29.3624 115.588 28.6993 115.611C28.042 115.572 27.3978 115.81 26.9275 116.267C26.5827 116.622 26.3563 117.073 26.276 117.559H31.2102H31.2087ZM50.0047 123.704C46.873 126.365 42.2529 126.365 39.1227 123.704C36.6439 121.296 36.6045 117.351 39.0336 114.893C39.0628 114.862 39.0935 114.834 39.1227 114.805C40.5921 113.452 42.5407 112.731 44.5447 112.8C46.559 112.735 48.5192 113.455 50.0047 114.805C51.2449 115.95 51.9401 117.561 51.9212 119.241C51.9343 120.931 51.2317 122.55 49.9857 123.704H50.0047ZM42.5903 117.311C41.4788 118.36 41.4364 120.104 42.4939 121.206C43.0183 121.752 43.7457 122.06 44.5053 122.06C45.2254 122.049 45.9134 121.759 46.4217 121.254C46.9505 120.76 47.2543 120.075 47.2645 119.354C47.2587 117.833 46.02 116.6 44.4863 116.59C43.7881 116.603 43.1176 116.86 42.5889 117.311H42.5903ZM58.7323 105.628V114.415C59.6613 113.403 60.9832 112.832 62.3635 112.848C63.9571 112.82 65.5011 113.403 66.674 114.471C67.9609 115.721 68.6795 117.435 68.6664 119.22C68.7102 121.016 68.0193 122.753 66.75 124.036C65.6121 125.148 64.0652 125.751 62.4673 125.707C61.0285 125.752 59.6569 125.109 58.779 123.978V125.299H54.3722V105.58L58.7308 105.628H58.7323ZM63.3407 121.262C63.8651 120.764 64.1719 120.082 64.1938 119.362C64.1909 118.595 63.8856 117.858 63.3407 117.31C62.8368 116.799 62.1444 116.515 61.4243 116.522C60.675 116.509 59.9534 116.805 59.432 117.339C58.9456 117.878 58.6578 118.564 58.6184 119.286C58.6388 120.071 58.985 120.813 59.5766 121.338C60.1053 121.801 60.786 122.062 61.493 122.069C62.1985 122.034 62.8616 121.727 63.3422 121.215V121.262H63.3407ZM73.3522 105.789C74.7121 105.783 75.8179 106.872 75.8237 108.221C75.8296 109.569 74.7311 110.665 73.3712 110.671C72.0113 110.677 70.9056 109.588 70.8998 108.239C70.8998 108.234 70.8998 108.226 70.8998 108.221C70.8676 106.884 71.9354 105.773 73.285 105.743C73.307 105.743 73.3303 105.743 73.3522 105.743V105.79V105.789ZM75.536 113.255V125.289H71.1671V113.207L75.536 113.255ZM83.3345 116.797V125.347H78.9759V116.797H77.5765V113.255H78.9759V109.275H83.3345V113.255H85.8162V116.797H83.3345Z" fill="#191919"/>
</svg>
