<svg width="32" height="33" viewBox="0 0 32 33" fill="none" xmlns="http://www.w3.org/2000/svg">
<path fill-rule="evenodd" clip-rule="evenodd" d="M0 16.2095C0 7.37292 7.16344 0.209473 16 0.209473C24.8366 0.209473 32 7.37292 32 16.2095C32 25.046 24.8366 32.2095 16 32.2095C7.16344 32.2095 0 25.046 0 16.2095ZM8.2 13.5095V24.2095H11.6V13.5095H8.2ZM8 10.1095C8 11.2095 8.8 12.0095 9.9 12.0095C11 12.0095 11.8 11.2095 11.8 10.1095C11.8 9.00948 11 8.20947 9.9 8.20947C8.9 8.20947 8 9.00948 8 10.1095ZM20.6 24.2095H23.8V17.6095C23.8 14.3095 21.8 13.2095 19.9 13.2095C18.2 13.2095 17 14.3095 16.7 15.0095V13.5095H13.5V24.2095H16.9V18.5095C16.9 17.0095 17.9 16.2095 18.9 16.2095C19.9 16.2095 20.6 16.7095 20.6 18.4095V24.2095Z" fill="white"/>
</svg>
