<svg width="98" height="127" viewBox="0 0 98 127" fill="none" xmlns="http://www.w3.org/2000/svg">
<g clip-path="url(#clip0_10_360)">
<path d="M39.6291 126.21C39.6291 124.566 39.6291 122.922 39.6291 121.278C39.6291 97.8963 39.6325 74.5175 39.6359 51.1354C39.6359 50.9606 39.6359 50.7858 39.6359 50.5605C40.432 50.6984 41.1773 50.8194 41.9192 50.9538C45.1172 51.5186 48.3118 52.0833 51.5064 52.6581C55.2294 53.327 58.9491 54.0027 62.6722 54.6716C65.9481 55.2598 69.2206 55.8447 72.4966 56.4363C76.2162 57.1086 79.9326 57.791 83.6489 58.4599C87.0874 59.0784 90.5293 59.6835 93.9678 60.2953C95.0519 60.4869 96.1359 60.6684 97.2132 60.8869C97.3386 60.9138 97.4199 61.1423 97.5249 61.2768V67.1963C97.5046 67.3543 97.4673 67.5156 97.4673 67.6736C97.4673 71.9191 97.4673 76.1646 97.4673 80.4135V80.9244C96.1461 80.9244 94.8791 80.9244 93.6121 80.9244C90.5767 80.9244 87.5413 80.8269 84.5263 81.3278C79.7124 82.1278 75.5489 84.2354 72.0121 87.5498C69.8033 89.6204 68.0621 92.0776 66.3851 94.5718C63.8579 98.3333 60.8835 101.691 57.3908 104.592C56.6963 105.167 55.9849 105.725 55.2261 106.337C55.89 106.747 56.5066 107.157 57.1469 107.52C58.1158 108.068 58.1225 108.058 59.1084 107.52C59.2642 107.436 59.42 107.345 59.5725 107.251C63.8782 104.67 67.8385 101.651 71.3109 98.024C71.4396 97.8895 71.6767 97.8021 71.8698 97.7853C72.9708 97.7013 74.0786 97.7114 75.1694 97.5736C78.3505 97.1736 81.3825 96.2391 84.2654 94.8609C88.0088 93.0726 91.9758 92.1449 96.0783 91.6877C96.4849 91.644 96.8982 91.6205 97.3047 91.5902C97.1997 91.7482 97.0845 91.8222 96.9693 91.8927C89.8348 96.1651 82.6969 100.438 75.559 104.707C64.6574 111.228 53.7558 117.749 42.8576 124.273C41.8006 124.905 40.7538 125.561 39.7036 126.203H39.6223L39.6291 126.21ZM62.8111 95.7181C62.8958 95.6071 62.9805 95.5029 63.0584 95.392C64.2949 93.6474 65.4976 91.8793 66.7713 90.1616C68.3771 87.9968 70.1624 85.9833 72.3204 84.3295C74.7324 82.4841 77.4561 81.2202 80.2747 80.1311C80.7016 79.9664 81.308 79.879 81.4909 79.563C81.6942 79.2067 81.5349 78.6319 81.4943 78.1546C81.3994 77.0554 81.2809 75.9562 81.1657 74.7763C82.1142 75.3579 83.0323 75.9259 84.0418 76.5444C83.9334 75.7881 83.8962 75.1259 83.7437 74.494C82.7139 70.2451 80.5119 66.682 77.2156 63.8046C76.7447 63.3945 76.5652 63.0819 76.7752 62.4634C76.992 61.818 77.0598 61.1155 76.9446 60.4028C75.6573 60.5171 74.4716 60.8096 73.4214 61.539C73.1572 61.7205 72.8387 61.8684 72.5237 61.9256C71.5751 62.0936 70.6096 62.1743 69.6678 62.3558C67.415 62.7928 65.2604 63.5222 63.2109 64.5508C63.0957 64.608 62.95 64.7391 62.9432 64.8466C62.9127 65.324 62.8924 65.808 62.9297 66.282C63.0008 67.2265 63.4582 67.6434 64.4169 67.6904C64.6642 67.7005 64.9149 67.6971 65.1622 67.6971C65.6026 67.6971 66.0464 67.6703 66.4868 67.6971C66.9882 67.7274 67.476 67.8282 67.7809 68.2988C68.2247 68.9778 67.9401 70.3728 66.7171 70.3829C65.6974 70.393 64.6744 70.3863 63.6547 70.3897C63.4954 70.3897 63.3362 70.3897 63.177 70.3897C63.1634 70.5073 63.1533 70.5611 63.1533 70.6115C63.1533 71.1056 63.1465 71.5964 63.1601 72.0905C63.1872 72.9746 63.6479 73.425 64.5321 73.4317C65.5247 73.4385 66.5207 73.4317 67.5132 73.4317C67.8757 73.4317 68.2416 73.4317 68.6041 73.4317C68.5499 73.546 68.4821 73.5864 68.4178 73.6267C67.2117 74.3629 65.9718 75.0587 64.7997 75.8486C61.6187 77.9899 59.1016 80.7025 57.6245 84.2791C57.4823 84.6253 57.3637 84.9783 57.2146 85.3816C57.7838 85.2102 58.2614 85.0489 58.7527 84.9211C59.2371 84.7968 59.7317 84.7026 60.25 84.5917C59.1558 89.412 61.124 93.6609 62.8179 95.7214L62.8111 95.7181ZM57.8041 87.8187C53.3832 89.6036 48.847 89.8322 44.1483 89.3112C44.4159 90.3633 44.6768 91.3616 44.9241 92.3667C44.9952 92.6558 45.1646 92.7734 45.4458 92.8541C49.284 93.9096 53.1901 94.2491 57.157 93.9768C57.8685 93.9264 58.5799 93.8357 59.3489 93.7583C58.2377 91.9129 57.882 89.923 57.8007 87.8221L57.8041 87.8187Z" fill="#191919"/>
<path d="M41.4519 0.209473C42.1972 0.427966 42.9729 0.572508 43.681 0.875037C46.7434 2.17591 48.688 5.50709 48.3153 8.72399C47.9088 12.2333 45.4189 14.9023 42.021 15.5981C37.661 16.4889 33.2028 13.4804 32.6879 8.72399C32.2576 4.75077 35.1338 1.00277 39.1177 0.306954C39.2871 0.280063 39.4599 0.243087 39.6293 0.209473C40.2357 0.209473 40.8455 0.209473 41.4519 0.209473Z" fill="#191919"/>
<path d="M0.531738 46.4023C0.687572 45.8981 0.802754 45.3737 1.00263 44.8897C1.91392 42.6711 4.38694 41.256 6.76849 41.5652C9.30249 41.898 11.3249 43.8846 11.6265 46.3385C11.9076 48.6377 10.8032 50.7924 8.76724 51.9084C6.82947 52.9706 4.33613 52.7521 2.60501 51.3403C1.52433 50.4562 0.860345 49.3167 0.613043 47.9419C0.599492 47.8646 0.562228 47.7906 0.535126 47.7167C0.535126 47.2797 0.535126 46.8393 0.535126 46.4023H0.531738Z" fill="#191919"/>
<path d="M68.5499 4.8989C58.9288 18.0287 49.3044 31.1618 39.6494 44.3386C30.5907 30.6845 21.5964 17.1312 12.5986 3.5745C12.6257 3.55097 12.6528 3.52744 12.6765 3.50391C13.3676 4.03165 14.0621 4.5594 14.7532 5.0905C22.7854 11.2587 30.8211 17.4236 38.8533 23.5918C39.148 23.8171 39.4563 24.0288 39.7307 24.2776C39.9882 24.5129 40.1948 24.523 40.4828 24.3145C41.804 23.3733 43.1387 22.4523 44.4701 21.5246C52.4007 16.0017 60.3313 10.4789 68.2585 4.95268C68.3263 4.90562 68.3941 4.86193 68.4618 4.81823C68.4923 4.84176 68.5194 4.86865 68.5499 4.89218V4.8989Z" fill="#191919"/>
<path d="M66.365 39.4443C74.0212 43.9956 81.6435 48.5235 89.2625 53.0513C89.2557 53.0782 89.2455 53.1018 89.2387 53.1287C76.9177 50.5269 64.5932 47.9218 52.2112 45.3066C59.0238 34.7349 65.8162 24.1968 72.6119 13.6587C72.6356 13.6688 72.656 13.6789 72.6797 13.6889C70.5759 22.264 68.4755 30.8356 66.365 39.4443Z" fill="#191919"/>
<path d="M2.98779 66.5474C7.96771 60.1506 12.9476 53.7538 17.9513 47.3267C13.2457 40.6677 8.54023 34.0121 3.83811 27.3565C3.85843 27.3363 3.87537 27.3195 3.8957 27.2993C13.2695 34.0692 22.6432 40.8392 32.078 47.6528C22.379 53.9992 12.7274 60.312 3.07249 66.6281C3.04538 66.6012 3.01828 66.5743 2.98779 66.5474Z" fill="#191919"/>
<path d="M31.7698 62.4229C32.0035 70.4937 32.2373 78.4871 32.471 86.4806C32.4371 86.484 32.3999 86.4907 32.366 86.4941C31.8883 85.2235 31.4141 83.9495 30.933 82.6789C29.4627 78.783 27.9925 74.8871 26.529 70.9911C26.4341 70.7357 26.3122 70.6449 26.0208 70.6617C22.5247 70.8802 19.0286 71.092 15.5325 71.2903C13.6049 71.3979 11.6739 71.4752 9.74633 71.5626C9.63115 71.5693 9.51597 71.5626 9.39062 71.5054C16.8266 68.4869 24.2592 65.4717 31.7664 62.4262L31.7698 62.4229Z" fill="#191919"/>
<path d="M78.1915 40.486C74.8512 40.486 72.1783 37.8035 72.1851 34.4589C72.1918 31.2185 74.9562 28.4991 78.2186 28.5226C81.5961 28.5461 84.2554 31.195 84.2554 34.5261C84.2554 37.864 81.5859 40.486 78.1915 40.486Z" fill="#191919"/>
<path d="M17.9886 77.5425C18.0021 75.3743 19.7163 73.6667 21.8607 73.6768C24.0797 73.6869 25.743 75.3844 25.7227 77.6198C25.7058 79.724 23.9814 81.398 21.8438 81.3913C19.7163 81.3846 17.9716 79.6433 17.9852 77.5425H17.9886Z" fill="#191919"/>
</g>
<defs>
<clipPath id="clip0_10_360">
<rect width="97" height="126" fill="white" transform="translate(0.531738 0.209473)"/>
</clipPath>
</defs>
</svg>
