<svg width="318" height="90" viewBox="0 0 318 90" fill="none" xmlns="http://www.w3.org/2000/svg">
<g clip-path="url(#clip0_67_73)">
<path d="M307.03 44.7128C299.31 42.9466 290.745 43.2245 282.809 43.0255C275.032 42.8333 267.246 42.6663 259.466 42.4999C243.921 42.1629 228.366 41.7887 212.837 41.7852C181.559 41.7771 150.371 43.6032 120.196 49.0828C103.123 52.1816 86.8081 56.568 70.6245 61.499C67.1026 62.5727 65.8156 66.1045 67.5124 68.657C69.3817 71.4821 73.5519 72.3263 77.1308 71.3192C90.8608 67.4698 105.375 65.0138 119.834 62.9275C134.363 60.8256 149.143 59.3191 163.931 58.2699C193.762 56.1545 223.457 55.2073 253.539 55.8987C262.136 56.0957 270.727 56.3856 279.32 56.7329C283.404 56.8956 287.484 57.11 291.565 57.2103C296.376 57.3292 301.419 57.7616 306.101 57.035C313.734 55.8458 315.564 46.6701 307.03 44.7128Z" fill="#D7D7D7"/>
<path d="M242.315 36.4137C253.48 36.6694 264.653 37.0971 275.813 37.6951C281.177 37.9804 286.541 38.4474 291.899 38.9036C298.196 39.4409 306.433 41.2098 311.987 38.5243C318.707 35.2726 319.219 29.4966 312.987 25.2729C308.224 22.0477 300.948 22.4281 295.096 22.215C289.932 22.0278 284.768 21.9237 279.601 21.7675C269.708 21.4624 259.817 21.1315 249.924 21.0132C229.27 20.7632 208.634 21.096 188.069 21.9532C168.251 22.7786 148.383 24.2596 128.838 26.4918C109.217 28.7285 89.5452 30.811 70.2821 34.2429C48.2721 38.1632 26.4884 42.5575 4.94854 47.6503C2.47701 48.2373 0.674854 49.7315 1.24508 51.8616C1.73995 53.7108 4.48828 55.3043 6.98475 54.8437C45.3133 47.7677 84.6588 42.9333 124.085 39.6832C163.163 36.464 202.803 35.504 242.308 36.4131L242.315 36.4137Z" fill="#D7D7D7"/>
</g>
<defs>
<clipPath id="clip0_67_73">
<rect width="313.898" height="66.3469" fill="white" transform="translate(4.9917) rotate(4.31473)"/>
</clipPath>
</defs>
</svg>
