<svg width="1920" height="3941" viewBox="0 0 1920 3941" fill="none" xmlns="http://www.w3.org/2000/svg">
<path d="M-1247.68 534.431C-1121.98 375.849 -987.83 210.758 -800.292 134.591C-612.808 58.4307 -357.199 109.556 -276.087 295.001C-215.925 432.611 -268.905 594.883 -351.938 720.032C-434.97 845.18 -546.769 950.197 -621.901 1080.18C-665.062 1154.83 -695.83 1240.37 -686.921 1326.16C-678.012 1411.94 -621.74 1496.45 -538.497 1518.94C-426.204 1549.28 -316.353 1463.13 -244.241 1371.86C-122.277 1217.44 -43.5496 1031.9 82.7749 880.979C209.1 730.057 410.141 613.676 598.482 670.826C806.923 734.056 906.5 992.295 857.905 1204.65C809.304 1416.96 651.154 1586.63 483.168 1725.31C315.183 1863.98 129.323 1984.73 -9.41707 2152.67C-105.038 2268.39 -175.868 2436.45 -97.8121 2564.63C-32.8217 2671.36 114.334 2703.07 235.173 2671.13C356.011 2639.19 456.77 2557.99 553.53 2478.85C707.207 2353.17 860.884 2227.49 1014.5 2101.76C1108.72 2024.71 1204.89 1946.47 1317.85 1901.07C1430.81 1855.73 1565.32 1847.54 1670.41 1909.06C1850.08 2014.29 1869.26 2283.33 1764.55 2463.29C1659.84 2643.25 1470.11 2753.91 1287 2853.03C1103.89 2952.15 911.559 3054.34 793.815 3226.03C707.194 3352.25 673.079 3533.47 767.257 3654.19C856.275 3768.3 1019.28 3785.52 1163.78 3793.55C1471.01 3810.62 1778.24 3827.68 2085.47 3844.8" stroke="#EFF1FF" stroke-opacity="0.3" stroke-width="200" stroke-miterlimit="10"/>
</svg>
