<svg width="50" height="45" viewBox="0 0 50 45" fill="none" xmlns="http://www.w3.org/2000/svg">
<g clip-path="url(#clip0_20_74)">
<path d="M29.732 12.7577C29.7294 11.8875 29.7255 11.0176 29.7107 10.1481C29.6797 8.37392 29.6593 6.60363 29.5376 4.83272C29.4414 3.43094 31.6593 3.14391 31.9873 4.49936C32.4302 6.33008 32.8112 8.14928 33.0452 10.02C33.1584 10.9292 33.247 11.8383 33.296 12.7529C33.3456 13.6892 33.4877 14.7771 33.1789 15.6775C32.6332 17.2634 30.4324 17.3454 29.8977 15.6967C29.6006 14.7798 29.7357 13.7107 29.7333 12.7573L29.732 12.7577Z" fill="#FFF16C"/>
<path d="M6.46723 19.7048C6.95404 19.2064 7.62144 19.2973 8.12687 19.6824C8.78785 20.1854 9.61994 20.442 10.4068 20.6785C11.38 20.9711 12.3375 21.3158 13.3007 21.6412C15.4006 22.3518 17.4674 23.1055 19.5035 23.9809C20.2231 24.2904 20.462 25.2984 20.1797 25.9584C19.8841 26.6493 19.0752 27.1495 18.3079 26.8994C16.0769 26.1747 13.9174 25.298 11.7529 24.3981C9.84462 23.6047 7.98331 22.8378 6.48869 21.3603C6.03936 20.9161 6.02351 20.1613 6.4685 19.7045L6.46723 19.7048Z" fill="#FFF16C"/>
<path d="M16.6169 7.56304C18.17 9.10883 19.6603 10.6992 21.0465 12.3975C21.7572 13.2683 22.4284 14.1746 23.0792 15.0906C23.392 15.5302 23.6878 15.9828 23.9821 16.4344C24.3253 16.9597 24.7415 17.4866 24.8686 18.1098C25.1775 19.6287 23.5352 20.5199 22.3649 19.588C21.8799 19.2027 21.5926 18.5734 21.2673 18.054C21.0032 17.6322 20.7309 17.2154 20.4646 16.7956C19.8869 15.8867 19.2931 14.989 18.705 14.087C17.537 12.2931 16.328 10.5187 15.0396 8.80841C14.3423 7.8821 15.8209 6.77437 16.6163 7.56592L16.6169 7.56304Z" fill="#FFF16C"/>
<path d="M6.65356 31.2805C8.89966 30.7049 11.1937 30.2633 13.514 30.1442C14.6309 30.0864 15.7558 30.0428 16.8741 30.0936C17.9424 30.1419 19.3314 30.1589 20.0103 31.1175C20.2117 31.4013 20.1075 31.7858 19.9024 32.0278C19.2173 32.8372 17.8317 32.7635 16.8737 32.8128C15.753 32.8716 14.6334 32.9098 13.5145 33.0049C11.332 33.1922 9.14748 33.3528 6.97618 33.6501C5.61348 33.8372 5.35824 31.6125 6.65448 31.2789L6.65356 31.2805Z" fill="#FFF16C"/>
</g>
<defs>
<clipPath id="clip0_20_74">
<rect width="41.9239" height="34.229" fill="white" transform="matrix(-0.963887 0.26631 0.26631 0.963887 40.4099 0.5)"/>
</clipPath>
</defs>
</svg>
