<svg width="309" height="53" viewBox="0 0 309 53" fill="none" xmlns="http://www.w3.org/2000/svg">
<path d="M15.5281 30.623C11.199 28.9441 7.45748 27.4922 7.45748 24.1453C7.45748 20.2747 11.0018 18.8978 14.3214 18.8978C20.0598 18.8978 23.1068 22.0489 23.1399 22.08L23.4328 22.3912L26.0009 18.1105L25.8424 17.9348C25.695 17.7682 22.136 13.8994 14.4651 13.8994C8.35647 13.8994 1.7854 17.1036 1.7854 24.1453C1.7854 30.8025 7.83329 33.1827 13.1719 35.2846C17.5103 36.991 21.2554 38.4649 21.2554 41.7862C21.2554 45.5102 17.7718 47.1764 14.3214 47.1764C7.7964 47.1764 3.82102 42.9689 3.7805 42.925L3.51892 42.643L0.468262 46.6564L0.643215 46.8523C0.689269 46.9072 1.85359 48.2109 4.11763 49.5255C6.20114 50.7357 9.64785 52.1766 14.2496 52.1766C21.5981 52.1766 26.9312 47.8044 26.9312 41.7862C26.9312 35.0447 20.874 32.6956 15.5299 30.623" fill="#191919"/>
<path d="M65.9818 32.8585C65.9818 40.887 59.9376 47.1762 52.2226 47.1762C44.5075 47.1762 38.4634 40.887 38.4634 32.8585C38.4634 24.8299 44.5075 18.9673 52.2226 18.9673C59.9376 18.9673 65.9818 25.0697 65.9818 32.8585ZM52.2226 13.8975C41.3243 13.8975 32.7876 22.2263 32.7876 32.8585C32.7876 43.4906 41.3243 52.1747 52.2226 52.1747C63.1209 52.1747 71.6576 43.6902 71.6576 32.8585C71.6576 22.0268 63.1209 13.8975 52.2226 13.8975Z" fill="#191919"/>
<path d="M95.6996 0.355955C95.6628 0.350462 94.7952 0.209473 93.4209 0.209473C89.5708 0.209473 80.6141 1.54057 80.6141 13.8682V15.2597H75.6899V19.9651H80.6141V51.3471H86.1387V19.9651H95.3957V15.2597H86.1387V13.8682C86.1387 10.6311 87.152 5.20239 93.9238 5.20239C94.8799 5.20239 95.5762 5.33605 95.5836 5.33788L95.9705 5.41481V0.401728L95.6996 0.357788V0.355955Z" fill="#191919"/>
<path d="M121.787 46.8908L121.387 46.9787C121.387 46.9787 120.742 47.116 119.773 47.116C116.808 47.116 111.83 45.9021 111.83 37.7692V20.0697H121.052V15.269H111.83V4.71924H106.268V15.269H101.365V20.0697H106.195V38.2782C106.195 50.3988 114.427 52.2096 119.331 52.2096C120.665 52.2096 121.481 52.065 121.514 52.0595L121.785 52.0119V46.8945L121.787 46.8908Z" fill="#191919"/>
<path d="M133.026 40.4514C133.026 40.4514 137.066 44.4648 143.053 44.4648C145.649 44.4648 147.883 43.3168 147.883 41.1673C147.883 35.7203 129.997 36.4362 129.997 24.6799C129.997 17.8707 136.128 13.9287 144.063 13.9287C151.997 13.9287 156.394 18.0849 156.394 18.0849L153.004 24.8227C153.004 24.8227 149.615 21.668 143.989 21.668C141.611 21.668 139.3 22.6714 139.3 24.9655C139.3 30.1269 157.186 29.4805 157.186 41.2369C157.186 47.3302 151.851 52.2041 143.123 52.2041C133.964 52.2041 128.842 46.8285 128.842 46.8285L133.026 40.4495V40.4514Z" fill="#191919"/>
<path d="M188.936 28.5522C188.792 23.6051 185.69 20.9521 181.652 20.9521C176.964 20.9521 173.718 23.8211 172.854 28.5522H188.936ZM181.87 13.9287C192.471 13.9287 198.169 21.5984 198.169 31.2748C198.169 32.3496 197.954 34.7865 197.954 34.7865H172.565C173.141 41.1673 178.119 44.4648 183.599 44.4648C189.513 44.4648 194.201 40.4495 194.201 40.4495L197.738 46.9731C197.738 46.9731 192.11 52.2059 182.951 52.2059C170.765 52.2059 163.192 43.4614 163.192 33.0673C163.192 21.8145 170.909 13.9287 181.871 13.9287" fill="#191919"/>
<path d="M207.389 14.7891H216.187V21.0967C216.187 22.4589 216.042 23.6764 216.042 23.6764H216.187C217.847 18.4437 222.248 14.2856 227.871 14.2856C228.738 14.2856 229.53 14.4285 229.53 14.4285V23.3871C229.53 23.3871 228.593 23.2443 227.366 23.2443C223.471 23.2443 219.072 25.4653 217.341 30.9122C216.764 32.7047 216.549 34.7132 216.549 36.8627V51.3416H207.389V14.7855V14.7891Z" fill="#191919"/>
<path d="M233.519 14.7896H243.181L250.828 37.4398C251.55 39.5912 252.053 42.0208 252.127 42.0208H252.268C252.342 42.0208 252.845 39.5893 253.567 37.4398L261.21 14.7896H270.874L257.675 51.3457H246.858L233.515 14.7896H233.519Z" fill="#191919"/>
<path d="M298.881 28.5522C298.737 23.6051 295.637 20.9521 291.599 20.9521C286.911 20.9521 283.665 23.8211 282.801 28.5522H298.881ZM291.814 13.9287C302.416 13.9287 308.112 21.5984 308.112 31.2748C308.112 32.3496 307.897 34.7865 307.897 34.7865H282.51C283.086 41.1673 288.064 44.4648 293.544 44.4648C299.456 44.4648 304.146 40.4495 304.146 40.4495L307.679 46.9731C307.679 46.9731 302.055 52.2059 292.896 52.2059C280.706 52.2059 273.133 43.4614 273.133 33.0673C273.133 21.8145 280.85 13.9287 291.813 13.9287" fill="#191919"/>
</svg>
