<svg width="239" height="51" viewBox="0 0 239 51" fill="none" xmlns="http://www.w3.org/2000/svg">
<path d="M141.639 33.8659C141.639 36.2848 142.351 38.2111 143.731 39.6869C145.153 41.1627 147.161 41.9014 149.67 41.9014C152.18 41.9014 154.187 41.1627 155.568 39.6869C156.99 38.2111 157.701 36.2429 157.701 33.8659C157.701 31.4889 156.99 29.5206 155.568 28.0448C154.187 26.5691 152.222 25.8303 149.67 25.8303C147.119 25.8303 145.153 26.5691 143.731 28.0448C142.351 29.5206 141.639 31.447 141.639 33.8659ZM131.559 0.206055H141.597V21.3192H141.722C142.893 19.8016 144.356 18.7362 146.156 18.1214C147.997 17.4648 149.962 17.1381 152.053 17.1381C154.354 17.1381 156.446 17.6306 158.286 18.5737C160.127 19.4749 161.674 20.7463 162.887 22.3042C164.183 23.8621 165.146 25.7064 165.815 27.7567C166.526 29.7652 166.902 31.8976 166.902 34.1121C166.902 36.531 166.526 38.7455 165.773 40.7539C165.019 42.7624 163.932 44.5263 162.51 46.0021C161.129 47.4377 159.456 48.5852 157.491 49.4043C155.525 50.1832 153.35 50.5936 150.924 50.5936C149.753 50.5936 148.666 50.4294 147.661 50.143C146.616 49.8566 145.696 49.4462 144.776 48.9537C143.94 48.4612 143.186 47.9285 142.517 47.3958C141.89 46.7811 141.388 46.2065 140.97 45.6336H140.845V49.8147H131.601L131.559 0.207731V0.206055Z" fill="#191919"/>
<path d="M75.7611 17.9186H85.3815V22.2639H85.5063C85.7995 21.6491 86.2597 21.0343 86.8445 20.4195C87.4293 19.8048 88.1002 19.2721 88.9361 18.7796C89.7316 18.2871 90.6519 17.9186 91.6968 17.5902C92.7418 17.3038 93.8306 17.1396 95.0424 17.1396C97.3009 17.1396 99.3082 17.5903 101.066 18.5334C102.864 19.4346 104.203 20.912 105.081 22.8786C106.252 20.8283 107.632 19.3525 109.306 18.4915C110.938 17.6305 112.987 17.1798 115.412 17.1798C117.588 17.1798 119.427 17.5484 120.892 18.2871C122.397 18.984 123.61 19.9672 124.446 21.2387C125.324 22.4682 125.951 23.944 126.329 25.6258C126.747 27.306 126.914 29.0698 126.914 30.9962V49.8145H116.875V31.2425C116.875 29.7667 116.54 28.4953 115.871 27.4299C115.244 26.3226 114.115 25.79 112.441 25.79C111.27 25.79 110.307 25.9943 109.513 26.3645C108.76 26.7331 108.133 27.2256 107.631 27.8822C107.171 28.5389 106.835 29.3178 106.626 30.1788C106.459 31.0398 106.375 31.9829 106.375 32.926V49.776H96.3368V32.926C96.3368 32.3514 96.2946 31.6546 96.2525 30.8354C96.2103 30.0163 96.0435 29.2357 95.7924 28.4568C95.5412 27.718 95.0811 27.0631 94.4542 26.5706C93.8693 26.0379 92.9895 25.7917 91.8603 25.7917C90.5642 25.7917 89.5176 26.0379 88.7237 26.5304C87.9282 26.981 87.3012 27.5958 86.8411 28.3747C86.4231 29.1134 86.172 29.9744 86.0456 30.9158C85.9208 31.8589 85.8366 32.8841 85.8366 33.9495V49.8162H75.7982V17.9203H75.7561L75.7611 17.9186Z" fill="#191919"/>
<path d="M47.0669 34.072C47.0669 36.4908 47.7781 38.4591 49.1585 39.9751C50.581 41.4927 52.5884 42.2298 55.098 42.2298C57.6075 42.2298 59.6148 41.4911 60.9952 39.9751C62.4177 38.4574 63.129 36.4908 63.129 34.072C63.129 31.6531 62.4177 29.6848 60.9952 28.1689C59.6148 26.6512 57.6497 25.9142 55.098 25.9142C52.5462 25.9142 50.581 26.6529 49.1585 28.1689C47.7781 29.6446 47.0669 31.6531 47.0669 34.072ZM37.0286 34.072C37.0286 31.4889 37.4887 29.194 38.451 27.1018C39.3713 25.0112 40.6674 23.2474 42.2567 21.7716C43.8882 20.2539 45.8113 19.1065 48.0293 18.3275C50.2456 17.5486 52.6305 17.1382 55.1401 17.1382C57.6497 17.1382 59.9924 17.5486 62.1666 18.3275C64.3829 19.1065 66.3077 20.2958 67.9392 21.7716C69.5707 23.2474 70.8668 25.0096 71.8291 27.1018C72.7494 29.1923 73.2516 31.4889 73.2516 34.072C73.2516 36.655 72.7915 38.9499 71.8291 41.0421C70.9089 43.1327 69.6128 44.8966 67.9392 46.4125C66.3498 47.8883 64.4251 48.9956 62.1666 49.8147C59.9907 50.5937 57.6497 51.0041 55.1401 51.0041C52.6305 51.0041 50.2878 50.5937 48.0293 49.8147C45.8534 49.0358 43.9304 47.8883 42.2567 46.4125C40.6674 44.8949 39.3713 43.1327 38.451 41.0421C37.5308 38.9516 37.0286 36.655 37.0286 34.072Z" fill="#191919"/>
<path d="M27.4502 14.721C26.6143 13.6556 25.4429 12.9169 23.9782 12.4244C22.5557 11.8917 21.1754 11.6454 19.8793 11.6454C19.1259 11.6454 18.332 11.7276 17.5365 11.8917C16.741 12.0559 15.9893 12.3423 15.2781 12.7527C14.5668 13.1212 13.982 13.5719 13.5219 14.1883C13.0618 14.8031 12.8527 15.5418 12.8527 16.4028C12.8527 17.7965 13.3972 18.8619 14.4421 19.6006C15.5292 20.3393 16.8674 20.9943 18.4568 21.4868C20.0882 22.0194 21.8866 22.5521 23.7271 23.0446C25.6097 23.5773 27.3238 24.316 28.9552 25.2591C30.5867 26.2022 31.9671 27.5138 33.0542 29.1136C34.1413 30.7133 34.6435 32.886 34.6435 35.5913C34.6435 38.2966 34.1413 40.429 33.1789 42.3554C32.2165 44.2818 30.8784 45.8815 29.1643 47.153C27.5328 48.4244 25.5676 49.3675 23.3496 49.9822C21.1737 50.597 18.8326 50.8834 16.4056 50.8834C13.3112 50.8834 10.4662 50.4328 7.83021 49.4897C5.1959 48.5885 2.72673 47.0708 0.468262 45.0205L7.91283 37.0252C8.99993 38.4189 10.3381 39.5261 11.9275 40.3051C13.559 41.0438 15.273 41.4123 17.0309 41.4123C17.8669 41.4123 18.7467 41.3302 19.5826 41.166C20.4608 40.9617 21.2563 40.6334 21.9254 40.2649C22.6366 39.8545 23.181 39.3636 23.599 38.7472C24.0591 38.1324 24.2682 37.3937 24.2682 36.5746C24.2682 35.1809 23.7237 34.0736 22.5945 33.2947C21.5074 32.4755 20.1692 31.777 18.4956 31.2041C16.8641 30.6296 15.0658 30.0567 13.141 29.4821C11.2163 28.9075 9.41792 28.1286 7.78643 27.1855C6.15494 26.2424 4.73239 24.971 3.6453 23.3729C2.5582 21.8151 2.056 19.7245 2.056 17.1415C2.056 14.5585 2.55824 12.4679 3.52062 10.5818C4.56558 8.69558 5.90546 7.1377 7.53526 5.86628C9.25102 4.59487 11.1741 3.65179 13.35 3.03703C15.5258 2.38038 17.7843 2.05371 20.1254 2.05371C22.8018 2.05371 25.3956 2.42226 27.9052 3.16098C30.4148 3.89971 32.6733 5.16945 34.6807 6.89147L27.4451 14.7227L27.4502 14.721Z" fill="#191919"/>
<path d="M169.455 17.9188H179.494V23.043H179.618C180.706 21.0747 181.961 19.5989 183.424 18.6559C184.889 17.6307 186.729 17.1382 188.988 17.1382C189.572 17.1382 190.159 17.1784 190.744 17.2203C191.329 17.2605 191.873 17.3425 192.333 17.4665V26.4452C191.622 26.2408 190.911 26.0766 190.199 25.9946C189.53 25.8723 188.819 25.7902 188.066 25.7902C186.141 25.7902 184.636 26.0364 183.507 26.5691C182.377 27.1018 181.541 27.8405 180.913 28.7836C180.328 29.6848 179.95 30.834 179.784 32.1456C179.617 33.4572 179.532 34.8928 179.532 36.4908V49.8147H169.494L169.452 17.9188H169.455Z" fill="#191919"/>
<path d="M218.311 33.8659C218.311 36.2848 217.599 38.2112 216.219 39.687C214.797 41.1628 212.789 41.9015 210.28 41.9015C207.77 41.9015 205.763 41.1628 204.382 39.687C202.96 38.2112 202.249 36.2429 202.249 33.8659C202.249 31.4889 202.96 29.5207 204.382 28.0449C205.763 26.5691 207.728 25.8304 210.28 25.8304C212.831 25.8304 214.797 26.5691 216.219 28.0449C217.642 29.5207 218.311 31.4471 218.311 33.8659ZM228.391 17.8351H218.353V21.3193H218.228C217.057 19.8016 215.594 18.7363 213.794 18.1215C211.953 17.4649 209.988 17.1382 207.896 17.1382C205.596 17.1382 203.504 17.6307 201.664 18.5738C199.823 19.475 198.276 20.7464 197.063 22.3043C195.766 23.8621 194.804 25.7064 194.135 27.7568C193.424 29.7653 193.048 31.8977 193.048 34.1122C193.048 36.531 193.424 38.7455 194.177 40.754C194.931 42.7625 196.018 44.5264 197.44 46.0022C198.82 47.4377 200.494 48.5852 202.459 49.4043C204.425 50.1833 206.6 50.5936 209.026 50.5936C210.197 50.5936 211.284 50.4295 212.289 50.1431C213.334 49.8566 214.254 49.4462 215.174 48.9537C216.01 48.4613 216.763 47.9286 217.433 47.3959C218.06 46.7811 218.562 46.2065 218.98 45.6336H219.104V49.8147H228.349L228.391 17.8367V17.8351Z" fill="#191919"/>
<path d="M229.812 5.12586C229.812 5.61834 229.896 6.10916 230.105 6.56145C230.314 7.01205 230.565 7.42243 230.901 7.75075C231.236 8.07908 231.612 8.36555 232.072 8.56991C232.532 8.77427 232.992 8.85635 233.495 8.85635C233.997 8.85635 234.457 8.77427 234.917 8.56991C235.377 8.36555 235.753 8.11928 236.088 7.75075C236.424 7.42243 236.673 7.01205 236.884 6.56145C237.093 6.11084 237.177 5.61834 237.177 5.12586C237.177 4.63337 237.093 4.14255 236.884 3.69027C236.675 3.23966 236.424 2.82928 236.088 2.50096C235.753 2.17264 235.377 1.88617 234.917 1.722C234.457 1.51764 233.997 1.43557 233.495 1.43557C232.992 1.43557 232.532 1.51764 232.072 1.722C231.612 1.92637 231.236 2.17264 230.901 2.50096C230.565 2.82928 230.316 3.23966 230.105 3.69027C229.896 4.14088 229.812 4.63337 229.812 5.12586ZM228.432 5.12586C228.432 4.42901 228.556 3.81424 228.807 3.23967C229.058 2.6249 229.434 2.13241 229.894 1.6818C230.355 1.2312 230.899 0.862693 231.484 0.616451C232.111 0.370208 232.739 0.206055 233.449 0.206055C234.159 0.206055 234.787 0.32833 235.374 0.616451C236.001 0.862693 236.503 1.2312 236.963 1.6818C237.423 2.13241 237.799 2.6249 238.05 3.23967C238.301 3.81424 238.468 4.46921 238.468 5.12586C238.468 5.7825 238.344 6.43747 238.05 7.05224C237.799 7.62681 237.423 8.1595 236.963 8.61011C236.503 9.06072 236.001 9.38902 235.374 9.67546C234.789 9.92171 234.118 10.044 233.449 10.044C232.78 10.044 232.111 9.92171 231.484 9.67546C230.899 9.42922 230.355 9.06072 229.894 8.61011C229.434 8.1595 229.099 7.62681 228.807 7.05224C228.556 6.43747 228.432 5.82271 228.432 5.12586ZM232.866 4.63338H233.661C233.746 4.63338 233.87 4.59318 233.913 4.5513C233.997 4.5111 234.079 4.46922 234.122 4.38714C234.164 4.30506 234.206 4.18279 234.206 4.05883C234.206 3.93487 234.164 3.81255 234.122 3.77235C234.079 3.69027 233.997 3.65007 233.913 3.60819C233.828 3.56799 233.746 3.56799 233.661 3.52611H232.866V4.63338ZM231.528 2.50096H233.41C233.535 2.50096 233.746 2.50096 233.995 2.54116C234.246 2.58136 234.497 2.62324 234.748 2.74552C235 2.8678 235.209 3.03196 235.375 3.23799C235.542 3.44236 235.627 3.7707 235.627 4.18111C235.627 4.42735 235.584 4.67358 235.502 4.83774C235.418 5.0019 235.335 5.16606 235.209 5.24814C235.084 5.37042 234.957 5.4525 234.833 5.49437C234.708 5.53458 234.539 5.57645 234.373 5.61666L235.711 7.667H234.288L233.075 5.69873H232.866V7.667H231.486L231.528 2.50096Z" fill="#191919"/>
</svg>
