<svg width="88" height="84" viewBox="0 0 88 84" fill="none" xmlns="http://www.w3.org/2000/svg">
<path d="M71.2733 51.776C82.2942 48.7719 87.1523 47.0896 87.5643 43.7937C87.6901 42.695 80.4288 38.1802 65.7801 30.2494C63.0678 28.773 60.8018 27.5542 59.5487 26.8676L59.4457 25.7175C58.0037 10.3192 57.2656 2.54281 52.6135 1.18666C48.3734 -0.0664865 43.5839 4.12212 30.6062 20.4474C29.1813 20.3615 26.7265 20.1555 24.0143 19.9495C8.31273 18.6907 0.32463 18.8566 0.0499674 20.4474C-0.602356 24.224 5.18272 31.8287 17.2164 43.107C16.255 44.7035 15.3109 46.3 14.3324 47.8793C11.088 53.1665 7.74051 58.6426 4.90806 64.3418C4.77073 64.668 4.18707 65.3547 3.77508 65.8525C2.45326 67.4661 1.33745 68.8566 2.00694 70.4874C2.16143 70.8136 2.53909 71.483 3.39741 71.8264C3.63774 71.9122 3.91241 71.9637 4.2214 71.998C12.4613 72.7534 30.692 63.8097 35.7046 61.2519C36.7174 62.1102 37.9534 63.0372 39.2752 64.0328C41.1806 65.4576 43.3436 67.0885 44.2191 68.1013C45.6439 69.7321 47.1031 71.5517 48.5279 73.3198C52.6135 78.3839 55.8579 82.4181 58.7247 83.5339C59.7375 83.9115 60.6988 83.9459 61.6258 83.5339C64.2351 82.3837 65.4024 78.8646 63.291 64.7881C63.2223 64.3246 63.0335 63.4148 62.7931 62.3334C62.4155 60.6682 61.4885 56.4625 61.5228 54.9346C62.9476 54.0935 67.7371 52.7888 71.2905 51.8103L71.2733 51.776ZM58.6732 63.2089C58.8792 64.1702 59.068 64.9598 59.1195 65.389C60.613 75.2425 60.201 78.4526 59.8749 79.4483C58.1239 78.5041 54.3473 73.8177 51.7895 70.6591C50.3303 68.8566 48.8369 67.0026 47.3777 65.3203C46.1932 63.9641 44.0646 62.3677 41.7986 60.6511C40.1335 59.3979 38.3997 58.1105 37.5242 57.2178C37.4899 57.1835 37.4384 57.1835 37.4212 57.1491C37.3182 57.0633 37.198 56.9946 37.0779 56.9259C36.9577 56.8401 36.8547 56.7886 36.7346 56.7371C36.5972 56.6856 36.4771 56.6856 36.3569 56.6513C36.2196 56.6169 36.0822 56.5998 35.9449 56.617C35.8247 56.617 35.7046 56.6513 35.5672 56.6856C35.4299 56.7199 35.2926 56.7543 35.1381 56.823C35.1037 56.8573 35.0694 56.8229 35.0351 56.8573C28.8723 60.1704 15.4482 66.4018 7.75768 67.6378C8.13534 67.1399 8.47867 66.6765 8.70183 66.213C11.4313 60.6854 14.7444 55.3123 17.9202 50.0766C19.242 47.9308 20.5466 45.785 21.8341 43.622C22.4349 42.6092 22.0916 41.3217 21.1131 40.7381C20.9586 40.6522 20.787 40.6179 20.6153 40.5664C20.581 40.532 20.581 40.4805 20.5295 40.4634C11.7918 32.3093 6.4187 25.9406 4.75356 22.8163C8.99366 22.9708 18.2292 23.7261 23.6881 24.1553C27.4647 24.4471 30.4345 24.6875 31.4645 24.739H31.4988C31.4988 24.739 31.5675 24.739 31.5846 24.739C31.8078 24.739 32.031 24.7046 32.237 24.636C32.3228 24.6016 32.3915 24.5673 32.4773 24.533C32.6146 24.4643 32.7519 24.3785 32.8893 24.2755C32.9751 24.2068 33.0266 24.1381 33.0953 24.0694C33.1296 24.0351 33.1811 24.0008 33.2326 23.9493C37.0436 19.1256 48.6652 4.4311 51.429 5.25509C53.4031 5.82158 54.3301 16.1558 55.2571 26.1294L55.4631 28.3954C55.4631 28.3954 55.5146 28.4984 55.5146 28.5671C55.5489 28.7044 55.6004 28.8246 55.6519 28.9791C55.7034 29.0992 55.7549 29.2022 55.8064 29.3052C55.8923 29.4426 55.9609 29.5112 56.0639 29.6314C56.1497 29.7344 56.2527 29.8202 56.3729 29.9061C56.4244 29.9404 56.4587 29.9919 56.5102 30.0262C57.1454 30.3867 60.0465 31.966 63.7888 33.9745C69.076 36.8413 77.9511 41.6479 82.0538 43.9482C79.3587 45.2356 73.814 46.7634 70.1747 47.7419C63.1365 49.6817 59.3942 50.7632 58.0381 52.4112C56.8536 53.836 57.1797 56.3766 58.6904 63.2432L58.6732 63.2089Z" fill="#FFF16C"/>
</svg>
