<svg width="62" height="72" viewBox="0 0 62 72" fill="none" xmlns="http://www.w3.org/2000/svg">
<path d="M11.3956 26.8404C13.0724 25.8462 14.7969 26.5984 15.8683 28.032C17.2699 29.9051 19.3137 31.2345 21.251 32.4745C23.647 34.0086 25.9623 35.6732 28.3069 37.2893C33.4181 40.8157 38.4082 44.4351 43.2259 48.3637C44.9284 49.7527 44.822 52.687 43.5745 54.277C42.2682 55.9415 39.7255 56.6975 37.8505 55.4351C32.3981 51.7709 27.2502 47.7456 22.106 43.6532C17.5708 40.0448 13.1421 36.5445 10.2251 31.3797C9.34814 29.8269 9.86549 27.7527 11.3992 26.8404H11.3956Z" fill="#0F0BCB"/>
<path d="M47.6547 1.32875C50.6781 6.72446 53.4998 12.1947 55.9618 17.8808C57.224 20.7965 58.3541 23.7792 59.4218 26.7731C59.9355 28.2105 60.3942 29.6702 60.8492 31.1262C61.3812 32.8205 62.1077 34.5744 61.9866 36.373C61.6894 40.7558 56.6186 41.9511 54.1676 38.5216C53.1512 37.1028 52.8466 35.1665 52.3586 33.502C51.9624 32.1502 51.5404 30.806 51.1368 29.458C50.2599 26.5385 49.3315 23.6377 48.4216 20.7295C46.6163 14.9465 44.6863 9.18586 42.4958 3.54065C41.3107 0.483454 46.1026 -1.42683 47.651 1.33619L47.6547 1.32875Z" fill="#0F0BCB"/>
<path d="M3.30875 59.1024C9.76654 59.2253 16.2537 59.7503 22.5721 61.1765C25.6138 61.8617 28.6666 62.5916 31.6313 63.5746C34.4639 64.513 38.1808 65.6078 39.2926 68.7395C39.6228 69.6667 39.0578 70.6386 38.3276 71.145C35.8876 72.8393 32.2221 71.5919 29.6133 71.0035C26.5605 70.3183 23.5261 69.5773 20.4513 68.9927C14.4521 67.8569 8.46765 66.6467 2.41713 65.82C-1.38049 65.3024 -0.415493 59.0317 3.31242 59.0987L3.30875 59.1024Z" fill="#0F0BCB"/>
</svg>
