<svg width="263" height="67" viewBox="0 0 263 67" fill="none" xmlns="http://www.w3.org/2000/svg">
<path d="M251.484 9.91455L245.253 30.1792L243.942 35.1831C243.622 33.9185 242.951 31.3834 242.63 30.1792L236.939 9.91455H225.695L238.983 46.0772L231.49 66.5524H241.922L262.168 9.91455H251.48H251.484Z" fill="#77DD77"/>
<path d="M6.13165 9.88937L9.15868 0.657227H16.2165V9.88937L24.1762 9.86016V17.4087H16.2165V34.0998C16.2342 38.7217 17.6987 40.6469 20.8218 40.6352C22.2784 40.6293 23.6371 40.4871 24.6781 40.2766L24.7075 48.0707C23.3214 48.628 20.4375 48.9807 17.4536 48.9924C6.34927 49.0333 6.2434 39.4465 6.22772 35.1695L6.16107 17.4419L0.955917 17.4613L0.928467 13.1687L6.13362 9.88546L6.13165 9.88937ZM36.798 32.1922C37.0744 38.7451 40.1132 41.7984 45.6908 41.7984C50.6901 41.7984 54.5602 40.7345 57.8558 39.2186V46.8159C54.6641 48.1954 50.5392 49.0236 45.7496 49.0236C33.471 49.0236 27.0111 42.0809 27.0111 29.6415C27.0111 18.6051 33.3965 9.08655 44.7086 9.08655C54.0779 9.08655 60.1849 15.7077 60.1849 28.1237C60.1849 29.6416 60.1162 31.0893 59.9065 32.1941H36.796L36.798 32.1922ZM50.6783 25.0879C50.747 21.0875 49.1511 16.189 44.0852 16.189C39.0192 16.189 37.0763 21.2921 36.798 25.0879H50.6783ZM65.5351 12.364C69.2326 10.5752 72.9399 9.15477 79.5351 9.15477C91.5413 9.15477 94.8035 16.7423 94.8035 25.158V48.3338H87.2889L85.5029 44.3335H85.2951C83.0738 47.3673 79.3273 49.0917 75.024 49.0917C67.8759 49.0917 63.4334 43.7801 63.4334 37.5721C63.4334 27.7086 72.2479 23.0867 84.5305 23.0867C84.5305 19.2929 83.8384 16.3955 78.8078 16.3955C75.269 16.3955 72.1322 17.1749 68.7307 18.8428L65.5331 12.362L65.5351 12.364ZM84.8089 29.6415C79.2567 29.6415 73.4967 30.951 73.4967 36.5394C73.4967 40.1948 75.7866 41.7809 78.3549 41.7809C80.7839 41.7809 84.8089 40.0564 84.8089 35.1598V29.6415ZM131.712 15.5693C134.904 10.8792 138.86 9.15477 143.163 9.15477C149.896 9.15477 155.101 13.9131 155.101 25.0196V48.3338H145.038V26.6058C145.038 21.0875 143.51 17.4321 139.417 17.4321C136.572 17.4321 133.379 19.6398 133.379 25.0196V48.3338H123.315V25.6413C123.315 21.0876 121.859 17.4321 117.834 17.4321C114.989 17.4321 111.656 20.0529 111.656 25.2262V48.3338H101.593V9.98289H109.578L110.544 15.0861H110.752C112.556 12.327 115.957 9.15477 121.717 9.15477C126.436 9.15477 130.046 11.6372 131.573 15.5693H131.712ZM182.913 9.91272H193.531L180.344 48.3318H170.42L157.442 9.91272H168.476L173.542 28.5367C174.375 31.8473 175.069 35.0214 175.692 38.332H175.9C176.525 35.0214 177.219 31.9174 178.051 28.5367L182.909 9.91272H182.913ZM228.691 37.802L218.474 9.91272C216.877 9.38467 214.689 9.0846 212.546 9.0846C202.067 9.0846 194.225 16.3955 194.225 29.2948C194.225 42.194 201.72 49.0917 212.13 49.0917C218.678 49.0917 225.705 45.8124 228.693 37.8039L228.691 37.802ZM212.267 41.5724C207.27 41.5724 204.633 35.9158 204.633 29.0882C204.633 23.2251 206.645 16.604 212.336 16.604C217.61 16.604 219.762 23.0185 219.762 29.02C219.762 35.8496 217.126 41.5743 212.267 41.5743V41.5724Z" fill="#191919"/>
</svg>
