<svg width="32" height="33" viewBox="0 0 32 33" fill="none" xmlns="http://www.w3.org/2000/svg">
<path fill-rule="evenodd" clip-rule="evenodd" d="M16 32.2095C7.16344 32.2095 0 25.046 0 16.2095C0 7.37292 7.16344 0.209473 16 0.209473C24.8366 0.209473 32 7.37292 32 16.2095C32 25.046 24.8366 32.2095 16 32.2095ZM16.6919 12.2168C15.2589 12.8129 12.3949 14.0465 8.09992 15.9178C7.40248 16.1951 7.03714 16.4664 7.00388 16.7317C6.94767 17.1801 7.50915 17.3567 8.27374 17.5971C8.37774 17.6298 8.4855 17.6637 8.59598 17.6996C9.34822 17.9441 10.3601 18.2302 10.8862 18.2415C11.3633 18.2518 11.8959 18.0551 12.4839 17.6514C16.4968 14.9425 18.5683 13.5734 18.6983 13.5438C18.7901 13.523 18.9172 13.4968 19.0034 13.5734C19.0895 13.65 19.0811 13.795 19.0719 13.8339C19.0163 14.071 16.8123 16.1201 15.6717 17.1804C15.3161 17.511 15.0639 17.7455 15.0124 17.7991C14.8969 17.919 14.7791 18.0325 14.666 18.1416C13.9672 18.8153 13.4431 19.3205 14.695 20.1455C15.2967 20.5419 15.7781 20.8698 16.2584 21.1969C16.7829 21.5541 17.306 21.9103 17.9829 22.354C18.1554 22.4671 18.3201 22.5845 18.4805 22.6989C19.0909 23.134 19.6393 23.525 20.3168 23.4627C20.7105 23.4264 21.1172 23.0563 21.3237 21.9522C21.8118 19.343 22.7712 13.6896 22.9929 11.3599C23.0123 11.1558 22.9879 10.8946 22.9683 10.7799C22.9486 10.6653 22.9076 10.5019 22.7586 10.381C22.582 10.2377 22.3095 10.2075 22.1877 10.2096C21.6335 10.2194 20.7834 10.5151 16.6919 12.2168Z" fill="white"/>
</svg>
