<svg width="32" height="33" viewBox="0 0 32 33" fill="none" xmlns="http://www.w3.org/2000/svg">
<path fill-rule="evenodd" clip-rule="evenodd" d="M16 0.209473C7.16345 0.209473 0 7.37292 0 16.2095C0 25.046 7.16345 32.2095 16 32.2095C24.8365 32.2095 32 25.046 32 16.2095C32 7.37292 24.8365 0.209473 16 0.209473ZM19.1182 8.20947C19.1182 8.44723 19.1404 8.68137 19.1813 8.90798C19.3781 9.95554 19.998 10.8545 20.8592 11.4154C21.4605 11.8092 22.1732 12.0358 22.9415 12.0358L22.9413 12.6487V14.7848C21.516 14.7848 20.1946 14.3279 19.1182 13.5552V19.1461C19.1182 21.9359 16.8466 24.2095 14.0591 24.2095C12.9827 24.2095 11.9805 23.8676 11.1602 23.2918C9.85367 22.3742 9 20.8586 9 19.1461C9 16.3525 11.2679 14.0827 14.0554 14.0864C14.2892 14.0864 14.5157 14.105 14.7384 14.1347V14.7848L14.7302 14.7887L14.7383 14.7885V16.9431C14.5231 16.8763 14.2929 16.8354 14.0554 16.8354C12.7823 16.8354 11.7467 17.8719 11.7467 19.1461C11.7467 20.034 12.2515 20.8029 12.9864 21.193C12.9933 21.2024 13.0002 21.2117 13.0072 21.221L13.0195 21.2373C13.0111 21.2209 13.0013 21.2049 12.9901 21.1893C13.313 21.3601 13.6768 21.4567 14.0628 21.4567C15.3062 21.4567 16.3233 20.4649 16.3678 19.2315L16.3715 8.20947H19.1182Z" fill="white"/>
</svg>
