<svg width="1435" height="154" viewBox="0 0 1435 154" fill="none" xmlns="http://www.w3.org/2000/svg">
<path d="M1407.21 80.943C1407.1 81.0918 1406.99 81.2142 1406.89 81.346C1406.02 82.6022 1405.1 83.8151 1404.07 84.9432C1402.56 86.5911 1400.81 87.9113 1398.72 88.7117C1396.54 89.5442 1394.28 89.8606 1391.95 89.7306C1389.83 89.612 1387.84 89.0376 1386 87.998C1383.78 86.7399 1381.95 85.028 1380.65 82.8056C1379.74 81.2425 1379.2 79.5456 1379.06 77.7244C1378.91 75.8712 1379.02 74.0387 1379.63 72.2759C1380.37 70.1384 1381.62 68.3492 1383.37 66.899C1385.24 65.3396 1387.38 64.3735 1389.77 63.9705C1392.2 63.5618 1394.59 63.7501 1396.93 64.4903C1398.71 65.0534 1400.32 65.9555 1401.83 67.0535C1403.31 68.1383 1404.69 69.3549 1406.04 70.596C1406.32 70.854 1406.61 71.1045 1406.91 71.3719C1407.14 71.1215 1407.36 70.8729 1407.58 70.6261C1409 69.0517 1410.55 67.6241 1412.34 66.4904C1414.06 65.4074 1415.94 64.7313 1417.95 64.4432C1419.79 64.1795 1421.63 64.1192 1423.48 64.3038C1426.88 64.6428 1429.83 65.9254 1432.13 68.5187C1433.42 69.9613 1434.21 71.6544 1434.62 73.5472C1435.26 76.5115 1435.1 79.4326 1434.09 82.2745C1433.29 84.5289 1431.82 86.2898 1429.8 87.5949C1428.27 88.5856 1426.58 89.1336 1424.81 89.4236C1422.34 89.8248 1419.91 89.6873 1417.5 88.9528C1415.88 88.4575 1414.41 87.6929 1413.08 86.6589C1412.49 86.1994 1411.98 85.6193 1411.45 85.0901C1410.11 83.7737 1408.78 82.4534 1407.44 81.137C1407.38 81.0767 1407.31 81.024 1407.22 80.9411L1407.21 80.943ZM1421.38 69.9707C1420.86 69.9971 1420.33 70.0159 1419.8 70.0498C1417.62 70.1967 1415.7 71.0141 1414.15 72.5471C1413.09 73.5886 1412.13 74.7299 1411.13 75.8298C1410.8 76.1857 1410.81 76.1857 1411.09 76.5831C1412.29 78.263 1413.64 79.8074 1415.23 81.1313C1416.49 82.1841 1417.9 82.9883 1419.46 83.478C1421.26 84.0392 1423.09 84.0241 1424.88 83.4591C1426.49 82.9506 1427.65 81.9054 1428.18 80.2537C1428.74 78.4608 1428.87 76.617 1428.7 74.7525C1428.62 73.9012 1428.35 73.1008 1427.83 72.4172C1427.01 71.3418 1425.89 70.7128 1424.59 70.3926C1423.54 70.1327 1422.47 70.0159 1421.38 69.9726V69.9707ZM1384.9 76.9805C1384.93 77.3835 1384.94 77.7903 1385.01 78.1896C1385.06 78.5098 1385.15 78.8299 1385.27 79.1331C1385.82 80.5569 1386.85 81.5626 1388.17 82.2726C1389.35 82.9111 1390.62 83.2463 1391.96 83.3744C1394.25 83.5929 1396.28 82.9582 1398.14 81.6662C1400.2 80.2255 1401.8 78.329 1403.23 76.2818C1403.31 76.1707 1403.3 76.0991 1403.2 76.003C1402.28 75.116 1401.37 74.2195 1400.45 73.3344C1399.2 72.1309 1397.82 71.129 1396.2 70.4774C1394.26 69.6939 1392.28 69.4566 1390.22 69.967C1388.72 70.3418 1387.46 71.1158 1386.48 72.3174C1385.37 73.6715 1384.89 75.2384 1384.89 76.9805H1384.9Z" fill="#1B17E1"/>
<path d="M1342.71 77.4659C1343.1 77.0754 1343.1 76.4422 1342.71 76.0517L1336.34 69.6877C1335.95 69.2972 1335.32 69.2972 1334.93 69.6877C1334.54 70.0782 1334.54 70.7114 1334.93 71.1019L1340.59 76.7588L1334.93 82.4156C1334.54 82.8062 1334.54 83.4393 1334.93 83.8299C1335.32 84.2204 1335.95 84.2204 1336.34 83.8299L1342.71 77.4659ZM0 77.7588H1342V75.7588H0V77.7588Z" fill="#1B17E1"/>
<circle cx="23.5" cy="141.241" r="12" fill="#1B17E1"/>
<circle cx="483.5" cy="141.241" r="12" fill="#1B17E1"/>
<line x1="482.5" y1="143.241" x2="482.5" y2="77.2412" stroke="#1B17E1" stroke-width="2"/>
<line x1="252.5" y1="78.2412" x2="252.5" y2="12.2412" stroke="#1B17E1" stroke-width="2"/>
<line x1="712.5" y1="78.2412" x2="712.5" y2="12.2412" stroke="#1B17E1" stroke-width="2"/>
<line x1="942.5" y1="143.241" x2="942.5" y2="77.2412" stroke="#1B17E1" stroke-width="2"/>
<circle cx="253.5" cy="12.2412" r="12" fill="#1B17E1"/>
<circle cx="943.5" cy="141.241" r="12" fill="#1B17E1"/>
<circle cx="713.5" cy="12.2412" r="12" fill="#1B17E1"/>
<line x1="1173.5" y1="78.2412" x2="1173.5" y2="12.2412" stroke="#1B17E1" stroke-width="2"/>
<circle cx="1174.5" cy="12.2412" r="12" fill="#1B17E1"/>
<path d="M1342.71 77.4659C1343.1 77.0754 1343.1 76.4422 1342.71 76.0517L1336.34 69.6877C1335.95 69.2972 1335.32 69.2972 1334.93 69.6877C1334.54 70.0782 1334.54 70.7114 1334.93 71.1019L1340.59 76.7588L1334.93 82.4156C1334.54 82.8062 1334.54 83.4393 1334.93 83.8299C1335.32 84.2204 1335.95 84.2204 1336.34 83.8299L1342.71 77.4659ZM0 77.7588H1342V75.7588H0V77.7588Z" fill="#1B17E1"/>
<line x1="22.5" y1="143.241" x2="22.5" y2="77.2412" stroke="#1B17E1" stroke-width="2"/>
</svg>
