<svg width="157" height="58" viewBox="0 0 157 58" fill="none" xmlns="http://www.w3.org/2000/svg">
<path d="M5.68726 14.4423V5.604H19.3535V14.4396L30.2218 14.4437V25.221H19.3755V45.2137H30.989V55.9706H5.68589V25.2196H0.468262V14.4396L5.68589 14.4423H5.68726Z" fill="#191919"/>
<path d="M131.627 14.4423V5.604H145.293V14.4396L156.161 14.4437V25.221H145.315V45.2137H156.928V55.9706H131.625V25.2196H126.408V14.4396L131.625 14.4423H131.627Z" fill="#191919"/>
<path d="M61.9937 27.2189H75.2598C75.2598 27.2189 74.3428 21.9635 69.5349 18.054C64.7269 14.1446 59.222 13.0172 53.8036 13.1908C48.3866 13.3643 41.922 14.5135 38.1163 20.6175C34.4358 26.5207 37.6888 31.9578 39.2451 33.5101C41.2483 35.5079 43.6653 37.8596 51.9681 39.6838C60.271 41.508 60.7508 42.332 61.1894 42.8554C61.6266 43.376 61.6693 44.2273 61.4795 44.7001C61.2898 45.1729 60.8938 45.8343 59.7541 46.2593C58.6129 46.6842 56.6661 46.8099 55.6514 46.7785C54.6368 46.7471 53.53 46.7307 52.1359 46.1964C50.7432 45.6607 48.7785 44.2765 48.3206 42.3867H34.6379C34.6379 42.3867 35.3831 47.2021 39.23 50.9954C43.0769 54.7874 47.2592 56.2358 51.1391 56.8343C55.0176 57.4328 60.6395 57.1814 63.6807 56.3615C66.7219 55.543 70.5385 54.2995 73.6086 50.0813C76.6814 45.8644 75.5238 40.8754 74.956 39.442C74.3854 38.0085 72.961 35.0023 68.7484 32.9567C64.5372 30.9111 56.8888 29.3697 56.475 29.2727C56.0625 29.1784 52.7848 28.4856 51.7715 27.7764C50.7569 27.0672 50.6854 26.3826 50.7487 25.5655C50.8119 24.747 51.5763 23.9408 52.514 23.6224C53.5768 23.263 54.8898 23.0553 56.5355 23.2288C58.184 23.4051 60.8484 23.9708 61.991 27.2203L61.9937 27.2189Z" fill="#191919"/>
<path d="M80.6492 0.0454102H94.3333V29.2085H98.77L107.995 14.4288H122.445L110.394 34.0076L123.676 55.9516H108.824L99.5371 40.7784H94.3429V55.9516H80.6492V0.0454102Z" fill="#191919"/>
</svg>
