<svg width="88" height="84" viewBox="0 0 88 84" fill="none" xmlns="http://www.w3.org/2000/svg">
<path d="M16.728 51.5033C5.70717 48.4992 0.849075 46.8169 0.43708 43.521C0.311195 42.4223 7.57258 37.9075 22.2212 29.9767C24.9335 28.5003 27.1995 27.2815 28.4526 26.5949L28.5556 25.4448C29.9976 10.0465 30.7358 2.2701 35.3879 0.913955C39.628 -0.339192 44.4174 3.84941 57.3952 20.1747C58.82 20.0888 61.2748 19.8828 63.9871 19.6768C79.6886 18.4179 87.6767 18.5839 87.9514 20.1747C88.6037 23.9513 82.8186 31.556 70.785 42.8343C71.7463 44.4308 72.6904 46.0273 73.6689 47.6066C76.9134 52.8938 80.2608 58.3699 83.0933 64.0691C83.2306 64.3953 83.8143 65.082 84.2263 65.5798C85.5481 67.1934 86.6639 68.5839 85.9944 70.2147C85.8399 70.5408 85.4622 71.2103 84.6039 71.5537C84.3636 71.6395 84.0889 71.691 83.7799 71.7253C75.5401 72.4807 57.3094 63.537 52.2968 60.9792C51.284 61.8375 50.048 62.7645 48.7262 63.7601C46.8207 65.1849 44.6577 66.8158 43.7822 67.8286C42.3574 69.4594 40.8983 71.279 39.4735 73.0471C35.3879 78.1112 32.1434 82.1453 29.2766 83.2612C28.2638 83.6388 27.3025 83.6732 26.3755 83.2612C23.7662 82.111 22.5989 78.5919 24.7104 64.5154C24.779 64.0519 24.9679 63.1421 25.2082 62.0606C25.5859 60.3955 26.5128 56.1897 26.4785 54.6619C25.0537 53.8208 20.2643 52.5161 16.7108 51.5376L16.728 51.5033ZM29.3281 62.9362C29.1221 63.8975 28.9333 64.6871 28.8818 65.1163C27.3883 74.9698 27.8003 78.1799 28.1265 79.1756C29.8775 78.2314 33.6541 73.545 36.2119 70.3864C37.671 68.5839 39.1645 66.7299 40.6236 65.0476C41.8081 63.6914 43.9367 62.095 46.2027 60.3784C47.8678 59.1252 49.6016 57.8377 50.4771 56.9451C50.5115 56.9108 50.563 56.9108 50.5801 56.8764C50.6831 56.7906 50.8033 56.7219 50.9235 56.6532C51.0436 56.5674 51.1466 56.5159 51.2668 56.4644C51.4041 56.4129 51.5243 56.4129 51.6444 56.3786C51.7818 56.3442 51.9191 56.3271 52.0564 56.3443C52.1766 56.3443 52.2968 56.3786 52.4341 56.4129C52.5714 56.4472 52.7088 56.4816 52.8633 56.5503C52.8976 56.5846 52.9319 56.5502 52.9663 56.5846C59.129 59.8977 72.5531 66.1291 80.2437 67.3651C79.866 66.8672 79.5227 66.4038 79.2995 65.9403C76.5701 60.4127 73.2569 55.0396 70.0812 49.8039C68.7593 47.6581 67.4547 45.5123 66.1672 43.3493C65.5664 42.3365 65.9097 41.049 66.8882 40.4653C67.0427 40.3795 67.2144 40.3452 67.386 40.2937C67.4204 40.2593 67.4204 40.2078 67.4719 40.1907C76.2096 32.0366 81.5826 25.6679 83.2478 22.5436C79.0077 22.6981 69.7722 23.4534 64.3132 23.8826C60.5366 24.1744 57.5669 24.4148 56.5369 24.4663H56.5025C56.5025 24.4663 56.4339 24.4663 56.4167 24.4663C56.1935 24.4663 55.9704 24.4319 55.7644 24.3633C55.6786 24.3289 55.6099 24.2946 55.5241 24.2603C55.3867 24.1916 55.2494 24.1058 55.1121 24.0028C55.0262 23.9341 54.9747 23.8654 54.9061 23.7967C54.8717 23.7624 54.8202 23.7281 54.7687 23.6766C50.9578 18.8529 39.3361 4.1584 36.5724 4.98238C34.5982 5.54887 33.6712 15.8831 32.7442 25.8567L32.5382 28.1227C32.5382 28.1227 32.4867 28.2257 32.4867 28.2944C32.4524 28.4317 32.4009 28.5519 32.3494 28.7064C32.2979 28.8265 32.2464 28.9295 32.1949 29.0325C32.1091 29.1699 32.0404 29.2385 31.9374 29.3587C31.8516 29.4617 31.7486 29.5475 31.6284 29.6334C31.5769 29.6677 31.5426 29.7191 31.4911 29.7535C30.8559 30.114 27.9548 31.6933 24.2125 33.7018C18.9253 36.5686 10.0503 41.3752 5.94749 43.6755C8.64262 44.9629 14.1874 46.4907 17.8266 47.4692C24.8649 49.409 28.6071 50.4905 29.9633 52.1385C31.1478 53.5633 30.8216 56.1039 29.311 62.9705L29.3281 62.9362Z" fill="#FFF16C"/>
</svg>
