<svg width="2664" height="1312" viewBox="0 0 2664 1312" fill="none" xmlns="http://www.w3.org/2000/svg">
<path d="M122.413 646.089C119.993 525.348 118.983 398.405 176.334 292.091C233.661 185.799 -70.5005 160.121 249.976 189.303C570.452 218.486 581.1 642.96 594.346 884.909C607.593 1126.86 714.237 1163.46 810.274 1163.46C906.31 1163.46 1137.36 1027.67 965.211 704.334C793.067 381 1035 172.304 1035 172.304C1035 172.304 1130.5 72.5015 1329.5 108.001C1528.5 143.5 1586 290 1586 439.999C1586 589.999 1449.61 719.317 1410 884.91C1370.4 1050.5 1431 1199.5 1623 1211.5C1815 1223.5 1977 948.501 2194.96 915.682C2412.92 882.864 2586 1096.61 2586 1096.61" stroke="#1B17E1" stroke-width="200" stroke-miterlimit="10"/>
</svg>
