<svg width="430" height="363" viewBox="0 0 430 363" fill="none" xmlns="http://www.w3.org/2000/svg">
<path d="M-125.55 -312.263C-82.1885 -346.055 -36.1814 -381.024 18.212 -389.092C72.5905 -397.162 136.782 -367.26 146.29 -313.102C153.339 -272.915 128.938 -233.481 98.9868 -205.775C69.0359 -178.069 32.7838 -157.524 4.60772 -128.033C-11.5767 -111.1 -25.1893 -90.4941 -28.3438 -67.2774C-31.4983 -44.0608 -22.0686 -18.1402 -1.53828 -6.8615C26.1561 8.35557 60.6831 -7.33465 85.5773 -26.8002C127.684 -59.7344 160.374 -103.657 203.407 -135.387C246.44 -167.118 306.979 -184.935 353.027 -157.76C403.991 -127.69 413.701 -53.1313 387.243 -0.194246C360.787 52.7279 308.149 87.3656 254.905 113.19C201.661 139.014 144.849 158.958 97.4464 194.383C64.7776 218.793 35.2937 258.608 47.6703 297.455C57.9756 329.799 94.7847 347.616 128.732 346.941C162.68 346.266 194.489 331.299 225.111 316.619C273.744 293.307 322.377 269.996 370.997 246.668C400.814 232.375 431.224 217.894 463.954 213.161C496.682 208.444 532.715 214.916 556.507 237.899C597.18 277.211 584.973 349.46 545.782 390.242C506.592 431.025 449.406 448.058 394.708 462.47C340.009 476.882 282.682 491.51 240.581 529.275C209.614 557.032 188.976 602.68 206.088 640.591C222.262 676.426 264.183 691.436 301.813 702.831C381.817 727.055 461.82 751.279 541.822 775.517" stroke="#1B17E1" stroke-width="150" stroke-miterlimit="10"/>
</svg>
