<svg width="1920" height="349" viewBox="0 0 1920 349" fill="none" xmlns="http://www.w3.org/2000/svg">
<path d="M-271.314 343.74C-274.004 209.528 -275.127 68.4214 -211.377 -49.7551C-147.653 -167.906 4.6832 -249.728 124.505 -189.138C213.405 -144.166 254.852 -38.7862 265.246 60.2992C275.64 159.385 262.817 260.324 279.297 358.548C288.751 414.959 309.148 471.71 349.942 511.825C390.735 551.94 455.217 571.396 507.293 547.735C577.546 515.821 597.342 425.354 595.67 348.206C592.824 217.703 554.72 89.5496 555.582 -41.0061C556.444 -171.562 610.113 -316.011 730.587 -366.338C863.911 -422.044 1023.93 -332.021 1088.77 -202.875C1153.59 -73.756 1144.37 79.8343 1117.03 221.724C1089.69 363.615 1045.63 503.886 1045.6 648.387C1045.58 747.969 1080.34 863.847 1174.41 896.441C1252.73 923.576 1341.4 877.637 1389.71 810.257C1438.03 742.876 1455.26 658.782 1471.33 577.429C1496.84 448.232 1522.36 319.034 1547.82 189.836C1563.46 110.626 1579.6 29.9782 1618.2 -40.9538C1656.83 -111.86 1722.17 -172.868 1801.91 -185.795C1938.26 -207.863 2061.71 -78.3524 2084.17 57.9227C2106.63 194.198 2056.33 330.943 2004.54 458.992C1952.75 587.04 1897.54 720.547 1909.85 858.102C1918.86 959.251 1977.96 1066.35 2077.12 1088.32C2170.85 1109.08 2261.5 1049.04 2338.81 992.105C2503.16 871.056 2667.51 750.006 2831.88 628.983" stroke="#1B17E1" stroke-width="200" stroke-miterlimit="10"/>
</svg>
