<svg width="829" height="1314" viewBox="0 0 829 1314" fill="none" xmlns="http://www.w3.org/2000/svg">
<path d="M46.2601 153.74C89.6215 119.948 135.629 84.9792 190.022 76.911C244.4 68.8407 308.592 98.7429 318.1 152.901C325.149 193.088 300.748 232.522 270.797 260.228C240.846 287.934 204.594 308.479 176.418 337.969C160.233 354.903 146.621 375.509 143.466 398.726C140.312 421.942 149.741 447.863 170.272 459.141C197.966 474.358 232.493 458.668 257.387 439.203C299.494 406.269 332.184 362.346 375.217 330.616C418.25 298.885 478.789 281.068 524.837 308.243C575.801 338.313 585.511 412.872 559.053 465.809C532.597 518.731 479.959 553.369 426.715 579.193C373.471 605.017 316.659 624.961 269.256 660.386C236.588 684.796 207.104 724.611 219.48 763.458C229.786 795.802 266.595 813.619 300.542 812.944C334.49 812.269 366.299 797.302 396.921 782.622C445.554 759.31 494.187 735.999 542.807 712.67C572.624 698.378 603.034 683.897 635.764 679.164C668.492 674.447 704.525 680.919 728.317 703.902C768.99 743.214 756.783 815.463 717.592 856.245C678.402 897.028 621.216 914.061 566.518 928.473C511.819 942.885 454.492 957.513 412.39 995.278C381.423 1023.04 360.786 1068.68 377.898 1106.59C394.072 1142.43 435.993 1157.44 473.623 1168.83C553.627 1193.06 633.63 1217.28 713.632 1241.52" stroke="#1B17E1" stroke-width="150" stroke-miterlimit="10"/>
</svg>
