<svg width="63" height="72" viewBox="0 0 63 72" fill="none" xmlns="http://www.w3.org/2000/svg">
<path d="M11.4169 44.6839C13.0968 45.6676 14.8246 44.9234 15.8979 43.5048C17.3022 41.6515 19.3497 40.3362 21.2906 39.1092C23.6911 37.5912 26.0106 35.9442 28.3596 34.3451C33.4803 30.8559 38.4797 27.2746 43.3063 23.3874C45.0119 22.0131 44.9053 19.1097 43.6555 17.5364C42.3468 15.8894 39.7994 15.1414 37.9209 16.3905C32.4584 20.0161 27.3009 23.999 22.1472 28.0483C17.6036 31.6186 13.1667 35.082 10.2442 40.1925C9.36568 41.7289 9.88399 43.7812 11.4206 44.6839H11.4169Z" fill="#FFF16C"/>
<path d="M47.7431 69.9265C50.7721 64.5876 53.599 59.1751 56.0656 53.5488C57.3301 50.6638 58.4623 47.7125 59.5321 44.7502C60.0467 43.328 60.5062 41.8836 60.962 40.443C61.495 38.7665 62.2229 37.0311 62.1016 35.2515C61.8038 30.9148 56.7236 29.7321 54.268 33.1255C53.2498 34.5293 52.9446 36.4453 52.4557 38.0923C52.0587 39.4297 51.636 40.7599 51.2316 42.0937C50.3531 44.9823 49.423 47.8525 48.5114 50.7302C46.7028 56.4522 44.7692 62.1521 42.5746 67.7379C41.3873 70.7629 46.1881 72.653 47.7394 69.9191L47.7431 69.9265Z" fill="#FFF16C"/>
<path d="M3.31482 12.7615C9.78459 12.6399 16.2838 12.1204 22.6139 10.7093C25.6613 10.0313 28.7197 9.30914 31.6899 8.33643C34.5278 7.40794 38.2516 6.32469 39.3654 3.22601C39.6963 2.30857 39.1302 1.34691 38.3986 0.845815C35.9541 -0.830639 32.2818 0.403676 29.6681 0.985829C26.6097 1.66378 23.5696 2.397 20.4891 2.97546C14.4789 4.09924 8.48329 5.29671 2.42155 6.11467C-1.38312 6.62682 -0.416328 12.8315 3.3185 12.7652L3.31482 12.7615Z" fill="#FFF16C"/>
</svg>
