<svg width="63" height="72" viewBox="0 0 63 72" fill="none" xmlns="http://www.w3.org/2000/svg">
<path d="M50.6981 26.5573C49.0182 25.5736 47.2904 26.3178 46.217 27.7364C44.8128 29.5897 42.7653 30.9051 40.8243 32.132C38.4239 33.65 36.1043 35.297 33.7554 36.8961C28.6347 40.3853 23.6353 43.9667 18.8087 47.8538C17.1031 49.2281 17.2097 52.1315 18.4595 53.7048C19.7682 55.3518 22.3156 56.0998 24.1941 54.8507C29.6566 51.2252 34.8141 47.2422 39.9678 43.1929C44.5114 39.6226 48.9483 36.1592 51.8707 31.0488C52.7493 29.5123 52.231 27.46 50.6944 26.5573H50.6981Z" fill="#FFA5DB"/>
<path d="M14.3719 1.31474C11.3429 6.6536 8.51601 12.0662 6.04941 17.6924C4.78486 20.5774 3.65266 23.5287 2.58294 26.491C2.0683 27.9132 1.60879 29.3576 1.15296 30.7982C0.619943 32.4747 -0.107903 34.2101 0.0134053 35.9897C0.311162 40.3264 5.39141 41.5091 7.84698 38.1157C8.86523 36.7119 9.17034 34.7959 9.65925 33.1489C10.0563 31.8115 10.479 30.4814 10.8834 29.1476C11.7619 26.2589 12.692 23.3887 13.6036 20.5111C15.4122 14.789 17.3458 9.08907 19.5404 3.50335C20.7277 0.47836 15.9268 -1.4118 14.3756 1.32211L14.3719 1.31474Z" fill="#FFA5DB"/>
<path d="M58.8002 58.4797C52.3304 58.6013 45.8312 59.1208 39.5011 60.532C36.4537 61.2099 33.3953 61.9321 30.4251 62.9048C27.5872 63.8333 23.8634 64.9165 22.7496 68.0152C22.4187 68.9326 22.9848 69.8943 23.7163 70.3954C26.1609 72.0718 29.8332 70.8375 32.4469 70.2554C35.5053 69.5774 38.5454 68.8442 41.6259 68.2657C47.6361 67.142 53.6317 65.9445 59.6934 65.1265C63.4981 64.6144 62.5313 58.4097 58.7965 58.476L58.8002 58.4797Z" fill="#FFA5DB"/>
</svg>
