<svg width="50" height="45" viewBox="0 0 50 45" fill="none" xmlns="http://www.w3.org/2000/svg">
<g clip-path="url(#clip0_235_790)">
<path d="M19.7681 31.8918C19.7708 32.7618 19.7747 33.6314 19.7894 34.5007C19.8204 36.2744 19.8408 38.0443 19.9623 39.8148C20.0584 41.2162 17.8434 41.5031 17.5157 40.148C17.0734 38.3178 16.6929 36.499 16.4592 34.6288C16.3462 33.7198 16.2577 32.8109 16.2087 31.8965C16.1592 30.9605 16.0173 29.8729 16.3257 28.9727C16.8707 27.3872 19.0686 27.3053 19.6027 28.9535C19.8994 29.8702 19.7645 30.939 19.7669 31.8921L19.7681 31.8918Z" fill="#FFF16C"/>
<path d="M43.0029 24.9466C42.5167 25.4449 41.8501 25.354 41.3454 24.969C40.6852 24.4662 39.8542 24.2096 39.0684 23.9732C38.0964 23.6806 37.1401 23.336 36.1782 23.0107C34.081 22.3004 32.0169 21.5468 29.9834 20.6717C29.2647 20.3622 29.0261 19.3544 29.308 18.6946C29.6033 18.0039 30.4111 17.5039 31.1775 17.7538C33.4055 18.4784 35.5622 19.3549 37.724 20.2545C39.6298 21.0478 41.4887 21.8145 42.9814 23.2916C43.4302 23.7357 43.446 24.4902 43.0016 24.947L43.0029 24.9466Z" fill="#FFF16C"/>
<path d="M32.8663 37.0854C31.3151 35.54 29.8268 33.95 28.4424 32.2521C27.7326 31.3815 27.0622 30.4755 26.4123 29.5597C26.0999 29.1202 25.8044 28.6678 25.5106 28.2162C25.1677 27.6911 24.7521 27.1643 24.6252 26.5412C24.3166 25.0228 25.9569 24.1317 27.1257 25.0634C27.61 25.4486 27.897 26.0778 28.2218 26.597C28.4856 27.0187 28.7575 27.4354 29.0235 27.8551C29.6005 28.7638 30.1935 29.6613 30.7808 30.563C31.9473 32.3565 33.1548 34.1305 34.4415 35.8403C35.138 36.7664 33.6612 37.8738 32.8668 37.0825L32.8663 37.0854Z" fill="#FFF16C"/>
<path d="M42.8167 13.3738C40.5735 13.9492 38.2824 14.3908 35.9651 14.5098C34.8496 14.5676 33.7262 14.6112 32.6094 14.5604C31.5424 14.5121 30.1552 14.4952 29.4772 13.5367C29.2761 13.2531 29.3801 12.8687 29.5849 12.6267C30.2692 11.8175 31.653 11.8912 32.6097 11.8419C33.729 11.7831 34.8472 11.745 35.9646 11.6498C38.1444 11.4626 40.326 11.302 42.4945 11.0048C43.8555 10.8178 44.1104 13.0419 42.8158 13.3754L42.8167 13.3738Z" fill="#FFF16C"/>
</g>
<defs>
<clipPath id="clip0_235_790">
<rect width="41.8731" height="34.2179" fill="white" transform="matrix(0.963817 -0.266567 -0.266054 -0.963958 9.10382 44.1466)"/>
</clipPath>
</defs>
</svg>
