<svg width="50" height="45" viewBox="0 0 50 45" fill="none" xmlns="http://www.w3.org/2000/svg">
<g clip-path="url(#clip0_235_784)">
<path d="M29.6933 12.2557C29.6907 11.3857 29.6869 10.5161 29.6722 9.6467C29.6413 7.87293 29.621 6.10303 29.4996 4.33251C29.4036 2.93104 31.6186 2.64395 31.9461 3.99909C32.3884 5.82938 32.7688 7.64817 33.0023 9.51848C33.1153 10.4274 33.2037 11.3364 33.2527 12.2508C33.3021 13.1868 33.4439 14.2745 33.1355 15.1747C32.5904 16.7603 30.3926 16.8424 29.8586 15.1941C29.562 14.2774 29.6969 13.2086 29.6946 12.2554L29.6933 12.2557Z" fill="#FFA5DB"/>
<path d="M6.45898 19.2024C6.94517 18.7041 7.61169 18.795 8.11643 19.1799C8.77651 19.6827 9.60748 19.9393 10.3933 20.1757C11.3652 20.4682 12.3215 20.8127 13.2833 21.138C15.3804 21.8483 17.4444 22.6018 19.4778 23.4768C20.1964 23.7863 20.4349 24.794 20.153 25.4539C19.8577 26.1446 19.0499 26.6447 18.2836 26.3948C16.0556 25.6703 13.899 24.7939 11.7374 23.8944C9.8317 23.1012 7.97288 22.3346 6.48032 20.8575C6.0316 20.4135 6.01581 19.6589 6.46024 19.2021L6.45898 19.2024Z" fill="#FFA5DB"/>
<path d="M16.5959 7.06278C18.1469 8.60815 19.6351 10.1981 21.0193 11.8959C21.7291 12.7665 22.3994 13.6725 23.0492 14.5883C23.3616 15.0279 23.657 15.4803 23.9508 15.9318C24.2937 16.457 24.7092 16.9838 24.8361 17.6068C25.1446 19.1253 23.5044 20.0165 22.3356 19.0848C21.8513 18.6996 21.5644 18.0704 21.2396 17.5512C20.9759 17.1295 20.7039 16.7128 20.438 16.2931C19.8611 15.3844 19.2682 14.487 18.6809 13.5853C17.5145 11.7918 16.3072 10.0178 15.0206 8.30797C14.3243 7.3819 15.801 6.27433 16.5953 7.06567L16.5959 7.06278Z" fill="#FFA5DB"/>
<path d="M6.64445 30.7757C8.88762 30.2001 11.1787 29.7584 13.4959 29.6393C14.6113 29.5814 15.7348 29.5377 16.8515 29.5885C17.9184 29.6367 19.3056 29.6536 19.9836 30.612C20.1847 30.8957 20.0806 31.2801 19.8758 31.5221C19.1915 32.3314 17.8078 32.2577 16.851 32.3071C15.7318 32.366 14.6137 32.4041 13.4963 32.4993C11.3166 32.6867 9.13497 32.8474 6.96652 33.1448C5.6056 33.3319 5.35082 31.1077 6.64537 30.7741L6.64445 30.7757Z" fill="#FFA5DB"/>
</g>
<defs>
<clipPath id="clip0_235_784">
<rect width="41.8731" height="34.2179" fill="white" transform="matrix(-0.963799 0.266629 0.265992 0.963975 40.358 0)"/>
</clipPath>
</defs>
</svg>
