<svg width="32" height="33" viewBox="0 0 32 33" fill="none" xmlns="http://www.w3.org/2000/svg">
<path d="M18.6 16.2095L14.4 13.8095V18.6095L18.6 16.2095Z" fill="white"/>
<path fill-rule="evenodd" clip-rule="evenodd" d="M0 16.2095C0 7.37292 7.16344 0.209473 16 0.209473C24.8366 0.209473 32 7.37292 32 16.2095C32 25.046 24.8366 32.2095 16 32.2095C7.16344 32.2095 0 25.046 0 16.2095ZM22.2 10.9095C22.9 11.1095 23.4 11.6095 23.6 12.3095C24 13.6095 24 16.2095 24 16.2095C24 16.2095 24 18.8095 23.7 20.1095C23.5 20.8095 23 21.3095 22.3 21.5095C21 21.8095 16 21.8095 16 21.8095C16 21.8095 10.9 21.8095 9.7 21.5095C9 21.3095 8.5 20.8095 8.3 20.1095C8 18.8095 8 16.2095 8 16.2095C8 16.2095 8 13.6095 8.2 12.3095C8.4 11.6095 8.90001 11.1095 9.60001 10.9095C10.9 10.6095 15.9 10.6095 15.9 10.6095C15.9 10.6095 21 10.6095 22.2 10.9095Z" fill="white"/>
</svg>
