<svg width="37" height="34" viewBox="0 0 37 34" fill="none" xmlns="http://www.w3.org/2000/svg">
<g clip-path="url(#clip0_252_1731)">
<path d="M22.2828 9.34362C22.2809 8.69618 22.278 8.049 22.2671 7.40202C22.2441 6.08201 22.2291 4.76488 22.1387 3.44728C22.0672 2.40433 23.7156 2.19068 23.9593 3.19915C24.2884 4.56123 24.5715 5.91475 24.7454 7.30661C24.8294 7.98304 24.8952 8.65946 24.9316 9.33995C24.9685 10.0366 25.074 10.846 24.8445 11.5159C24.4388 12.6959 22.8032 12.7569 22.4058 11.5304C22.1851 10.8481 22.2855 10.0527 22.2838 9.34336L22.2828 9.34362Z" fill="#FFF16C"/>
<path d="M4.99212 14.5132C5.35394 14.1424 5.84995 14.21 6.22557 14.4965C6.71679 14.8707 7.33519 15.0616 7.91999 15.2375C8.64327 15.4552 9.35489 15.7116 10.0707 15.9537C11.6313 16.4823 13.1673 17.043 14.6805 17.6942C15.2153 17.9245 15.3928 18.6744 15.183 19.1655C14.9633 19.6796 14.3621 20.0517 13.7918 19.8657C12.1338 19.3266 10.5289 18.6744 8.92026 18.005C7.50205 17.4147 6.11874 16.8442 5.008 15.745C4.67407 15.4145 4.66232 14.8529 4.99306 14.513L4.99212 14.5132Z" fill="#FFF16C"/>
<path d="M12.5359 5.47908C13.6901 6.62913 14.7976 7.81237 15.8278 9.07584C16.3559 9.72373 16.8548 10.398 17.3384 11.0795C17.5708 11.4066 17.7907 11.7433 18.0094 12.0793C18.2645 12.4701 18.5737 12.8622 18.6682 13.3258C18.8977 14.4558 17.6771 15.119 16.8073 14.4257C16.4469 14.1391 16.2334 13.6708 15.9917 13.2844C15.7954 12.9706 15.5931 12.6605 15.3952 12.3482C14.9658 11.672 14.5246 11.0041 14.0875 10.333C13.2195 8.99832 12.321 7.67816 11.3636 6.40574C10.8454 5.71657 11.9444 4.89233 12.5355 5.48123L12.5359 5.47908Z" fill="#FFF16C"/>
<path d="M5.13015 23.126C6.79949 22.6976 8.50445 22.369 10.2289 22.2803C11.059 22.2372 11.895 22.2047 12.7261 22.2425C13.5201 22.2784 14.5524 22.2909 15.0569 23.0042C15.2066 23.2153 15.1291 23.5013 14.9767 23.6814C14.4675 24.2837 13.4377 24.2289 12.7258 24.2656C11.8928 24.3094 11.0607 24.3378 10.2292 24.4087C8.60708 24.5481 6.98356 24.6677 5.36983 24.889C4.35706 25.0282 4.16745 23.373 5.13084 23.1248L5.13015 23.126Z" fill="#FFF16C"/>
</g>
<defs>
<clipPath id="clip0_252_1731">
<rect width="31.1614" height="25.4645" fill="white" transform="matrix(-0.963799 0.266629 0.265992 0.963975 30.2193 0.223145)"/>
</clipPath>
</defs>
</svg>
