<svg width="50" height="58" viewBox="0 0 50 58" fill="none" xmlns="http://www.w3.org/2000/svg">
<path d="M9.3637 21.8461C10.7084 21.0591 12.0913 21.6545 12.9504 22.7893C14.0744 24.272 15.7133 25.3243 17.2668 26.3058C19.1882 27.5203 21.0448 28.8378 22.9249 30.1171C27.0236 32.9085 31.0252 35.7736 34.8885 38.8833C36.2537 39.9828 36.1684 42.3055 35.168 43.5641C34.1205 44.8817 32.0815 45.4801 30.578 44.4808C26.2057 41.5804 22.0776 38.394 17.9524 35.1546C14.3157 32.2983 10.7643 29.5276 8.42509 25.4392C7.72188 24.2101 8.13674 22.5683 9.36664 21.8461H9.3637Z" fill="#1B17E1"/>
<path d="M38.4399 1.65189C40.8643 5.92298 43.127 10.253 45.1013 14.754C46.1135 17.062 47.0197 19.423 47.8759 21.7929C48.2879 22.9307 48.6557 24.0862 49.0205 25.2387C49.4471 26.5798 50.0297 27.9682 49.9326 29.3919C49.6943 32.8612 45.628 33.8074 43.6625 31.0926C42.8475 29.9696 42.6033 28.4368 42.2119 27.1193C41.8942 26.0493 41.5558 24.9852 41.2321 23.9181C40.5289 21.6072 39.7845 19.311 39.0548 17.0089C37.6072 12.4313 36.0595 7.87135 34.3029 3.40277C33.3525 0.982786 37.1952 -0.529339 38.4369 1.65779L38.4399 1.65189Z" fill="#1B17E1"/>
<path d="M2.8787 47.3837C8.05722 47.481 13.2593 47.8966 18.326 49.0256C20.7652 49.5679 23.2132 50.1457 25.5906 50.9238C27.8621 51.6666 30.8427 52.5332 31.7342 55.0122C31.999 55.7461 31.5459 56.5154 30.9604 56.9163C29.0037 58.2575 26.0643 57.27 23.9723 56.8043C21.5243 56.2619 19.091 55.6754 16.6253 55.2126C11.8146 54.3136 7.01563 53.3556 2.16372 52.7012C-0.881603 52.2915 -0.107767 47.3277 2.88165 47.3808L2.8787 47.3837Z" fill="#1B17E1"/>
</svg>
