<svg width="356" height="363" viewBox="0 0 356 363" fill="none" xmlns="http://www.w3.org/2000/svg">
<path d="M-59.5571 438.648C-37.3492 461.765 -13.7124 485.781 17.0065 494.971C47.7166 504.161 87.2552 492.254 97.2568 461.791C104.674 439.186 93.8788 414.394 78.903 395.908C63.9272 377.422 44.7179 362.543 30.9151 343.175C22.9862 332.054 16.8477 319.027 16.9624 305.365C17.0771 291.704 24.6796 277.53 37.4682 272.732C54.7195 266.259 73.3378 278.192 86.0822 291.501C107.638 314.017 122.843 342.09 145.033 363.99C167.223 385.889 200.676 401.217 229.517 389.373C261.435 376.267 273.253 334.047 262.396 301.291C251.539 268.543 224.048 244.165 195.473 224.824C166.897 205.482 135.772 189.236 111.368 164.841C94.5491 148.031 80.8522 122.595 91.2329 101.207C99.8762 83.4003 122.605 76.1859 142.14 79.405C161.676 82.6242 178.786 93.9134 195.235 104.938C221.358 122.445 247.482 139.952 273.597 157.468C289.614 168.202 305.957 179.094 324.452 184.553C342.947 190.004 364.281 189.272 379.927 177.991C406.678 158.694 405.654 115.98 386.436 89.1772C367.218 62.3742 335.635 47.7776 305.269 34.9009C274.903 22.0241 243.037 8.80345 221.888 -16.5002C206.33 -35.1009 198.224 -63.1652 211.26 -83.618C223.581 -102.951 249.026 -108.119 271.692 -111.559C319.883 -118.87 368.074 -126.182 416.265 -133.502" stroke="#FFF27A" stroke-width="64" stroke-miterlimit="10"/>
</svg>
