<svg width="157" height="40" viewBox="0 0 157 40" fill="none" xmlns="http://www.w3.org/2000/svg">
<g clip-path="url(#clip0_3027_611)">
<path d="M151.612 12.4379C147.709 11.8133 143.478 12.3833 139.537 12.6537C135.675 12.9203 131.81 13.2015 127.948 13.4828C120.231 14.0423 112.507 14.5813 104.813 15.3283C89.3155 16.8323 73.9422 19.3673 59.2313 23.9158C50.9078 26.4885 43.0163 29.7514 35.2137 33.3155C33.5157 34.0915 33.0327 36.1473 33.9853 37.5063C35.0352 39.0109 37.1385 39.2863 38.8676 38.5452C45.5019 35.71 52.5858 33.6236 59.6585 31.7485C66.7652 29.8613 74.0226 28.298 81.3035 26.9925C95.9916 24.3596 110.663 22.3928 125.598 21.3322C129.867 21.0288 134.136 20.7781 138.409 20.5597C140.44 20.4546 142.471 20.3788 144.497 20.2386C146.886 20.0737 149.404 20.0746 151.691 19.4386C155.422 18.3992 155.926 13.1313 151.612 12.4379Z" fill="#D7D7D7"/>
<path d="M119.183 10.8745C124.727 10.4804 130.282 10.1829 135.837 9.98225C138.508 9.88459 141.186 9.88951 143.86 9.88861C147.004 9.88827 151.163 10.4895 153.797 8.70564C156.984 6.54596 156.985 3.26076 153.712 1.17706C151.211 -0.413797 147.622 0.151818 144.713 0.313767C142.146 0.457186 139.583 0.647491 137.016 0.808506C132.101 1.1134 127.186 1.40363 122.279 1.81402C112.034 2.66902 101.824 3.85214 91.6722 5.32793C81.8889 6.74968 72.1099 8.54391 62.5235 10.7466C52.8996 12.9556 43.244 15.0799 33.8499 17.9462C23.1161 21.2208 12.5153 24.752 2.06585 28.6657C0.866971 29.1163 0.0394992 30.0467 0.415342 31.2216C0.741548 32.2416 2.17309 33.0085 3.38987 32.6281C22.0709 26.7852 41.3539 22.1585 60.7462 18.4224C79.9679 14.7204 99.5662 12.2666 119.18 10.8745L119.183 10.8745Z" fill="#D7D7D7"/>
</g>
<defs>
<clipPath id="clip0_3027_611">
<rect width="156.133" height="37.5896" fill="white" transform="translate(0 1.76514) rotate(-0.647758)"/>
</clipPath>
</defs>
</svg>
