<svg width="385" height="99" viewBox="0 0 385 99" fill="none" xmlns="http://www.w3.org/2000/svg">
<g clip-path="url(#clip0_67_70)">
<path d="M371.258 51.3084C361.904 49.3701 351.556 49.5516 341.963 49.244C332.56 48.9454 323.147 48.6731 313.743 48.4014C294.951 47.854 276.145 47.2676 257.376 47.0679C219.573 46.6645 181.901 48.174 145.5 53.5041C124.904 56.5182 105.241 60.8839 85.7429 65.8188C81.4998 66.8934 79.9889 70.5582 82.0719 73.2399C84.3669 76.208 89.4178 77.1405 93.7307 76.136C110.276 72.2974 127.788 69.9209 145.237 67.929C162.771 65.9218 180.616 64.5382 198.475 63.6314C234.503 61.8033 270.382 61.191 306.748 62.2914C317.142 62.6053 327.528 63.0159 337.919 63.4863C342.857 63.7075 347.79 63.9824 352.725 64.1385C358.541 64.3232 364.641 64.8375 370.29 64.1393C379.501 62.9963 381.597 53.4561 371.258 51.3084Z" fill="#D7D7D7"/>
<path d="M292.936 41.8418C306.434 42.2494 319.943 42.8362 333.44 43.6003C339.926 43.9654 346.415 44.5199 352.897 45.063C360.514 45.7025 370.492 47.6501 377.171 44.9212C385.252 41.617 385.797 35.6035 378.212 31.1227C372.414 27.7012 363.625 28.0057 356.55 27.7097C350.305 27.4495 344.063 27.2758 337.816 27.0478C325.856 26.6048 313.897 26.1351 301.938 25.8869C276.972 25.3655 252.035 25.4518 227.19 26.0857C203.248 26.6957 179.254 27.9884 155.659 30.0681C131.973 32.1516 108.223 34.0736 84.9846 37.4073C58.4322 41.2154 32.1592 45.5202 6.18979 50.5562C3.21002 51.1368 1.05075 52.6714 1.76683 54.8986C2.3883 56.8322 5.73014 58.5277 8.74163 58.0792C54.9774 51.1882 102.47 46.6463 150.081 43.7567C197.272 40.895 245.169 40.3948 292.928 41.8412L292.936 41.8418Z" fill="#D7D7D7"/>
</g>
<defs>
<clipPath id="clip0_67_70">
<rect width="379.686" height="69.0864" fill="white" transform="translate(5.64062 0.893555) rotate(4.31473)"/>
</clipPath>
</defs>
</svg>
