<svg width="50" height="58" viewBox="0 0 50 58" fill="none" xmlns="http://www.w3.org/2000/svg">
<path d="M40.6362 21.8461C39.2915 21.0591 37.9086 21.6545 37.0495 22.7893C35.9255 24.272 34.2866 25.3243 32.7331 26.3058C30.8117 27.5203 28.9551 28.8378 27.0749 30.1171C22.9763 32.9085 18.9747 35.7736 15.1114 38.8833C13.7461 39.9828 13.8315 42.3055 14.8319 43.5641C15.8793 44.8817 17.9184 45.4801 19.4219 44.4808C23.7942 41.5804 27.9223 38.394 32.0475 35.1546C35.6842 32.2983 39.2356 29.5276 41.5748 25.4392C42.278 24.2101 41.8631 22.5683 40.6332 21.8461H40.6362Z" fill="#1B17E1"/>
<path d="M11.5601 1.65189C9.13566 5.92298 6.873 10.253 4.89869 14.754C3.88653 17.062 2.98029 19.423 2.12407 21.7929C1.71214 22.9307 1.34434 24.0862 0.979493 25.2387C0.552854 26.5798 -0.0297267 27.9682 0.0673705 29.3919C0.3057 32.8612 4.37201 33.8074 6.33749 31.0926C7.15252 29.9696 7.39674 28.4368 7.78807 27.1193C8.10584 26.0493 8.44421 24.9852 8.76787 23.9181C9.47108 21.6072 10.2155 19.311 10.9452 17.0089C12.3928 12.4313 13.9405 7.87135 15.6971 3.40277C16.6475 0.982786 12.8048 -0.529339 11.5631 1.65779L11.5601 1.65189Z" fill="#1B17E1"/>
<path d="M47.1214 47.3837C41.9429 47.481 36.7408 47.8966 31.6741 49.0256C29.2349 49.5679 26.7869 50.1457 24.4095 50.9238C22.138 51.6666 19.1574 52.5332 18.2659 55.0122C18.0011 55.7461 18.4542 56.5154 19.0397 56.9163C20.9964 58.2575 23.9358 57.27 26.0278 56.8043C28.4758 56.2619 30.9091 55.6754 33.3748 55.2126C38.1855 54.3136 42.9845 53.3556 47.8364 52.7012C50.8817 52.2915 50.1079 47.3277 47.1185 47.3808L47.1214 47.3837Z" fill="#1B17E1"/>
</svg>
