<svg width="16" height="13" viewBox="0 0 16 13" fill="none" xmlns="http://www.w3.org/2000/svg">
<path d="M3.50246 7.64814C1.66742 7.23569 0.858516 7.00472 0.789916 6.55221C0.768954 6.40137 1.97802 5.78152 4.41713 4.69265C4.86874 4.48996 5.24604 4.32263 5.4547 4.22835L5.47185 4.07045C5.71195 1.95636 5.83486 0.888706 6.60946 0.702515C7.31547 0.530466 8.11294 1.10554 10.2738 3.3469C10.5111 3.33511 10.9198 3.30683 11.3714 3.27855C13.9858 3.10571 15.3159 3.12849 15.3616 3.3469C15.4703 3.8654 14.507 4.90949 12.5033 6.45793C12.6634 6.67712 12.8206 6.89631 12.9835 7.11314C13.5237 7.83905 14.0811 8.59088 14.5527 9.37335C14.5756 9.41813 14.6728 9.51241 14.7414 9.58075C14.9615 9.8023 15.1473 9.9932 15.0358 10.2171C15.0101 10.2619 14.9472 10.3538 14.8043 10.4009C14.7643 10.4127 14.7185 10.4198 14.6671 10.4245C13.2951 10.5282 10.2595 9.30028 9.42491 8.94911C9.25627 9.06696 9.05047 9.19423 8.83038 9.33092C8.5131 9.52654 8.15296 9.75045 8.00718 9.8895C7.76994 10.1134 7.52698 10.3632 7.28974 10.606C6.60946 11.3012 6.06924 11.8551 5.5919 12.0083C5.42326 12.0602 5.26319 12.0649 5.10884 12.0083C4.67438 11.8504 4.48001 11.3672 4.83158 9.43462C4.84302 9.37099 4.87446 9.24608 4.91448 9.0976C4.97736 8.86898 5.13171 8.29156 5.12599 8.0818C4.88875 7.96631 4.09128 7.78719 3.49961 7.65285L3.50246 7.64814ZM5.60047 9.2178C5.56617 9.34978 5.53473 9.45819 5.52616 9.51711C5.27748 10.8699 5.34608 11.3107 5.40039 11.4474C5.69194 11.3177 6.32077 10.6743 6.74666 10.2407C6.98962 9.9932 7.23829 9.73866 7.48125 9.50769C7.67847 9.3215 8.03291 9.10231 8.4102 8.86663C8.68746 8.69458 8.97615 8.51782 9.12193 8.39526C9.12764 8.39055 9.13622 8.39055 9.13908 8.38583C9.15623 8.37405 9.17623 8.36462 9.19624 8.35519C9.21625 8.34341 9.2334 8.33633 9.25341 8.32926C9.27628 8.32219 9.29628 8.3222 9.31629 8.31748C9.33916 8.31277 9.36203 8.31041 9.38489 8.31277C9.4049 8.31277 9.42491 8.31748 9.44778 8.32219C9.47064 8.32691 9.49351 8.33162 9.51923 8.34105C9.52495 8.34577 9.53067 8.34105 9.53638 8.34576C10.5625 8.80063 12.7977 9.65617 14.0783 9.82586C14.0154 9.75751 13.9582 9.69388 13.9211 9.63025C13.4666 8.87134 12.9149 8.13365 12.3861 7.41481C12.166 7.12021 11.9488 6.8256 11.7344 6.52864C11.6344 6.38958 11.6916 6.21282 11.8545 6.13269C11.8802 6.1209 11.9088 6.11619 11.9374 6.10912C11.9431 6.1044 11.9431 6.09734 11.9517 6.09498C13.4066 4.97548 14.3012 4.10109 14.5785 3.67214C13.8725 3.69335 12.3347 3.79705 11.4257 3.85598C10.7969 3.89604 10.3024 3.92904 10.1309 3.93611H10.1252C10.1252 3.93611 10.1138 3.93611 10.1109 3.93611C10.0737 3.93611 10.0366 3.93139 10.0023 3.92197C9.988 3.91725 9.97656 3.91254 9.96227 3.90783C9.93941 3.8984 9.91654 3.88662 9.89367 3.87248C9.87938 3.86305 9.87081 3.85361 9.85937 3.84419C9.85366 3.83947 9.84508 3.83476 9.83651 3.82769C9.20196 3.16542 7.26688 1.14796 6.80669 1.26109C6.47798 1.33886 6.32363 2.75768 6.16928 4.12701L6.13498 4.43812C6.13498 4.43812 6.1264 4.45226 6.1264 4.46169C6.12069 4.48054 6.11211 4.49704 6.10354 4.51825C6.09496 4.53475 6.08639 4.54889 6.07781 4.56303C6.06352 4.58188 6.05209 4.59131 6.03494 4.60781C6.02065 4.62195 6.0035 4.63374 5.98349 4.64552C5.97491 4.65023 5.9692 4.6573 5.96062 4.66201C5.85486 4.71151 5.37181 4.92834 4.74869 5.20409C3.86833 5.59768 2.39058 6.2576 1.70744 6.57342C2.15619 6.75018 3.07943 6.95994 3.6854 7.09428C4.85731 7.3606 5.48042 7.50908 5.70623 7.73534C5.90345 7.93096 5.84915 8.27977 5.59761 9.22251L5.60047 9.2178Z" fill="#FFF16C"/>
</svg>
